<?xml version="1.0" encoding="utf-8"?>
<!-- Generator: Adobe Illustrator 19.1.0, SVG Export Plug-In . SVG Version: 6.00 Build 0)  -->
<!DOCTYPE svg PUBLIC "-//W3C//DTD SVG 1.1//EN" "http://www.w3.org/Graphics/SVG/1.1/DTD/svg11.dtd">
<svg version="1.1" id="Layer_1" xmlns="http://www.w3.org/2000/svg" xmlns:xlink="http://www.w3.org/1999/xlink" x="0px" y="0px"
	 viewBox="0 0 194.6 48" enable-background="new 0 0 194.6 48" xml:space="preserve">
<symbol  id="_x7E__Green_Bar" viewBox="-2.3 -119.4 4.7 238.8">
	<g>
		<polygon fill="#4FBC26" points="2.3,-119.4 -2.3,-119.4 -2.3,0 2.3,0 		"/>
	</g>
	<g>
		<polygon fill="#4FBC26" points="2.3,0 -2.3,0 -2.3,119.4 2.3,119.4 		"/>
	</g>
</symbol>
<symbol  id="_x7E__Lock-up_Black_Top" viewBox="0 -358.3 700.3 358.3">
	<g>
		
			<use xlink:href="#_x7E__Tree_Black"  width="556.2" height="338.9" id="XMLID_153_" x="-278.1" y="-169.4" transform="matrix(0.3754 0 0 0.3754 228.4436 -175.2848)" overflow="visible"/>
	</g>
	<polygon fill="none" points="0,-358.3 700.3,-358.3 700.3,0 0,0 	"/>
	<polygon fill="none" points="332.9,-209 362.7,-209 362.7,-238.8 332.9,-238.8 	"/>
	<polygon fill="none" points="362.7,-209 392.5,-209 392.5,-238.8 362.7,-238.8 	"/>
	<polygon fill="none" points="670.5,-209 700.3,-209 700.3,-238.8 670.5,-238.8 	"/>
	<polygon fill="none" points="640.6,-209 670.5,-209 670.5,-238.8 640.6,-238.8 	"/>
	<polygon fill="none" points="64.4,-209 94.2,-209 94.2,-238.8 64.4,-238.8 	"/>
	<polygon fill="none" points="94.2,-209 124,-209 124,-238.8 94.2,-238.8 	"/>
	<polygon fill="none" points="0,-209 29.8,-209 29.8,-238.8 0,-238.8 	"/>
	<polygon fill="none" points="29.8,-209 59.7,-209 59.7,-238.8 29.8,-238.8 	"/>
	
		<use xlink:href="#_x7E__Wordmark_Black"  width="248.1" height="124" id="XMLID_152_" x="-0.4" y="-59.6" transform="matrix(1 0 0 1 392.9518 -180.0728)" overflow="visible"/>
	
		<use xlink:href="#_x7E__Green_Bar"  width="4.7" height="238.8" id="XMLID_102_" x="-2.3" y="-119.4" transform="matrix(1 0 0 1 62.0151 -119.4209)" overflow="visible"/>
</symbol>
<symbol  id="_x7E__Tree_Black" viewBox="-278.1 -169.4 556.2 338.9">
	<g>
		<g>
			<g>
				<path d="M-126.6,59.4l1.7-0.6c0,0,0.1,0,0.1,0c0.3,1.8,0.6,3.7,0.9,5.5l-1.1,0.3c-0.5,0.2-1,0.3-1.4,0.5
					c-0.6,0.2-1.3,0.4-1.9,0.6c-0.7,0.3-1.4,0.6-2.1,0.8c-1.5,0.6-3,1.1-4.3,1.8c0,0-0.1,0-0.1,0l-1.7,0.8c-0.5,0.2-1,0.4-1.4,0.7
					l-3.1,1.7c-0.6,0.3-1.1,0.7-1.8,1.1c-0.4,0.3-0.8,0.5-1.2,0.7l-0.6,0.4c-0.3,0.2-0.6,0.3-0.8,0.5l-2.9,2.1
					c-0.5,0.3-0.9,0.6-1.2,1l-2.7,2.3c-0.3,0.3-0.7,0.7-1,1c-1.4,1.3-2.7,2.5-3.9,3.9c-3.4,3.7-6.2,7.4-8.5,11.1c0,0,0,0.1-0.1,0.1
					c-0.5,0.7-0.9,1.5-1.4,2.4c-0.3,0.5-0.6,1.1-0.9,1.6c-0.4,0.8-0.8,1.6-1.2,2.4l-0.1,0.1l-4.9-2.4l0.1-0.1
					c0.4-0.9,0.9-1.8,1.3-2.6c0,0,0-0.1,0.1-0.1c0.3-0.5,0.6-1,0.9-1.5c0.5-0.9,1-1.8,1.6-2.7c2.4-4,5.4-7.9,9-11.9
					c1.3-1.5,2.8-2.9,4.2-4.2l1.1-1c0,0,0.1-0.1,0.1-0.1l2.7-2.3c0.5-0.4,1-0.8,1.6-1.3l2.9-2.1c0,0,0.1,0,0.1-0.1
					c0.3-0.2,0.7-0.4,1-0.7l0.6-0.4c0.4-0.2,0.7-0.5,1.1-0.7c0.6-0.4,1.3-0.9,2.1-1.3l3.1-1.7c0.6-0.3,1.2-0.6,1.9-0.9l1.6-0.7
					c1.6-0.8,3.2-1.4,4.8-2c0.7-0.3,1.4-0.5,2.1-0.8c0.1,0,0.1,0,0.2-0.1c0.7-0.2,1.4-0.5,2.1-0.7
					C-127.5,59.7-127.1,59.5-126.6,59.4z"/>
				<path d="M-128,46.8l1.4-0.4c0.1,0.6,0.1,1.1,0.2,1.7c0.2,1.3,0.4,2.5,0.5,3.8l-0.8,0.2l-1.9,0.6c-0.5,0.2-1,0.3-1.4,0.5
					c-0.8,0.3-1.6,0.5-2.5,0.8c-0.7,0.3-1.5,0.6-2.2,0.9c-1.9,0.7-3.6,1.4-5.4,2.3l-2,0.9c-0.6,0.3-1.2,0.5-1.7,0.8l-3.7,2
					c-0.7,0.4-1.4,0.9-2.2,1.4c-0.4,0.3-0.9,0.6-1.3,0.8l-0.7,0.4c-0.4,0.2-0.7,0.5-1,0.6l-3.4,2.5c-0.6,0.4-1.1,0.8-1.5,1.2
					l-3.2,2.7l-0.9,0.9c-1.7,1.6-3.4,3.2-4.9,4.9c-3.9,4.3-7.3,8.6-9.9,13.1c-0.6,0.9-1.1,1.9-1.7,2.9c-0.3,0.6-0.6,1.1-1,1.7
					c-0.5,1-1,2-1.5,3c-0.3,0.6-0.6,1.2-0.9,1.8l-4.9-2.5c0.3-0.6,0.6-1.1,0.9-1.7c0.5-1.1,1.1-2.2,1.6-3.3c0,0,0-0.1,0-0.1
					c0.3-0.5,0.6-1.1,0.9-1.6c0.6-1.1,1.2-2.2,1.8-3.1c2.8-4.6,6.4-9.3,10.5-13.8c1.7-1.9,3.5-3.6,5.2-5.2l1-0.9
					c0,0,0.1-0.1,0.1-0.1l3.2-2.7c0.5-0.5,1.1-0.9,1.8-1.5l3.5-2.6c0.4-0.3,0.8-0.5,1.2-0.8l0.6-0.4c0.4-0.3,0.8-0.5,1.2-0.8
					c0.8-0.5,1.6-1,2.5-1.5l3.6-2c0.6-0.4,1.3-0.7,2.1-1.1l1.8-0.9c1.9-1,3.9-1.7,5.8-2.5c0.7-0.3,1.5-0.6,2.2-0.9
					c0,0,0.1,0,0.1-0.1c0.9-0.3,1.8-0.6,2.7-0.9c0.5-0.1,0.9-0.3,1.4-0.4l2-0.6C-128.1,46.9-128.1,46.9-128,46.8z"/>
				<path d="M-127.3,39.6l-2.6,0.6l-3.6,1.1c-1,0.3-2,0.6-3,1c-0.7,0.3-1.5,0.6-2.2,0.9c-2.2,0.9-4.3,1.7-6.4,2.7l-2.2,1
					c-0.7,0.3-1.4,0.6-2,1l-4.2,2.3c-0.9,0.5-1.7,1-2.6,1.6c-0.5,0.3-0.9,0.6-1.3,0.9l-0.7,0.5c-0.4,0.3-0.9,0.5-1.2,0.8l-3.9,2.9
					c-0.7,0.5-1.2,0.9-1.7,1.4l-3.6,3.1l-0.7,0.6c-2.1,2-4.1,3.9-6,6c-4.5,4.9-8.3,9.9-11.4,14.9c-0.7,1.1-1.4,2.2-2,3.5
					c-0.3,0.6-0.7,1.2-1,1.8c-0.6,1.1-1.2,2.3-1.8,3.5l-4.9-2.4c0.6-1.3,1.2-2.5,1.9-3.8c0.3-0.6,0.7-1.2,1-1.8
					c0.7-1.2,1.4-2.5,2.2-3.7c3.2-5.3,7.3-10.6,11.9-15.7c2-2.3,4.2-4.3,6.3-6.3l0.7-0.7c0,0,0.1-0.1,0.1-0.1l3.7-3.1
					c0.6-0.5,1.3-1,2.1-1.6l4-2.9c0.5-0.3,0.9-0.6,1.4-0.9l0.7-0.5c0.4-0.3,0.9-0.6,1.3-0.8c0.9-0.6,1.9-1.2,2.9-1.8l4.2-2.3
					c0.7-0.4,1.5-0.8,2.4-1.2l2.1-1c2.3-1.1,4.6-2,6.9-2.9c0.7-0.3,1.5-0.6,2.2-0.9c0,0,0.1,0,0.1,0c1.1-0.4,2.2-0.7,3.2-1l3.7-1.1
					c0.1,0,0.1,0,0.2,0l3.5-0.9C-127.7,35.9-127.5,37.7-127.3,39.6z"/>
			</g>
			<g>
				<path d="M-72,105l-0.1,0.2c-0.3,0.8-0.6,1.5-0.8,2.3c-0.2,0.7-0.5,1.3-0.7,2c-2.2-0.2-4.2-0.3-6.3-0.3c-7-0.2-13.1,0.1-18.7,1
					c-6.1,0.9-12,2.4-17.5,4.4c-5.3,2-10.6,4.8-15.6,8.3l-2.9,2c-0.2,0.1-0.3,0.2-0.5,0.4l-2.8,2.3l-3.5-4.3l2.7-2.2
					c0.2-0.2,0.4-0.4,0.7-0.6c0,0,0.1,0,0.1-0.1l2.9-2.1c5.4-3.7,11.1-6.7,16.8-8.9c5.8-2.2,12.1-3.8,18.6-4.7
					c4.7-0.7,9.8-1.1,15.5-1.1c1.3,0,2.7,0,4.1,0.1c2.6,0,5.1,0.2,7.6,0.4c0.2,0,0.4,0,0.6,0C-71.7,104.4-71.9,104.7-72,105z"/>
				<path d="M-68.9,97.4c-0.1,0-0.1,0-0.2,0c-0.8-0.1-1.5-0.1-2.3-0.2c-2.7-0.2-5.4-0.4-8.2-0.5c-7.7-0.2-14.5,0.1-20.8,1.1
					c-7,1-13.8,2.8-20.1,5.1c-6.2,2.4-12.4,5.6-18.2,9.6l-3.3,2.3c-0.2,0.2-0.4,0.3-0.6,0.5l-4.6,3.8l-3.5-4.3l4.6-3.8
					c0.3-0.2,0.5-0.4,0.8-0.6c0,0,0.1,0,0.1-0.1l3.4-2.4c6.2-4.3,12.8-7.7,19.4-10.3c6.6-2.5,13.8-4.3,21.2-5.4
					c5.3-0.8,11-1.2,17.2-1.2c1.5,0,3,0,4.5,0.1c2.9,0,5.7,0.3,8.5,0.5c0.8,0.1,1.5,0.1,2.3,0.2c0,0,0.1,0,0.1,0
					c0.6,0.1,1.3,0.2,1.9,0.2C-67.4,93.9-68.1,95.6-68.9,97.4z"/>
				<path d="M-63.5,85.6c-0.7-0.1-1.4-0.2-2.1-0.3l-2.3-0.3l-2.2-0.2c-3-0.2-6-0.5-9.1-0.5c-8.5-0.2-16,0.2-23,1.2
					c-7.9,1.2-15.6,3.1-22.7,5.8c-7.2,2.7-14.2,6.4-20.8,11l-3.7,2.6c-0.2,0.2-0.5,0.4-0.7,0.6l-2.7,2.2l-3.5-4.3l2.7-2.2
					c0.3-0.2,0.6-0.5,0.9-0.8l3.9-2.7c7-4.8,14.5-8.7,22-11.6c7.5-2.8,15.5-4.9,23.8-6.1c5.9-0.9,12.2-1.4,19-1.4
					c1.6,0,3.2,0,4.9,0.1c3.2,0,6.4,0.3,9.4,0.5l2.3,0.2c0,0,0.1,0,0.1,0l2.3,0.3c1.4,0.2,2.7,0.3,4.1,0.5
					C-61.8,82.2-62.6,83.9-63.5,85.6z"/>
			</g>
			<g>
				<path d="M271-40.3l-6.6,1.5l-4.2,1.3c-0.3,0.1-0.6,0.2-0.9,0.3c-0.4,0.1-0.8,0.2-1.2,0.4l-4.1,1.7c-0.2,0.1-0.5,0.2-0.7,0.3
					c-0.4,0.2-0.8,0.3-1.1,0.5c0,0-0.1,0-0.1,0.1l-4,2c0,0-0.1,0-0.1,0.1c-0.4,0.2-0.9,0.5-1.4,0.8l-3.9,2.4l-4.2,3.1l-3.9,3.5
					l-2.9,3.1c0,0-0.1,0.1-0.1,0.1c-0.4,0.3-0.7,0.8-1.1,1.3l-1.4,1.7c-0.2,0.2-0.4,0.5-0.6,0.7c-0.2,0.3-0.5,0.5-0.6,0.8
					c0,0,0,0.1-0.1,0.1l-1.2,1.8c-3.1,4.6-5.5,9.6-7,14.7l-0.9,3.4c-0.3-0.1-0.5-0.2-0.8-0.3c-1.4-0.5-2.9-0.9-4.4-1.4l0.8-3.2
					c0,0,0-0.1,0-0.1c1.7-5.7,4.4-11.2,7.7-16.2l1.2-1.8c0.3-0.5,0.7-1,1-1.4c0.1-0.2,0.3-0.3,0.5-0.6l1.4-1.8
					c0.4-0.6,0.9-1.2,1.6-1.8l3-3.1c0.1-0.1,0.1-0.1,0.2-0.2l4.1-3.6c0.1-0.1,0.1-0.1,0.2-0.2l4.4-3.3c0.1-0.1,0.1-0.1,0.2-0.1
					l3.9-2.4c0.6-0.4,1.2-0.8,2-1.1l3.9-2c0.6-0.3,1.2-0.6,1.7-0.8c0.2-0.1,0.4-0.1,0.6-0.2l4.2-1.7c0,0,0.1,0,0.1,0
					c0.5-0.2,1-0.3,1.5-0.5c0.3-0.1,0.5-0.2,0.8-0.2l4.3-1.4c0.1,0,0.1,0,0.2-0.1l6.8-1.6c0.1,0,0.1,0,0.2,0l7.2-1.1l0.8,5.4
					L271-40.3z"/>
				<path d="M268.7-52.5l-7.6,1.8l-4.9,1.5c-0.3,0.1-0.6,0.2-0.9,0.3c-0.5,0.2-1,0.3-1.4,0.4l-4.8,2c-0.3,0.1-0.5,0.2-0.8,0.3
					c-0.5,0.2-1,0.4-1.3,0.6c0,0-0.1,0-0.1,0l-4.7,2.4c-0.6,0.3-1.2,0.6-1.8,1l-4.5,2.8l-5.1,3.8l-1,0.8c-10.3,8.6-18.1,20.3-22,33
					c-0.2,0.6-0.3,1.3-0.5,1.9c-0.1,0.4-0.2,0.8-0.3,1.3c-0.4-0.1-0.9-0.3-1.3-0.4c-1.3-0.4-2.6-0.9-3.9-1.3
					c0.1-0.3,0.2-0.6,0.2-0.9c0.2-0.6,0.3-1.3,0.5-1.9c0,0,0-0.1,0-0.1c4.2-13.7,12.7-26.4,23.7-35.6l1-0.9c0.1,0,0.1-0.1,0.2-0.1
					l5.3-3.9c0.1,0,0.1-0.1,0.2-0.1l4.6-2.9c0.7-0.5,1.5-0.9,2.3-1.3l4.6-2.3c0.7-0.4,1.3-0.6,1.9-0.9c0.2-0.1,0.4-0.2,0.7-0.3
					l4.9-2c0.6-0.2,1.2-0.4,1.7-0.6c0.3-0.1,0.6-0.2,0.9-0.3l5-1.6c0.1,0,0.1,0,0.2-0.1l7.8-1.8c0.1,0,0.1,0,0.2,0l5.9-0.9l0.8,5.4
					L268.7-52.5z"/>
				<path d="M266.3-64.7l-8.5,2l-5.5,1.7c-0.3,0.1-0.7,0.2-1,0.3c-0.6,0.2-1.2,0.4-1.7,0.5l-5.5,2.2c-0.3,0.1-0.6,0.2-0.9,0.4
					c-0.6,0.2-1.2,0.5-1.7,0.8l-5.4,2.7c-0.7,0.3-1.4,0.8-2.2,1.2l-5.2,3.2l-5.9,4.4l-1.1,1c-12.1,10.1-21.3,23.9-25.9,38.9
					l-0.3,1.2c-0.1,0.5-0.3,1.1-0.4,1.6c-0.1,0-0.3-0.1-0.4-0.1c-1.5-0.5-3.1-1-4.8-1.6c0.1-0.4,0.2-0.9,0.3-1.3l0.3-1.3
					c0,0,0-0.1,0-0.1c4.9-16,14.7-30.8,27.6-41.5l1.1-1c0,0,0.1-0.1,0.2-0.1l6.1-4.5c0.1,0,0.1-0.1,0.2-0.1l5.3-3.3
					c0.8-0.5,1.7-1.1,2.6-1.5l5.3-2.7c0.8-0.4,1.5-0.7,2.2-1c0.3-0.1,0.5-0.2,0.8-0.3l5.6-2.3c0.7-0.2,1.3-0.4,2-0.7
					c0.3-0.1,0.6-0.2,1-0.3l5.6-1.8c0.1,0,0.1,0,0.2-0.1l8.7-2c0.1,0,0.1,0,0.2,0l5.4-0.8l0.8,5.4L266.3-64.7z"/>
			</g>
			<g>
				<g>
					<path d="M104.6,20.3c-4.1,0.9-8.3,2.2-12.4,3.8c-0.1-0.8-0.3-1.6-0.5-2.6l-0.2-1c-0.1-0.6-0.3-1.3-0.5-1.9
						c4.1-1.6,8.3-2.9,12.5-3.8c5-1.1,10.3-1.7,15.6-1.9c0.7,1.7,1.3,3.5,2,5.4C115.3,18.5,109.8,19.2,104.6,20.3z"/>
					<path d="M246.4,48.1c-1.3-0.2-2.7-0.4-4.1-0.6c-0.6-0.1-1.3-0.2-2-0.3c-1.3-0.2-2.7-0.5-4-0.8c-13.7-2.8-26.2-7-38.4-11
						l-4.1-1.4c-10.1-3.4-19.7-6.6-29.3-9.2c-0.3-0.9-0.5-1.8-0.8-2.6c-0.3-1.2-0.7-2.4-1-3.5c10.8,2.8,21.6,6.4,32.9,10.2l4,1.3
						c12,4,24.4,8.1,37.8,10.9c1.2,0.3,2.5,0.5,3.8,0.7c0.7,0.1,1.3,0.2,1.9,0.3c1.3,0.2,2.6,0.4,3.8,0.5L246.4,48.1z"/>
				</g>
				<g>
					<path d="M249.9,36.1c-0.6-0.1-1.3-0.2-1.9-0.3c-1.2-0.2-2.4-0.3-3.7-0.5c-0.6-0.1-1.3-0.2-1.9-0.3c-1.2-0.2-2.4-0.4-3.6-0.7
						c-12.9-2.6-25.6-6.9-37.8-10.9l-3.7-1.2c-11.8-4-24.1-8.1-36.4-11.1c-0.2,0-0.3-0.1-0.5-0.1c-0.5-1.7-1.1-3.3-1.6-5
						c-0.1-0.4-0.2-0.7-0.4-1.1c1.2,0.3,2.5,0.6,3.8,0.9c12.5,3.1,24.8,7.2,36.8,11.2l3.7,1.2c12.1,4,24.6,8.2,37.2,10.8
						c1.1,0.2,2.2,0.4,3.4,0.6c0.7,0.1,1.3,0.2,1.9,0.3c1.1,0.2,2.3,0.3,3.4,0.5c0.6,0.1,1.3,0.2,1.9,0.3L249.9,36.1z"/>
					<path d="M101.9,8.2c-4.4,1-8.7,2.3-13,3.9c-0.6-1.7-1.3-3.4-2.1-5.1c4.6-1.8,9.3-3.2,13.9-4.2c4.1-0.9,8.4-1.5,12.7-1.9
						c0.2,0.3,0.4,0.6,0.5,1c0.7,1.3,1.4,2.7,2.2,4.3C111.3,6.5,106.5,7.2,101.9,8.2z"/>
				</g>
				<g>
					<path d="M248.4,23.4c-0.7-0.1-1.4-0.2-2.2-0.3c-0.6-0.1-1.2-0.2-1.8-0.3c-1-0.2-2.1-0.4-3.2-0.6c-12.2-2.5-24.4-6.6-37.4-10.9
						l-3.1-1C189,6.3,176.7,2.2,163.9-1c-2.8-0.7-5.6-1.3-8.3-1.9c-0.4-1-0.9-2.1-1.3-3.3l-0.1-0.1c-0.4-0.9-0.8-1.9-1.2-2.7
						c3.9,0.7,8,1.6,12.2,2.7c13,3.2,25.4,7.3,37.3,11.3l3.1,1c12.8,4.3,24.9,8.3,36.8,10.7c1,0.2,1.9,0.4,3,0.6
						c0.6,0.1,1.2,0.2,1.8,0.3c0.6,0.1,1.3,0.2,1.9,0.3L248.4,23.4z"/>
					<path d="M99.3-3.9c-5.2,1.1-10.4,2.7-15.5,4.7c-0.9-1.6-1.9-3.2-2.9-4.8C86.5-6.2,92.3-8,98.1-9.3c2.5-0.5,5-1,7.6-1.4
						c0.2,0.2,0.4,0.5,0.6,0.7c0.3,0.4,0.7,0.9,1.1,1.5l0.1,0.1c0.5,0.7,1.1,1.6,1.9,2.7c0,0,0,0.1,0.1,0.1
						C106-5.2,102.6-4.6,99.3-3.9z"/>
				</g>
			</g>
			<g>
				<g>
					<path d="M181.4,75.5c0.4,0.1,0.7,0.2,1.1,0.3c3.1,4.2,6.4,8.4,10.1,12.6c1.5,1.8,3.2,3.5,4.8,5.2l0.6,0.6l-4,3.8l-0.6-0.6
						c-1.7-1.7-3.4-3.6-5-5.4c-5.2-5.8-9.8-11.7-13.8-17.8C177,74.6,179.2,75,181.4,75.5z"/>
					<path d="M156.4,33.6c0-0.1-0.1-0.2-0.1-0.3c-0.8-2.6-1.5-5.3-2.3-8c-0.9-3-1.8-6.1-2.7-9.3c-2.1-7-4.1-12.7-6.3-17.9
						c-2.6-6.1-5.6-11.9-9-17.3c-1.8-2.8-3.8-5.7-6-8.5c1.9-0.5,3.8-1,5.7-1.5c1.7,2.3,3.4,4.7,4.9,7c3.6,5.6,6.8,11.7,9.5,18.1
						c2.3,5.3,4.3,11.2,6.5,18.4c1,3.2,1.9,6.3,2.7,9.4c0.8,2.7,1.5,5.3,2.3,7.9c0.2,0.6,0.3,1.2,0.5,1.7
						C160.2,33.5,158.3,33.5,156.4,33.6z"/>
				</g>
				<g>
					<path d="M165.9,73.4c0,0,0.1,0,0.1,0c2,3.3,4.1,6.5,6.2,9.4c4,5.5,7.5,9.8,11.1,13.8c1.6,1.9,3.5,3.8,5.2,5.6
						c0.7,0.8,1.5,1.5,2.2,2.3l-4,3.8c-0.7-0.8-1.4-1.5-2.2-2.3c-1.8-1.9-3.7-3.8-5.4-5.8c-3.7-4.1-7.3-8.6-11.4-14.2
						c-2.8-3.9-5.5-8.2-8.1-12.6C161.7,73.3,163.8,73.3,165.9,73.4z"/>
					<path d="M144,34.8c-0.1,0-0.1,0-0.2,0c-0.6-2-1.2-4-1.8-6.1c-2.5-8.6-5-17.5-8.5-25.8c-2.3-5.5-5-10.7-8.1-15.5
						c-2.7-4.2-5.9-8.4-9.4-12.6c2.1-0.3,4.2-0.6,6.4-1c2.8,3.5,5.4,7.1,7.7,10.6c3.2,5,6.1,10.5,8.5,16.3
						c3.7,8.6,6.3,17.6,8.8,26.4c0.7,2.3,1.3,4.6,2,6.9C147.6,34.3,145.8,34.5,144,34.8z"/>
				</g>
				<g>
					<path d="M150,74.2c0.7-0.1,1.4-0.2,2.1-0.3c3.2,5.7,6.6,11.1,10.1,16c4.2,5.7,8.1,10.5,11.9,14.8c1.8,2.1,3.7,4.1,5.6,6.1
						l0.2,0.2l-4,3.8l-0.2-0.2c-1.9-2-3.9-4.1-5.8-6.3c-3.9-4.3-7.9-9.3-12.2-15.2c-3.7-5.1-7.2-10.7-10.5-16.7
						c-0.3-0.5-0.6-1.1-0.9-1.7C147.5,74.6,148.7,74.4,150,74.2z"/>
					<path d="M131.7,37.3c-0.5-1.7-1-3.3-1.4-5c-2.5-8.8-4.9-17-8.1-24.5c-2.1-4.9-4.4-9.4-7.1-13.7c-2.7-4.2-5.7-8.2-9.3-12.3
						c-0.4-0.5-0.9-0.9-1.3-1.4c-0.7-0.7-1.3-1.5-2-2.2l-2.3-2.3c1.1,0,2.2,0,3.2,0c0.4,0,0.8,0,1.2,0l0.1,0c0.4,0,0.9,0,1.3,0
						c0.6,0,1.1,0,1.7-0.1c0.3,0.3,0.6,0.6,0.9,1c0.4,0.5,0.8,0.9,1.3,1.4c3.8,4.3,7.1,8.7,9.9,13.1c2.9,4.5,5.4,9.3,7.6,14.5
						c3.3,7.8,5.7,16.2,8.3,25.1c0.5,1.7,1,3.5,1.5,5.3C135.3,36.5,133.5,36.9,131.7,37.3z"/>
				</g>
			</g>
			<g>
				<path d="M217.9,90.1c-0.5-0.4-1-0.9-1.4-1.3c-0.7-0.6-1.4-1.3-2.1-1.8l-2.7-2.2l-0.9-0.7c-12.6-9.4-28.4-14.9-44.6-15.5
					c-7.8-0.3-16,0.5-24.2,2.4c-2.7,0.6-5.3,1.4-7.8,2.2c-1.6-1.4-3.2-2.7-4.9-4.1c3.7-1.4,7.6-2.6,11.5-3.5
					c7.4-1.7,14.8-2.6,21.9-2.6c1.3,0,2.5,0,3.8,0.1c17.3,0.6,34.2,6.5,47.7,16.6l1,0.7c0,0,0.1,0.1,0.1,0.1l2.8,2.3
					c0.8,0.6,1.5,1.3,2.3,2c0.5,0.4,0.9,0.8,1.4,1.2L217.9,90.1z"/>
				<path d="M225.1,80l-0.3-0.3c-0.9-0.8-1.7-1.6-2.6-2.3l-3.2-2.6l-1.1-0.8c-14.6-10.9-32.9-17.3-51.5-18
					c-8.9-0.4-18.2,0.5-27.6,2.7c-5.7,1.3-11.1,3.1-16.4,5.4c-1.8-1.2-3.6-2.4-5.4-3.6c6.5-3,13.4-5.4,20.6-7.1
					c8.4-1.9,16.7-2.9,24.8-2.9c1.4,0,2.8,0,4.2,0.1c19.7,0.7,39.1,7.5,54.6,19l1.1,0.8c0,0,0.1,0.1,0.1,0.1l3.2,2.6
					c1,0.8,1.9,1.6,2.8,2.4l0.3,0.3L225.1,80z"/>
				<path d="M232.3,69.8c-0.7-0.6-1.4-1.2-2-1.8l-3.6-2.9l-1.2-0.9c-3.9-3-8.2-5.7-13.3-8.4c-2.1-1.1-4.2-2.1-6.4-3.1l-1.1-0.5
					c-2.3-1-4.5-1.9-6.8-2.6c-5.1-1.8-10.2-3.1-15.2-4c-5.1-0.9-10.3-1.5-15.5-1.7c-19.8-0.7-39.4,3.6-56.9,12.6
					c-1.9-1.1-3.8-2.1-5.8-3.2c0,0,0.1,0,0.1-0.1c17.8-9.8,37.8-14.9,58.2-14.9c1.5,0,3.1,0,4.6,0.1c5.5,0.2,11,0.8,16.3,1.8
					c5.2,1,10.6,2.4,15.9,4.2c2.5,0.8,4.9,1.8,7.2,2.8l0.5,0.2c0,0,0.1,0,0.1,0l0.7,0.3c2.2,1,4.6,2.1,6.8,3.3
					c5.3,2.8,9.9,5.7,14,8.8l1.3,0.9c0,0,0.1,0,0.1,0.1l3.7,3c0.7,0.6,1.5,1.3,2.2,1.9L232.3,69.8z"/>
			</g>
			<g>
				<path d="M-4.2,85.9c4.1-4.8,8-9.4,11.5-14.1c2.8-3.7,5.4-7.4,7.8-11.2c1.4-2.2,2.8-4.7,4.2-7.2c1.4,1.1,2.9,2.2,4.5,3.3
					c-1.3,2.4-2.7,4.7-4,6.9c-2.5,3.9-5.2,7.8-8,11.6C8.1,79.9,4.2,84.5,0,89.4C-2.4,92.2-4.8,95-7.2,98c-3.9,4.8-6.9,8.9-9.6,12.9
					c-3.1,4.8-5.8,9.7-7.9,14.6c-2.1,4.9-3.9,10.2-5.2,15.8c-1.1,4.7-2,9.6-2.7,16l-0.2,1.9c-0.1,1.3-0.2,2.7-0.3,4l-0.2,3.8
					l-5.5-0.3l0.2-3.9c0.1-1.4,0.2-2.8,0.3-4.1l0.2-1.9c0.8-6.7,1.6-11.9,2.8-16.8c1.4-5.9,3.3-11.5,5.5-16.7
					c2.2-5.2,5.1-10.4,8.3-15.5c2.7-4.2,5.9-8.4,9.9-13.4C-9,91.5-6.6,88.6-4.2,85.9z"/>
				<path d="M-1.9,102.3c2.3-2.8,4.7-5.6,7-8.3c4.1-4.8,8.3-9.7,12.1-14.7c3-4,5.8-8.1,8.4-12.1c1.3-2.1,2.6-4.3,3.9-6.7
					c1.5,1,3.1,1.9,4.7,2.8c-1.3,2.4-2.6,4.6-4,6.8c-2.6,4.2-5.6,8.4-8.7,12.5c-3.9,5.2-8.2,10.2-12.3,15c-2.3,2.7-4.7,5.5-6.9,8.2
					c-3.6,4.4-6.4,8.2-8.8,11.8c-2.7,4.2-5,8.5-6.9,12.8c-1.8,4.3-3.4,8.9-4.6,13.8c-1,4.1-1.8,8.6-2.4,14.4c-0.1,0.7-0.1,1.3-0.2,2
					c-0.1,1.2-0.2,2.3-0.3,3.4l-0.3,5.5l-5.5-0.3l0.3-5.5c0.1-1.2,0.2-2.4,0.3-3.6c0.1-0.6,0.1-1.3,0.2-2c0.7-6.1,1.5-10.8,2.5-15.1
					c1.3-5.2,2.9-10.1,4.9-14.7c2-4.6,4.4-9.2,7.3-13.6C-8.5,110.8-5.6,106.9-1.9,102.3z"/>
				<path d="M-7,133.1c3.1-7.4,7.7-14.4,14.7-23c2.1-2.6,4.4-5.2,6.7-8c4.2-4.9,8.5-10,12.6-15.4c3.2-4.3,6.3-8.7,9-13.1
					c1.4-2.2,2.8-4.6,4.2-7.1c1.6,0.9,3.2,1.7,4.9,2.5c-1.4,2.6-2.9,5.1-4.4,7.5c-2.8,4.5-6,9.1-9.3,13.5
					c-4.2,5.6-8.6,10.7-12.8,15.7c-2.3,2.7-4.5,5.3-6.7,7.9c-6.7,8.1-11,14.8-13.9,21.6c-1.6,3.6-2.9,7.6-3.9,11.8
					c-0.9,3.6-1.5,7.5-2.1,12.7c-0.1,0.7-0.1,1.3-0.2,2c-0.1,1-0.2,2-0.2,2.9l-0.1,2.6L-14,167l0.1-2.6c0.1-1,0.2-2.1,0.3-3.1
					c0.1-0.6,0.1-1.3,0.2-2c0.6-5.5,1.3-9.7,2.3-13.5C-10.1,141.3-8.7,137-7,133.1z"/>
			</g>
			<g>
				<path d="M93.3,151.2c-0.6-1.8-1.4-4.1-2.5-6.3c-3.4-7.4-8.1-13.6-13.7-18.5c-0.1-2.4-0.1-4.7,0-7c7.8,5.6,14.3,13.5,18.7,23.1
					c1.2,2.4,2.1,4.9,2.7,6.8L93.3,151.2z"/>
				<path d="M105.9,149.7c-1-3.1-2.2-6.6-3.8-9.9c0,0,0-0.1-0.1-0.1c-0.5-1.2-1.1-2.3-1.8-3.5c-0.3-0.5-0.6-1.1-0.8-1.6
					c-0.3-0.5-0.6-1-0.9-1.6c-0.7-1.2-1.4-2.3-2.1-3.3c0,0-0.1-0.1-0.1-0.1c-1.9-2.9-4.3-5.8-7.3-8.9l-2.1-2.1
					c-0.4-0.4-0.9-0.8-1.4-1.2c-0.3-0.2-0.6-0.5-0.8-0.7l-1.1-0.9c-0.2-0.2-0.5-0.3-0.7-0.5l-2.8-2.1l-2.6-1.7c0.2-2,0.4-4,0.8-5.9
					l0.9,0.5c0,0,0.1,0,0.1,0.1c0.3,0.2,0.6,0.4,0.9,0.6l3,1.9c0.1,0,0.1,0.1,0.2,0.1l2.9,2.1c0.3,0.2,0.6,0.4,0.9,0.7l1.2,1
					c0.3,0.2,0.5,0.4,0.8,0.7c0.5,0.4,1.1,0.9,1.6,1.4l2.2,2.2c3.2,3.3,5.8,6.5,7.9,9.7c0.9,1.2,1.6,2.5,2.3,3.7
					c0.3,0.5,0.6,1,0.9,1.6c0,0.1,0.1,0.1,0.1,0.2c0.3,0.5,0.6,1.1,0.8,1.6c0.7,1.2,1.4,2.5,1.9,3.9c1.7,3.6,3,7.3,4.1,10.5
					L105.9,149.7z"/>
				<path d="M116.8,143.3c-1.2-3.5-2.3-6.3-3.5-8.7c0,0,0-0.1,0-0.1c-0.6-1.5-1.4-2.9-2.2-4.4c-0.3-0.5-0.6-1.1-0.9-1.6
					c-0.3-0.5-0.6-1.1-1-1.6c-0.9-1.5-1.7-2.8-2.6-4.1c0,0,0-0.1-0.1-0.1c-2.3-3.5-5.2-7-8.7-10.6l-2.5-2.5c-0.6-0.5-1.2-1-1.8-1.6
					c-0.3-0.2-0.6-0.5-0.9-0.7l-1.3-1.1c-0.3-0.2-0.6-0.5-0.9-0.7l-3.3-2.4l-3.5-2.2c-0.3-0.2-0.6-0.4-0.9-0.6L80.5,99
					c-0.3-0.1-0.5-0.3-0.8-0.4c0.4-1.8,0.8-3.6,1.4-5.5c0.7,0.4,1.4,0.7,2,1.1l2.4,1.3c0,0,0.1,0,0.1,0.1c0.4,0.2,0.7,0.5,1.1,0.7
					l3.6,2.3c0.1,0,0.1,0.1,0.2,0.1l3.4,2.5c0.4,0.3,0.7,0.5,1.1,0.9l1.4,1.2c0.3,0.2,0.6,0.5,0.8,0.7c0.7,0.6,1.3,1.1,2,1.8
					l2.6,2.6c3.8,3.9,6.8,7.6,9.3,11.4c1.1,1.5,2,3,2.9,4.5c0.3,0.5,0.6,1.1,1,1.6c0,0.1,0.1,0.1,0.1,0.2c0.3,0.5,0.6,1.1,0.9,1.6
					c0.8,1.5,1.7,3.1,2.4,4.7c1.3,2.7,2.4,5.6,3.7,9.3L116.8,143.3z"/>
			</g>
			<g>
				<path d="M-257.9-1l3.3-1.5c0.8-0.3,1.5-0.7,2.3-1.1l3.4-1.8c0.7-0.4,1.4-0.8,2.2-1.3c0.4-0.2,0.7-0.4,1.1-0.6l1.6-1l1.5-1
					c0.3-0.2,0.7-0.5,1-0.7c0.7-0.5,1.4-1,2.1-1.5c4-3,7.8-6.5,11.4-10.4c3.2-3.7,6.2-7.9,8.9-12.5c1.8-3.3,3.4-6.6,4.7-9.9
					c2.3-0.6,4.5-1.1,6.5-1.7c-1.7,4.7-3.8,9.5-6.5,14.3c-2.9,5-6.1,9.5-9.6,13.4c-3.8,4.2-7.9,8-12.2,11.2
					c-0.8,0.6-1.5,1.1-2.3,1.6c-0.3,0.2-0.7,0.5-1,0.7l-1.6,1.1c0,0-0.1,0.1-0.1,0.1l-1.7,1c-0.4,0.2-0.7,0.4-1.1,0.6
					c-0.8,0.5-1.6,0.9-2.5,1.4l-3.4,1.7c-0.9,0.5-1.8,0.9-2.6,1.2l-3.4,1.5c-1.4,0.6-2.8,1.1-4.2,1.6c-0.6,0.2-1.2,0.4-1.7,0.6
					l-1.9-5.2c0.6-0.2,1.2-0.4,1.8-0.7C-260.5,0-259.1-0.5-257.9-1z"/>
				<path d="M-260.8-13.3c1.1-0.5,2.1-0.9,3.1-1.4c3.5-1.7,7.2-3.9,11-6.6c3.3-2.5,6.5-5.4,9.5-8.7c2.7-3.1,5.2-6.6,7.4-10.4
					c0.1-0.1,0.1-0.2,0.2-0.4c1.5-0.3,3-0.6,4.6-0.9c0.8-0.2,1.5-0.3,2.3-0.5c-0.7,1.5-1.5,3-2.3,4.5c-2.5,4.2-5.2,8-8.1,11.4
					c-3.2,3.6-6.7,6.7-10.3,9.4c-4.2,3-8.1,5.3-11.8,7.1c-1.1,0.6-2.3,1.1-3.4,1.6c-0.6,0.2-1.2,0.5-1.7,0.8c0,0-0.1,0-0.1,0
					c-1.1,0.5-2.3,0.9-3.4,1.3c-0.6,0.2-1.2,0.4-1.8,0.7l-1.9-5.1c0.6-0.2,1.2-0.5,1.9-0.7c1.1-0.4,2.1-0.8,3.2-1.2
					C-262-12.8-261.4-13-260.8-13.3z"/>
				<path d="M-263.2-25.8l2.5-1.3c0.5-0.2,0.9-0.5,1.4-0.8c0.3-0.2,0.6-0.4,1-0.6l1.1-0.7l1-0.7c0.3-0.2,0.6-0.4,0.9-0.6
					c0.4-0.3,0.8-0.6,1.2-0.9c2.7-2,5.1-4.3,7.6-6.9c0.1-0.1,0.1-0.2,0.2-0.2c1.3-0.1,2.7-0.3,4.1-0.4c1.1-0.1,2.3-0.3,3.5-0.5
					c-1.2,1.7-2.4,3.3-3.7,4.8c-2.7,3-5.4,5.5-8.4,7.7c-0.5,0.4-1,0.7-1.5,1c-0.3,0.2-0.6,0.4-0.9,0.6l-1.1,0.8
					c-0.1,0-0.1,0.1-0.2,0.1l-1.2,0.7c-0.3,0.2-0.6,0.3-0.9,0.5c-0.5,0.3-1.1,0.6-1.7,1l-2.4,1.2c-0.7,0.4-1.3,0.6-1.9,0.9l-2.6,1.1
					l-2.2-5l2.6-1.1C-264.2-25.3-263.7-25.5-263.2-25.8z"/>
			</g>
			<g>
				<path d="M-147.1-20.5c-1.3-0.2-2.5-0.3-3.8-0.5c-4.7-7-8.9-15.2-13.2-23.7l-0.8-1.5c-5.6-11-11.5-22.4-19.8-33.2
					c-4.5-5.8-9.4-10.8-14.6-14.9c-5.8-4.6-12-8.2-18.3-10.8c-6.2-2.5-12.8-4.3-20.3-5.5l-5.2-0.6c-0.3,0-0.6-0.1-1-0.1
					c-0.5-0.1-1-0.1-1.5-0.1l-4.1-0.2c-1.2-0.1-2.4-0.1-3.6-0.1l-8,0.2l-2.9,0.2l-0.4-5.5l3-0.2c0.1,0,0.1,0,0.2,0l8.2-0.2
					c0,0,0,0,0.1,0c0,0,0,0,0.1,0c1.3,0,2.5,0.1,3.8,0.1l4.1,0.2c0.6,0,1.3,0.1,1.9,0.2c0.3,0,0.6,0.1,0.9,0.1l5.3,0.6
					c0,0,0.1,0,0.1,0c7.9,1.3,15,3.2,21.5,5.9c6.9,2.8,13.5,6.7,19.7,11.6c5.5,4.4,10.7,9.7,15.5,15.8c8.7,11.1,14.7,22.8,20.4,34.1
					l0.8,1.5c5.2,10.1,10.1,19.7,15.9,27.3C-144.6-20.1-145.8-20.3-147.1-20.5z"/>
				<path d="M-166-21.9c-0.3-0.5-0.6-1-0.9-1.5c-2.9-5.1-5.6-10.4-8.2-15.5l-0.6-1.2c-5.2-10.2-11.1-21.8-18.8-31.6
					c-3.9-5-8.2-9.3-12.6-12.9c-4.9-3.9-10-6.9-15.4-9.1c-5.2-2.1-10.9-3.7-17.3-4.7l-4.5-0.5c-0.3,0-0.6-0.1-0.9-0.1
					c-0.4-0.1-0.9-0.1-1.3-0.1l-6.9-0.3l-7.3,0.2l-8.1,0.7l-0.4-5.5l8.2-0.7c0.1,0,0.1,0,0.2,0l7.4-0.2c0,0,0,0,0.1,0
					c0,0,0.1,0,0.1,0l7,0.3c0.6,0,1.1,0.1,1.7,0.2c0.3,0,0.5,0.1,0.8,0.1l4.6,0.5c0,0,0.1,0,0.1,0c6.9,1.1,13,2.8,18.6,5
					c5.8,2.4,11.4,5.7,16.7,9.9c4.8,3.8,9.3,8.4,13.5,13.8c8,10.3,14.1,22.1,19.4,32.5l0.6,1.2c2.6,5.1,5.2,10.3,8.1,15.3
					c0.9,1.5,1.7,3,2.6,4.4C-161.7-21.8-163.9-21.9-166-21.9z"/>
				<path d="M-178-21.4c-0.6,0.1-1.2,0.1-1.8,0.2c-2.2-4-4.2-8-6.2-11.8l-0.7-1.4c-5.7-11.3-11-21.4-17.5-29.6
					c-6.7-8.6-14.2-14.6-22.9-18.1c-4.3-1.7-9-3-14.4-3.9l-3.9-0.4c-0.3,0-0.5-0.1-0.8-0.1c-0.4,0-0.7-0.1-1.1-0.1l-6.1-0.2
					l-6.5,0.2l-7.4,0.6l-0.4-5.5l7.5-0.6c0.1,0,0.1,0,0.2,0l6.7-0.2c0,0,0,0,0.1,0c0,0,0.1,0,0.1,0l6.2,0.2c0.5,0,1,0.1,1.5,0.1
					c0.2,0,0.4,0.1,0.7,0.1l4,0.4c0,0,0.1,0,0.1,0c5.9,1,11,2.3,15.7,4.2c9.5,3.9,17.9,10.6,25.2,19.8c6.8,8.6,12.2,18.9,18.1,30.5
					l0.7,1.4c2.3,4.5,4.7,9.2,7.3,13.8C-175.2-21.6-176.6-21.5-178-21.4z"/>
			</g>
			<g>
				<path d="M-184.2,48.1c4.1-5,7.6-9.7,10.5-14.6c3.2-5.2,5.6-10.3,7.4-15.5c1.9,0,3.8,0.1,5.7,0.2c-2,6.1-4.7,12-8.4,18.1
					c-3.1,5.1-6.7,10.1-11,15.3c-8,9.5-17.1,17.9-27.2,25c-2.8,1.9-5.5,3.7-8.3,5.3l-2.8-4.8c2.6-1.5,5.3-3.2,7.9-5.1
					C-200.6,65.3-191.8,57.2-184.2,48.1z"/>
				<path d="M-193.7,40.1c3.7-4.5,6.8-8.7,9.4-13c1.6-2.7,3-5.3,4.2-8c2-0.4,3.9-0.6,5.9-0.8c0.2,0,0.3,0,0.5,0
					c-1.5,3.9-3.5,7.8-5.8,11.7c-2.7,4.6-6,9-9.9,13.7c-7.3,8.7-15.6,16.3-24.7,22.8c-3.2,2.2-6.4,4.2-9.6,6l-2.6-4.8
					c3-1.6,6.1-3.6,9.1-5.7C-208.6,55.7-200.6,48.4-193.7,40.1z"/>
				<path d="M-203.2,32.2c2.2-2.6,4.1-5.2,5.9-7.7c0.2-0.1,0.4-0.2,0.6-0.3c0.6-0.3,1.3-0.6,1.8-0.8l3.8-1.4
					c0.8-0.3,1.5-0.5,2.3-0.7c-0.4,0.8-0.9,1.5-1.3,2.3c-2.4,4-5.3,8.1-8.8,12.2c-6.5,7.7-14.2,14.8-22.3,20.6
					c-2.8,2-5.7,3.7-8.4,5.3l-2.7-4.8c2.6-1.4,5.3-3.1,7.9-5C-216.7,46.3-209.3,39.5-203.2,32.2z"/>
			</g>
			<g>
				<path d="M131.1,130.6l-0.5-1.4c-0.7-2.1-1.4-4-2.2-5.8c0,0,0-0.1-0.1-0.1c-2.7-6.2-5.9-11.3-9.6-15.8
					c-3.8-4.6-8.5-8.9-13.9-12.9c-10.5-7.8-23-13.7-37.1-20.1L66,73.7c-6.3-2.9-12.8-5.9-19.3-9.2c-8.5-4.3-15.4-8.4-21.5-12.7
					c-6.8-4.8-12.8-10.2-17.8-16c0.1-0.3,0.2-0.6,0.3-0.9c0.6-1.7,1.3-3.4,1.8-5.1c0.1,0.1,0.2,0.2,0.3,0.4c5,6.2,11.3,12,18.5,17.1
					c5.9,4.2,12.5,8.1,20.8,12.3c6.4,3.3,12.9,6.2,19.1,9.1l1.8,0.8c14.4,6.5,27.2,12.6,38.1,20.7c5.7,4.2,10.7,8.9,14.8,13.8
					c4.1,4.8,7.5,10.4,10.4,17c1,2.1,1.8,4.3,2.5,6.4l0.5,1.3L131.1,130.6z"/>
				<path d="M143.3,127.9c-0.3-0.8-0.5-1.6-0.8-2.3c-0.8-2.5-1.7-4.9-2.7-7.1c0,0,0-0.1,0-0.1c-3.1-7.1-7-13.4-11.4-18.7
					c-4.5-5.4-9.9-10.4-16.1-15C99.8,75.6,85.5,69,72.9,63.2L70.2,62c-12.8-5.9-26-11.9-37.8-20.3C25.6,37,19.9,31.6,15.2,25.8
					c-1.1-1.3-2.1-2.7-3-4c0.7-2.4,1.3-4.7,1.9-7.1c1.6,2.7,3.4,5.3,5.4,7.7c4.3,5.4,9.8,10.4,16.1,14.9c11.4,8.1,24.3,14,36.9,19.8
					l2.7,1.2c12.9,5.9,27.5,12.6,40.3,22c6.6,4.8,12.3,10.2,17,15.9c4.8,5.6,8.9,12.3,12.2,19.9c1.2,2.5,2.1,5.1,3,7.7
					c0.3,0.8,0.5,1.5,0.8,2.3L143.3,127.9z"/>
				<path d="M155.3,124.8c-0.3-1-0.7-1.9-1-2.9c-1-3-2-5.8-3.3-8.6c-3.6-8.2-8-15.4-13.2-21.6c-5.1-6.2-11.3-11.9-18.3-17.1
					c-5.9-4.3-12.6-8.5-20.6-12.7c-6.7-3.5-13.5-6.7-20.1-9.7l-2.2-1c-13.5-6.2-26.3-12-37.1-19.7c-5.8-4.1-10.8-8.7-14.8-13.6
					c-3.3-4.1-6.1-8.7-8.5-13.5c0.7-3.7,1.3-6.9,1.7-10.4c3.7,9.8,6.6,15,11,20.4c3.6,4.5,8.2,8.7,13.7,12.6
					C53.1,34.6,65.7,40.3,79,46.4l2.2,1c6.6,3,13.5,6.2,20.3,9.8c8.2,4.3,15.2,8.6,21.3,13.1c7.4,5.4,13.9,11.5,19.2,18
					c5.5,6.5,10.2,14.2,14,22.8c1.4,3,2.5,6.1,3.5,9.1c0.3,1,0.6,1.9,1,2.9L155.3,124.8z"/>
			</g>
			<g>
				<g>
					<path d="M245.2-24.9c0.9-0.6,1.7-1.1,2.6-1.6c0.7-0.4,1.3-0.8,1.9-1.2l1.1-0.6c0.7,0.2,1.5,0.4,2.2,0.6c3.6,0.9,7,1.7,10.2,2.3
						c2.7,0.5,5.1,0.9,7.3,1.1l-0.6,5.5c-2.4-0.3-4.9-0.6-7.7-1.2c-3.3-0.6-6.9-1.4-10.6-2.4c-2.3-0.6-4.7-1.3-7.1-2L245.2-24.9z"/>
					<path d="M205.4-42.6c-0.6,0.7-1.1,1.3-1.6,1.9c-1.1-0.6-2.3-1.2-3.4-1.8c-5.7-3.1-10.4-6-14.3-8.9c1.6-0.9,3.2-1.7,4.7-2.6
						c0.2-0.1,0.4-0.2,0.7-0.4c3.3,2.2,7.1,4.5,11.5,7c1.5,0.8,3,1.6,4.6,2.4L205.4-42.6z"/>
				</g>
				<g>
					<path d="M197.3-32.1c-0.2,0.3-0.4,0.6-0.6,0.9c-0.1,0.2-0.2,0.4-0.4,0.5c-0.6-0.3-1.2-0.7-1.8-1c-5.6-3.1-13-7.3-19.7-12.8
						c-0.2-0.2-0.4-0.4-0.7-0.6c1.8-0.9,3.6-1.9,5.3-2.8c6,4.8,12.6,8.6,17.7,11.4c0.8,0.4,1.5,0.8,2.3,1.2L197.3-32.1z"/>
					<path d="M234.2-14.9c0.3-0.3,0.5-0.7,0.7-0.8L238-19c0.1-0.1,0.1-0.1,0.2-0.2c0.3,0.1,0.6,0.2,0.9,0.3
						c3.6,1.2,7.3,2.2,10.9,3.2c3.9,1,7.5,1.8,11,2.5c3.9,0.7,7.4,1.2,10.6,1.5l-0.4,5.5c-3.4-0.3-7-0.8-11.2-1.5
						c-3.7-0.7-7.4-1.5-11.4-2.6c-3.7-1-7.5-2-11.2-3.2c-1.1-0.4-2.2-0.7-3.3-1.1C234.1-14.8,234.1-14.8,234.2-14.9z"/>
				</g>
				<g>
					<path d="M227.5-5l2-3.5c0-0.1,0.1-0.2,0.3-0.4c1.8,0.6,3.7,1.2,5.5,1.8c3.9,1.2,7.7,2.4,11.5,3.3c4.2,1.1,8.1,2,11.9,2.7
						c3.5,0.6,6.5,1.1,9.5,1.4l-0.6,5.5c-3.1-0.3-6.3-0.8-9.9-1.5c-4-0.7-8-1.6-12.3-2.8c-3.9-1-7.9-2.2-11.8-3.4
						c-2.2-0.7-4.3-1.4-6.5-2.2L227.5-5z"/>
					<path d="M191.6-22.4l-1.2,2.6c0,0,0,0,0,0.1c-0.6-0.3-1.2-0.7-1.8-1c-6.5-3.6-14.2-8.1-21.7-14.2c-1.5-1.3-3.1-2.7-4.7-4.2
						c1.8-0.8,3.5-1.6,5.3-2.5c0.9,0.8,1.9,1.7,2.9,2.5c7.1,5.8,14.2,10,20.8,13.6c0.6,0.3,1.1,0.6,1.7,0.9L191.6-22.4z"/>
				</g>
			</g>
			<g>
				<g>
					<path d="M-96.7,142.5c0.1-0.3,0.2-0.6,0.3-0.8l1.2-2.9c3-7.7,4.9-16,5.6-24.8c0,0,0,0,0,0c1.9-0.1,3.8-0.2,5.5-0.2
						c0,0.2,0,0.4,0,0.6c-0.7,9.3-2.7,18.1-5.9,26.4l-1.2,3c-0.1,0.3-0.2,0.5-0.3,0.8c-0.3,0.8-0.7,1.6-1.1,2.3l-1,1.9l-4.9-2.5
						l1-1.9C-97.2,143.8-97,143.2-96.7,142.5z"/>
					<path d="M-91.6,43.6c0.8,6,1.8,12,2.9,18.4c0.7,4,1.4,8,2,12.1c-1.8,0-3.6,0.1-5.5,0.2c-0.6-3.8-1.3-7.6-1.9-11.4
						c-1.1-6.4-2.2-12.5-3-18.6c-2.3-16.7-2.1-30,0.5-41.9c2.2-10.6,6.9-20.9,13.8-30.8l1.7,0.1c1.2,0.1,2.4,0,3.5,0
						c0.4,0,0.8,0,1.3,0l0.3,0c0,0,0.1,0,0.1,0c-7.8,10.3-12.9,21-15.2,32C-93.6,14.8-93.8,27.5-91.6,43.6z"/>
				</g>
				<g>
					<path d="M-108.7,139.1c0.2-0.4,0.4-0.9,0.7-1.5c0.1-0.3,0.2-0.5,0.3-0.7l1-2.5c2.3-5.8,3.8-12.2,4.5-18.8l2.8-0.5l1.5-0.2
						c0.4-0.1,0.9-0.1,1.3-0.2c-0.7,7.7-2.4,15-5,21.8l-1.1,2.6c-0.1,0.2-0.2,0.4-0.3,0.7c-0.3,0.6-0.5,1.3-0.9,2.1l-1.5,3l-4.9-2.5
						L-108.7,139.1C-108.7,139.1-108.7,139.1-108.7,139.1z"/>
					<path d="M-105.5,22.9c0,6.7,0.5,14,1.6,22.3c0.9,6.4,2,12.9,3.1,19.1c0.6,3.4,1.2,6.9,1.8,10.5c-1.5,0.2-3,0.4-4.6,0.6
						l-0.9,0.1c-0.6-3.4-1.1-6.9-1.7-10.2c-1.1-6.3-2.2-12.8-3.1-19.3c-1.2-8.5-1.7-16-1.7-23c0-8.1,0.8-15.9,2.4-23.1
						c2.1-10.1,6.3-20.2,12.2-29.8c0.4,0.1,0.8,0.2,1.2,0.3l0.3,0.1c1.1,0.2,2.2,0.3,3.3,0.5l1.1,0.2c-6.2,9.6-10.5,19.8-12.7,30
						C-104.7,7.8-105.5,15.2-105.5,22.9z"/>
				</g>
				<g>
					<path d="M-104.8-29.3c-0.7,1.3-1.5,2.5-2,3.8c0,0,0,0.1-0.1,0.1c-3.7,7.1-6.5,15-8.4,23.6c-1.7,7.7-2.6,16-2.6,24.6
						c0,7.3,0.6,15.1,1.8,24c0.9,6.8,2.1,13.5,3.2,19.9c0.6,3.4,1.1,6.7,1.7,10l-1.2,0.2c-1.4,0.3-2.8,0.7-4.2,1
						c-0.5-3.4-1.1-6.8-1.7-10.3c-1.1-6.5-2.3-13.2-3.2-20.1c-1.2-9.1-1.8-17.1-1.8-24.7c0-9,0.9-17.7,2.7-25.8c2-9,5-17.3,8.8-24.8
						c0.7-1.5,1.5-2.9,2.3-4.2c0.2-0.4,0.5-0.8,0.7-1.3c1.7,0.6,3.5,1.1,5.4,1.6l-0.5,0.8C-104.2-30.4-104.5-29.8-104.8-29.3z"/>
					<path d="M-119.9,133.7c0.2-0.3,0.3-0.7,0.5-1.1c0.1-0.2,0.2-0.5,0.3-0.7l0.9-2.1c1.3-3.3,2.3-6.8,3-10.5l0.9-0.4
						c0.9-0.3,1.8-0.6,2.8-1c0.7-0.2,1.4-0.5,2.1-0.7c0,0,0,0,0,0c-0.8,5.1-2,10-3.8,14.6l-0.9,2.2c-0.1,0.2-0.2,0.4-0.2,0.6
						c-0.2,0.5-0.5,1.1-0.8,1.8l-2.1,4l-4.9-2.5l2.1-4.1C-119.9,133.8-119.9,133.8-119.9,133.7z"/>
				</g>
			</g>
			<g>
				<g>
					<path d="M-52.9,149.3c1.7-12.4,4.9-24.6,9.5-36.3c2.2-5.8,4.9-11.4,7.7-16.8c1.5,1.2,3,2.4,4.4,3.5c-2.5,5-4.9,10.1-6.9,15.3
						c-4.5,11.2-7.6,23-9.2,35.1c-0.4,2.2-0.6,4.4-0.8,6.7c-0.1,1.1-0.2,2.3-0.3,3.4l-5.5-0.6c0.1-1.1,0.2-2.2,0.3-3.3
						C-53.5,154-53.3,151.6-52.9,149.3z"/>
				</g>
				<g>
					<path d="M-65.2,147.6c1.8-13.4,5.3-26.6,10.3-39.1c2.7-7,5.9-13.7,9.3-20.2c1.5,1.2,2.9,2.4,4.4,3.5c-3.1,6-6,12.2-8.6,18.7
						c-4.8,12.1-8.2,24.9-10,37.9c-0.4,2.4-0.6,4.8-0.9,7.3c-0.1,1.2-0.2,2.3-0.4,3.5l-5.5-0.6c0.1-1.1,0.2-2.3,0.3-3.4
						C-65.8,152.7-65.6,150.1-65.2,147.6z"/>
				</g>
				<g>
					<path d="M-77.4,145.9c2-14.4,5.7-28.5,11-41.9c3.3-8.4,7.2-16.4,11.2-23.9c1.4,1.3,2.8,2.5,4.2,3.8c-3.7,7-7.3,14.4-10.3,22.2
						c-5.2,13.1-8.8,26.7-10.7,40.7c-0.4,2.6-0.7,5.3-0.9,8l-0.2,1.7l-5.5-0.5l0.2-1.7C-78.1,151.4-77.9,148.6-77.4,145.9z"/>
				</g>
			</g>
			<g>
				<g>
					<path d="M5.6,130.9c0.1-0.1,0.2-0.3,0.3-0.4c1.1,3,1.9,6,2.5,9.1c0.2,0.6,0.3,1.2,0.3,1.8c0,0.2,0.1,0.4,0.1,0.6l0.7,4.4
						c0,0.1,0,0.2,0,0.2l0.2,2.3c0,0.6,0.1,1.2,0.1,1.8c0.1,0.9,0.1,1.9,0.2,2.8c0,0,0,0.1,0,0.1l0,4.6c0,0.3,0,0.6,0,0.8
						c0,0.6,0,1.1,0,1.8l-0.5,7.5l-5.5-0.4l0.5-7.4c0-0.5,0-1,0-1.4c0-0.3,0-0.6,0-0.9l0-4.5c0-0.9-0.1-1.7-0.2-2.6
						c0-0.6-0.1-1.2-0.1-1.8L4,147l-0.6-4.3c0-0.2-0.1-0.5-0.1-0.7c-0.1-0.4-0.1-0.8-0.2-1.1c0-0.1,0-0.2-0.1-0.2
						c-0.2-1-0.4-2-0.7-3C3.3,135.3,4.4,133.1,5.6,130.9z"/>
					<path d="M-73.6,32.2c1.4,5.6,3.4,11.1,6,16c3.4,6.4,8,12.7,13.7,18.8c5.4,5.6,11,10.4,16.3,14.6c2.1,1.7,4.2,3.4,6.2,5
						c3.4,2.7,6.6,5.2,9.7,7.9c0.9,0.7,1.7,1.4,2.5,2.1c-1.2,1.5-2.3,3-3.3,4.4c-0.9-0.8-1.8-1.5-2.7-2.3c-3.1-2.6-6.3-5.1-9.6-7.8
						c-2.1-1.6-4.2-3.3-6.3-5c-5.4-4.4-11.2-9.3-16.8-15.1c-6.1-6.4-11-13.1-14.6-20c-2.9-5.6-5.2-11.8-6.7-18.2
						C-77.3,32.4-75.5,32.3-73.6,32.2z"/>
				</g>
				<g>
					<path d="M14.3,118.4c2.9,6,5,12.3,6.2,18.7c0.2,0.7,0.3,1.4,0.4,2c0,0.2,0.1,0.5,0.1,0.7l0.8,5.1c0,0.1,0,0.1,0,0.2l0.2,2.6
						c0,0.6,0.1,1.2,0.1,1.8c0.1,1.1,0.2,2.3,0.2,3.4c0,0,0,0.1,0,0.1l0,5.2c0,0.3,0,0.6,0,0.9c0,0.6,0,1.3,0,2l-0.3,4.7l-5.5-0.4
						l0.3-4.7c0-0.5,0-1.1,0-1.6c0-0.3,0-0.7,0-1l0-5.1c0-1.1-0.1-2.1-0.2-3.2c0-0.6-0.1-1.2-0.1-1.8l-0.2-2.5l-0.7-5
						c0-0.3-0.1-0.5-0.1-0.8c-0.1-0.5-0.1-1-0.3-1.5c0-0.1,0-0.1,0-0.2c-1-5-2.5-10-4.6-14.8C11.6,121.8,12.9,120.2,14.3,118.4z"/>
					<path d="M-63,30.3l1.4-0.3c0,0,0.1,0,0.1,0c1.1,4.4,2.7,8.5,4.8,12.4c2.8,5.4,6.8,10.8,11.7,16C-38.5,65.1-31,71-23.7,76.7
						c3.3,2.6,6.7,5.4,10.1,8.1c0.8,0.7,1.6,1.3,2.3,2c-1.2,1.4-2.3,2.8-3.5,4.2c-0.8-0.7-1.5-1.3-2.3-2c-3.2-2.7-6.6-5.4-9.9-8
						c-7.4-5.9-15-11.9-21.7-18.9c-5.3-5.6-9.6-11.4-12.6-17.2c-2.3-4.3-4-8.9-5.3-13.7C-65.5,30.9-64.2,30.6-63,30.3z"/>
				</g>
				<g>
					<path d="M22.2,108.9c0.2-0.3,0.4-0.5,0.7-0.8c0.6,1.1,1.2,2.2,1.7,3.2c3.8,7.5,6.5,15.3,8,23.3c0.2,0.8,0.3,1.6,0.4,2.3
						c0,0.3,0.1,0.5,0.1,0.8l0.9,5.8c0,0.1,0,0.1,0,0.2l0.2,2.9c0,0.6,0.1,1.2,0.1,1.8c0.1,1.4,0.2,2.7,0.3,4.1c0,0,0,0.1,0,0.1v5.8
						c0,0.3,0,0.7,0,1c0,0.7,0,1.4,0,2.2l-0.2,3l-5.5-0.4l0.2-2.9c0-0.6,0-1.2,0-1.9c0-0.4,0-0.7,0-1v-5.7c-0.1-1.3-0.1-2.6-0.2-3.8
						c0-0.6-0.1-1.2-0.1-1.8l-0.2-2.8l-0.8-5.7c0-0.3-0.1-0.6-0.1-0.9c-0.1-0.6-0.2-1.2-0.3-1.8c0-0.1,0-0.1,0-0.2
						c-1.5-7.5-4-14.9-7.6-21.9c-0.2-0.4-0.4-0.8-0.6-1.2C20.1,111.4,21.2,110.2,22.2,108.9z"/>
					<path d="M-52.1,27c0.8-0.3,1.6-0.6,2.4-0.9c0.9,3.8,2.2,7.3,4,10.6c2.3,4.4,5.5,8.8,9.7,13.2c5.6,5.9,12.5,11.4,19.8,17.2
						c3.4,2.7,6.9,5.5,10.4,8.4c0.8,0.7,1.6,1.4,2.4,2c-1.1,1.4-2.3,2.8-3.5,4.2c-0.8-0.7-1.6-1.3-2.4-2c-3.4-2.9-6.9-5.6-10.3-8.3
						c-7.5-5.9-14.5-11.6-20.4-17.7c-4.6-4.8-8.1-9.5-10.6-14.4c-1.8-3.5-3.2-7.2-4.3-11.2C-53.9,27.7-53,27.4-52.1,27z"/>
				</g>
			</g>
			<g>
				<path d="M-202.8-52.3c-6.5,1.8-13.2,3.6-20.1,5.1c-8.5,1.9-15.6,3.1-22.4,3.8c-8.1,0.8-16.2,0.9-23.9,0.1
					c-2.6-0.3-5.4-0.7-8.2-1.2l1-5.4c2.7,0.5,5.3,0.9,7.7,1.1c7.4,0.7,15,0.7,22.8-0.1c6.6-0.6,13.5-1.8,21.8-3.7
					c6.5-1.5,12.8-3.2,18.9-4.8l0.5,0.7c0.6,0.8,1.2,1.8,1.8,2.8c0.3,0.4,0.6,0.9,0.8,1.3c0,0,0,0,0,0L-202.8-52.3z"/>
				<path d="M-128.8-52l0.8,0.4c6.1,2.6,12.5,5.2,19.2,7.6c8.4,2.9,15.5,4.5,22.5,5.2l6.2,0.3c2.2,0,4.1-0.1,5.9-0.2
					c4.2-0.3,8.2-1,12.1-2c9.8-2.6,16.2-6.7,23.4-13.4c0.8-0.7,1.5-1.5,2.3-2.2c-0.6,3.3-1.3,6.3-2,9.3c-6.5,5.6-13,9.3-22.3,11.8
					c-4.1,1.1-8.5,1.8-13,2.2c-1.9,0.2-3.8,0.2-6.1,0.2c-0.2,0-0.3,0-0.5,0l-6.3-0.3c0,0-0.1,0-0.1,0c-7.4-0.7-15-2.5-23.8-5.5
					c-6.9-2.4-13.4-5.1-19.6-7.7l-0.8-0.4c-5.6-2.4-12.2-5.1-18.4-7.1c-3.5-1.2-6.6-2-9.5-2.7c-0.7-1.4-1.4-2.7-2.2-4.1
					c-0.4-0.7-0.8-1.4-1.1-2.1c4.2,0.7,8.8,1.9,14.5,3.7C-141.2-57.2-134.5-54.5-128.8-52z"/>
				<path d="M-225.7-59.2c-16.5,3.7-29.9,4.9-42.4,3.6c-3.2-0.3-6.5-0.9-10.1-1.6l1.2-5.4c3.4,0.7,6.5,1.2,9.5,1.5
					c11.8,1.2,24.7,0.1,40.6-3.5c4.3-1,8.6-2.1,12.9-3.2c1.5,1.4,2.9,2.9,4.3,4.6C-215-61.8-220.3-60.4-225.7-59.2z"/>
				<path d="M-34.4-69.7c0,0.1,0,0.3,0,0.4c-8,11.8-17,18.5-29.4,21.8c-6.9,1.8-14.2,2.4-21.7,1.7c-6.4-0.6-13.1-2.2-20.9-4.9
					c-6.4-2.2-12.7-4.8-18.8-7.4c-6.5-2.7-13.3-5.6-20.1-7.8c-7.9-2.6-14-4-19.7-4.5c-0.1,0-0.1,0-0.2,0c-0.3-0.1-0.6-0.1-1-0.1
					c-0.5-0.8-1-1.7-1.5-2.5l-0.1-0.2c-0.4-0.6-0.8-1.2-1.2-1.8c-0.2-0.4-0.5-0.8-0.7-1.1l2.7,0.1c0.8,0,1.7,0.1,2.6,0.2
					c6.2,0.6,12.6,2,20.9,4.7c7,2.3,13.9,5.2,20.5,8c6,2.5,12.2,5.1,18.5,7.3c7.4,2.5,13.7,4,19.7,4.6c6.9,0.6,13.5,0.1,19.8-1.5
					c9.9-2.6,22.2-9.2,31.2-27.1c0.3-0.5,0.5-1.1,0.7-1.6C-33.6-77.4-34-73.4-34.4-69.7z"/>
				<path d="M-266.8-67.9c-3-0.3-6.1-0.8-9.6-1.6l1.2-5.4c3.3,0.7,6.2,1.2,8.9,1.5c10.4,1.1,22.1,0,36.6-3.3c0.7-0.2,1.4-0.3,2-0.5
					c2,0.9,3.9,1.9,5.7,3.1c0.4,0.3,0.9,0.6,1.3,0.9c-2.6,0.7-5.2,1.3-7.8,1.9C-243.5-67.8-255.7-66.8-266.8-67.9z"/>
				<path d="M-79.8-57.9c-0.1,0-0.3,0-0.4,0c-1.4-0.1-2.7-0.1-4.1-0.2c-0.1,0-0.1,0-0.2,0c-5.4-0.5-11.3-1.9-18.1-4.2
					c-5.7-1.9-11.5-4.4-17.6-6.9c-6.8-2.9-13.9-5.8-21.5-8.4c-3-1-6.4-2-10.8-3.1l-5.7-1.2l-6-0.8c-0.8-0.1-1.6-0.2-2.6-0.2
					l-3.2-0.1c-0.4,0-0.7,0-1.1,0c-0.6,0-1.2-0.1-1.8,0c-0.4,0-0.7,0-1.1,0c-0.3,0-0.5,0-0.8,0l-1.9-2.5c-0.7-0.9-1.4-1.8-2.2-2.7
					c0.8-0.1,1.6-0.1,2.4-0.2c0.8-0.1,1.6-0.1,2.4-0.1c0.3,0,0.7,0,1,0c0.9,0,1.6,0,2.3,0c0.3,0,0.6,0,1,0l3.3,0.1
					c1,0,2.1,0.1,3.1,0.3l6,0.8c0.1,0,0.1,0,0.2,0l5.8,1.2c0,0,0.1,0,0.1,0c4.6,1.1,8.2,2.2,11.3,3.2c7.8,2.6,14.9,5.6,21.9,8.5
					c6,2.5,11.7,4.9,17.2,6.8c6.4,2.2,11.8,3.5,16.8,4c1.3,0.1,2.7,0.1,4,0.2c23.3,0.1,40.1-17.2,40.1-49v-7.1v-50h5.5v50v7.1
					C-34.4-77.5-53.1-57.9-79.8-57.9z"/>
			</g>
			<g>
				<path d="M-231.3,34.3c0.9-0.8,1.9-1.7,2.8-2.4l5.2-4.1c0,0,0.1-0.1,0.1-0.1l3.2-2.2c2.1-1.6,4.4-3,6.5-4.3
					c0.8-0.5,1.6-1,2.4-1.5c0,0,0.1,0,0.1-0.1c6.5-3.6,12.9-6.4,19.1-8.3c6.6-2.1,13.4-3.3,20.3-3.6c6.6-0.4,13.4,0,21,1.2
					c7.7,1.2,15.2,3,21.6,4.6c0.4,0.1,0.7,0.2,1.1,0.3c-0.1,1.8-0.2,3.7-0.3,5.6c-0.7-0.2-1.5-0.4-2.2-0.6c-6.2-1.6-13.6-3.4-21-4.5
					c-7.2-1.1-13.7-1.5-19.9-1.1c-6.4,0.3-12.8,1.5-18.9,3.4c-5.8,1.8-11.9,4.5-18,7.9c-0.8,0.5-1.6,1-2.4,1.5
					c-2.1,1.3-4.2,2.5-6.2,4l-3.2,2.2l-5.2,4.1c-0.8,0.6-1.7,1.3-2.5,2.1c-0.4,0.4-0.8,0.7-1.2,1.1l-1.3,1.1l-3.6-4.1l1.3-1.2
					C-232,35-231.7,34.7-231.3,34.3z"/>
				<path d="M-81.5,22.2l1.7,0c0.3,0,0.6,0,1,0l4.1-0.3c0.6,0,1.3-0.1,2.1-0.2c0.4-0.1,0.8-0.1,1.1-0.2c0.4-0.1,0.8-0.1,1.2-0.2
					c0.7-0.1,1.4-0.2,2.1-0.3l5.1-1.2l1.5-0.4c1.2-0.4,2.1-0.6,3-0.9c1-0.3,2-0.7,3-1.1c4.3-1.6,8.3-3.5,11.9-5.7
					c3.9-2.3,7.6-5.2,10.8-8.4c3.9-3.8,8-9.4,11.6-15.6c-0.4,3.2-0.9,6.4-1.5,9.5c-0.2,1.2-0.5,2.4-0.8,3.7
					c-1.7,2.2-3.5,4.3-5.6,6.4c-3.6,3.5-7.5,6.7-11.8,9.2c-3.9,2.3-8.2,4.4-12.8,6.1c-1.1,0.4-2.2,0.8-3.2,1.1c-1,0.3-2,0.6-3.2,1
					l-1.6,0.5c0,0-0.1,0-0.1,0l-5.2,1.2c-0.9,0.2-1.7,0.3-2.5,0.4c-0.4,0.1-0.7,0.1-1.2,0.2c-0.4,0-0.7,0.1-1.1,0.2
					c-0.8,0.1-1.7,0.3-2.5,0.3l-4,0.3c-0.4,0-0.9,0.1-1.3,0.1l-1.7,0c0,0-0.1,0-0.1,0c-2.2,0-4.4-0.1-6.6-0.2
					c-0.1-1.9-0.1-3.8-0.1-5.5C-86,22.1-83.8,22.2-81.5,22.2C-81.5,22.2-81.5,22.2-81.5,22.2z"/>
				<path d="M-239.3,24.9c1-0.9,2-1.8,3.1-2.6l5.7-4.5c0,0,0.1-0.1,0.1-0.1l3.5-2.4c2.4-1.8,5-3.4,7.5-4.9c0.8-0.5,1.6-1,2.4-1.5
					c0,0,0.1,0,0.1-0.1c7.3-4.1,14.5-7.2,21.6-9.4c7.5-2.4,15.4-3.8,23.3-4.2c7.4-0.4,15.1,0,23.5,1.3c7.5,1.1,15,2.9,22.3,4.7
					c-0.3,1.8-0.6,3.6-0.8,5.5c-7.3-1.9-14.8-3.6-22.3-4.8c-8-1.2-15.3-1.6-22.4-1.2c-7.4,0.4-14.8,1.7-21.9,3.9
					c-6.7,2.1-13.6,5.1-20.5,8.9c-0.8,0.5-1.6,1-2.4,1.5c-2.5,1.5-4.8,2.9-7.1,4.6l-3.5,2.4l-5.6,4.4c-0.9,0.7-1.8,1.5-2.8,2.3
					c-0.4,0.4-0.8,0.8-1.3,1.1l-4.1,3.6l-3.6-4.1l4.2-3.6C-240.1,25.6-239.7,25.3-239.3,24.9z"/>
				<path d="M-19.9-38l-0.1,5.1c-3.2,12-9.9,24.2-17.6,31.4C-43.2,3.8-50.1,7.9-58,10.9c-0.9,0.4-1.9,0.7-2.8,1
					c-0.8,0.3-1.7,0.6-2.9,0.9l-1.4,0.4c-0.1,0-0.1,0-0.2,0l-4.2,1c-0.7,0.2-1.4,0.3-2.1,0.4c-0.3,0-0.6,0.1-0.9,0.1
					c0,0-0.1,0-0.1,0c-0.3,0-0.6,0.1-0.9,0.1c-0.7,0.1-1.4,0.2-2.1,0.2l-3.4,0.2c-0.4,0-0.7,0.1-1.1,0.1l-1.4,0
					c-2.1,0-4.3-0.1-6.5-0.3c0.2-1.8,0.4-3.7,0.7-5.5c2,0.1,3.9,0.2,5.7,0.2c0,0,0.1,0,0.1,0l1.4,0c0.2,0,0.5,0,0.7,0
					c0.2,0,0.4,0,0.5,0l2.9-0.2c0.5,0,1-0.1,1.6-0.2c0.3-0.1,0.7-0.1,1-0.2c0.3-0.1,0.7-0.1,1-0.1c0.6-0.1,1.1-0.1,1.6-0.3l4.1-1
					l1.3-0.4c1.1-0.3,1.9-0.6,2.6-0.8c0,0,0.1,0,0.1,0c0.9-0.3,1.7-0.6,2.6-0.9C-52.7,3-46.4-0.7-41.4-5.5
					c11-10.4,17.2-28.3,21.5-45.6v6.5c0,0.8,0,1.6,0,2.4C-19.9-40.8-19.9-39.3-19.9-38z"/>
				<path d="M-147.7-10.1c-8.7-1.3-17.1-1.8-24.9-1.4C-181-11-189.4-9.5-197.5-7c-7.5,2.3-15.3,5.7-23,10c-0.8,0.5-1.5,0.9-2.3,1.4
					c-2.7,1.7-5.5,3.4-8.1,5.3l-3.8,2.7l-6.1,4.8c-1,0.8-2,1.6-3,2.5c-0.4,0.4-0.9,0.8-1.3,1.1l-2.4,2.1l-3.6-4.1l2.5-2.2
					c0.4-0.4,0.9-0.7,1.3-1.1c1.1-0.9,2.1-1.9,3.3-2.8L-238,8c0,0,0.1-0.1,0.1-0.1l3.8-2.7c2.7-2,5.6-3.8,8.5-5.5
					c0.8-0.5,1.6-0.9,2.3-1.4c0,0,0.1,0,0.1-0.1c8-4.5,16.1-8.1,24.1-10.5c8.5-2.7,17.3-4.2,26.3-4.7c8.1-0.4,16.9,0,26,1.4
					c8.1,1.2,15.8,3,23.2,4.9c-0.5,1.8-1,3.5-1.4,5.3C-132.3-7.2-139.9-8.9-147.7-10.1z"/>
				<path d="M-28.1-46.1c-0.1,0.5-0.2,0.9-0.4,1.4c-0.3,1.2-0.6,2.5-1,3.7l-0.7,2.5c0,0,0,0.1,0,0.1l-0.8,2.4
					c-0.4,1.2-0.8,2.3-1.2,3.4c-0.2,0.5-0.4,1-0.6,1.6c-0.2,0.5-0.4,1-0.6,1.5c-0.1,0.3-0.2,0.6-0.4,0.8c-0.4,0.9-0.8,1.7-1.1,2.4
					c-3,6.3-6.8,11.7-11.2,15.8c-4.4,4.2-9.8,7.4-16.3,9.8c-0.8,0.3-1.6,0.6-2.3,0.8l-0.1,0c-0.9,0.3-1.8,0.6-2.5,0.8l-1.2,0.4
					c-0.1,0-0.1,0-0.2,0l-3.2,0.7c-0.6,0.1-1.2,0.2-1.7,0.3c-0.2,0-0.5,0.1-0.7,0.1c0,0-0.1,0-0.1,0c-0.2,0-0.5,0.1-0.7,0.1
					c-0.5,0.1-1.1,0.2-1.7,0.2l-2.7,0.2c-0.3,0-0.6,0-1,0l-1.2,0c-1.4,0-2.9,0-4.4-0.1c0.5-1.9,1-3.7,1.6-5.4c1,0,1.9,0.1,2.9,0.1
					l1.1,0c0.2,0,0.4,0,0.5,0c0.2,0,0.3,0,0.5,0l2.4-0.1c0.3,0,0.7-0.1,1.1-0.1c0.3,0,0.6-0.1,0.9-0.1c0.3,0,0.6-0.1,0.9-0.1
					c0.4,0,0.8-0.1,1.1-0.2l3.2-0.7l1.1-0.3c0.6-0.2,1.4-0.4,2.3-0.7l0.1,0c0.7-0.2,1.4-0.5,2.1-0.7c5.9-2.2,10.6-5,14.5-8.7
					c3.9-3.7,7.2-8.4,10-14.3c0.3-0.6,0.6-1.2,0.9-2c0.1-0.3,0.3-0.6,0.4-0.9c0.2-0.4,0.4-0.9,0.5-1.3c0.2-0.5,0.4-1.1,0.6-1.6
					c0.4-1,0.8-2,1.1-3.1l0.8-2.4l0.7-2.5c0.3-1.1,0.6-2.3,0.9-3.5c0.1-0.5,0.2-1,0.4-1.4c1.5-6.3,2.7-13.1,3.7-20.9
					c1.5-12.8,2.3-26.8,2.3-44.1v-7v-50h5.5v50v7c0,17.5-0.8,31.7-2.3,44.8C-25.3-59.6-26.5-52.6-28.1-46.1z"/>
			</g>
			<g>
				<path d="M-9.8-26.7c0,0,0,0.1,0,0.1l-0.4,7.1c-0.5,6-1.2,12.3-2.5,18.6l-0.4,2.3c-0.1,0.5-0.2,1-0.3,1.5l-0.2,0.8
					c-0.1,0.5-0.3,1.1-0.4,1.6c-0.2,1-0.4,1.9-0.7,2.9l-1.2,4.4c-0.3,1-0.6,2-0.9,3c-0.2,0.5-0.3,1-0.5,1.6
					c-2.1,6.2-4.3,12-6.9,17.5c-2.1,4.5-4.3,8.9-6.7,13.3c-1.5-1.5-2.8-2.9-4-4.2c2-3.8,3.9-7.6,5.6-11.4c2.5-5.4,4.7-10.9,6.6-16.9
					c0.2-0.6,0.3-1.1,0.5-1.6c0.3-0.9,0.6-1.8,0.8-2.7l1.2-4.4c0.2-0.9,0.4-1.8,0.7-2.7c0.1-0.6,0.3-1.1,0.4-1.7l0.2-0.8
					c0.1-0.4,0.2-0.9,0.3-1.3l0.4-2.3c1.2-6.1,1.9-12.3,2.4-18l0.4-6.9l0.1-7c0-1,0-2,0-3.1c0-0.6,0-1.2,0-1.8v-3.7v-127h5.5v127
					v3.7c0,0.6,0,1.2,0,1.8c0,1.1,0,2.2,0,3.2L-9.8-26.7z"/>
				<path d="M-0.5,1.4L-1,3.9C-1.1,4.5-1.2,5-1.4,5.6l-0.2,0.9C-1.7,7-1.8,7.6-2,8.1c-0.2,1.1-0.5,2.1-0.8,3.3l-1.3,4.8
					c-0.3,1.1-0.6,2.2-1,3.2c-0.2,0.5-0.4,1.1-0.5,1.7C-7.8,27.7-10.3,34-13,39.9c-2.6,5.6-5.5,11.2-8.4,16.6
					c-1.1-0.9-2.1-1.8-3.1-2.7c-0.4-0.3-0.8-0.7-1.1-1c2.7-5,5.4-10.1,7.7-15.3c2.7-5.7,5.1-11.9,7.1-18.2c0.2-0.6,0.4-1.2,0.6-1.7
					c0.3-1,0.6-2,0.9-3l1.3-4.8c0.3-1,0.5-2,0.7-3.1c0.1-0.6,0.3-1.2,0.4-1.7l0.2-0.9c0.1-0.5,0.2-1,0.3-1.5l0.5-2.5
					C-4.6-6.3-3.8-13.2-3.3-19c0.4-6.1,0.6-12.5,0.6-19.7v-3.7v-127h5.5v127v3.7c0,7.3-0.2,13.9-0.6,20.2C1.6-12.6,0.9-5.5-0.5,1.4z
					"/>
				<path d="M15.1-33.7L15-25.8c0,0,0,0.1,0,0.1l-0.5,8c-0.6,6.4-1.3,13.9-2.9,21.4l-0.5,2.7c-0.1,0.6-0.3,1.2-0.4,1.8l-0.2,0.9
					c-0.1,0.6-0.3,1.1-0.4,1.7c-0.3,1.2-0.5,2.4-0.9,3.6l-1.4,5.2c-0.3,1.2-0.7,2.4-1.1,3.5c-0.2,0.6-0.4,1.2-0.6,1.8
					c-2.3,7-5,13.8-7.9,20.2c-3.1,6.7-6.4,13.1-9.9,19.3c-0.6-0.5-1.2-0.9-1.7-1.4c-0.9-0.7-1.8-1.4-2.6-2.1
					c3.2-5.9,6.4-11.9,9.3-18.2c2.8-6.1,5.4-12.7,7.7-19.5c0.2-0.6,0.4-1.2,0.6-1.8c0.4-1.1,0.7-2.2,1-3.2l1.4-5.1
					c0.3-1.1,0.6-2.3,0.8-3.4C4.9,9.1,5,8.5,5.1,7.9L5.4,7c0.1-0.6,0.3-1.1,0.4-1.6l0.5-2.7C7.7-4.6,8.5-11.9,9-18l0.5-7.9l0.2-7.9
					c0-1.1,0-2.2,0-3.2c0-0.6,0-1.2,0-1.8v-3.7v-127h5.5v127v3.7c0,0.6,0,1.2,0,1.8C15.2-35.9,15.2-34.8,15.1-33.7z"/>
			</g>
			<g>
				<path d="M70.2,93.7c0.9-3.8,2-7.5,3.2-11.2c1.7,0.8,3.4,1.6,5,2.4c-1,3.4-2,6.8-2.8,10.1c-1.6,6.4-2.5,12.3-3,18
					c-0.9,11.5-0.1,23.9,2.6,36.9c0.4,2.3,1,4.6,1.5,6.8l-5.4,1.3c-0.5-2.2-1.1-4.6-1.5-7c-2.7-13.5-3.6-26.5-2.6-38.4
					C67.6,106.5,68.6,100.3,70.2,93.7z"/>
				<path d="M58.2,90.7c1.1-4.6,2.5-9.1,3.9-13.5c1.2,0.5,2.3,1.1,3.5,1.6l0.2,0.1c0.5,0.2,0.9,0.4,1.4,0.6
					c-1.3,4.1-2.5,8.3-3.5,12.5c-1.7,7-2.8,13.5-3.3,19.9c-1,12.6-0.1,26.2,2.7,40.4c0.5,2.8,1.2,5.6,1.8,8.3l0.6,2.3l-5.4,1.3
					l-0.5-2.3c-0.7-2.8-1.3-5.6-1.9-8.5c-3-14.7-3.9-28.7-2.8-41.9C55.3,104.8,56.4,98,58.2,90.7z"/>
				<path d="M51.7-12c1.6,1.7,3.2,3.4,4.8,5.1c2.5,2.7,4.8,5.4,6.9,8.1c2.4,3.2,4.3,6.2,5.8,9c3.3,6.1,5.5,13,6.5,20.5
					c0.4,2.9,0.6,6,0.5,9.1c-1.9-0.9-3.8-1.7-5.5-2.6c-0.1-2-0.2-3.9-0.5-5.8c-1-6.8-2.9-13.1-5.9-18.7c-1.4-2.6-3.2-5.3-5.4-8.3
					c-2-2.5-4.2-5.1-6.6-7.7c-1.6-1.7-3.2-3.4-4.8-5.1c-3.1-3.3-6.4-6.6-9.3-10.2c-9-10.8-15-22.4-18.4-33.6v-15.9
					c5,18.3,11.5,32.9,22.6,45.9C45.5-18.5,48.6-15.2,51.7-12z"/>
				<path d="M46.2,87.8c1.3-5.5,2.9-10.8,4.6-15.9c1.7,0.8,3.3,1.6,5,2.4c-1.5,4.8-3,9.7-4.2,14.8c-1.8,7.6-3.1,14.9-3.6,21.9
					c-1.1,13.8-0.2,28.5,2.9,43.8c0.5,2.7,1.1,5.4,1.8,8.1l-5.3,1.3c-0.7-2.8-1.3-5.5-1.8-8.3c-3.2-15.8-4.2-31-3-45.3
					C43,103.3,44.3,95.6,46.2,87.8z"/>
				<path d="M47.7,1.6C50,4,52,6.3,53.9,8.8c2,2.7,3.5,5,4.8,7.4c1.2,2.4,2.4,5,3.2,7.8c0.8,2.3,1.4,5,1.9,8.5
					c0.1,0.5,0.1,0.9,0.2,1.4c-2.1-1-4.1-2.1-6-3.1c-0.4-2-0.8-3.6-1.3-5.1c0,0,0-0.1,0-0.1c-0.7-2.4-1.8-4.8-2.8-6.8
					c-1.1-2-2.5-4.1-4.3-6.5c-1.8-2.3-3.7-4.5-5.8-6.8c-1.5-1.6-3-3.2-4.6-4.8c-10.6-11.1-17-20.3-19.4-26.7c0.1-2.4,0.1-8,0.2-10.8
					C25.3-24.3,30-17,43.1-3.3C44.7-1.6,46.3,0,47.7,1.6z"/>
				<path d="M88.7,42.1c-0.1,1.1-0.1,2.3-0.2,3.4c-1.8-0.8-3.6-1.7-5.3-2.5c0-0.4,0.1-0.8,0.1-1.1c0.1-4.1-0.1-8.2-0.6-12
					c-0.7-4.5-1.5-8.2-2.6-11.7c-1-3.4-2.5-7-4.6-11.1c-1.7-3.2-3.8-6.5-6.5-10c-2.2-2.8-4.7-5.7-7.3-8.5c-1.7-1.8-3.4-3.6-5-5.3
					c-3.1-3.3-6.1-6.4-8.8-9.6c-4.5-5.3-8.1-10.3-10.8-15.3c-2.9-5.2-5.4-11-7.5-17.2c-1.8-5.4-3.2-11.5-4.5-18.7c-2-12-3-25-3-39.5
					v-2.3v-50h5.5v50v2.3c0,14.2,0.9,26.9,2.9,38.6c1.2,7,2.7,12.8,4.3,18c1.9,5.9,4.3,11.3,7,16.2c2.6,4.7,5.9,9.4,10.2,14.4
					c2.6,3.1,5.5,6.1,8.6,9.3c1.6,1.7,3.3,3.5,5.1,5.3c2.8,3,5.3,6,7.6,8.9c2.8,3.8,5.1,7.3,7,10.8c2.3,4.5,4,8.4,5,12.1
					c1.2,3.7,2.1,7.7,2.8,12.6C88.6,33.2,88.8,37.6,88.7,42.1z"/>
			</g>
			<g>
				<path d="M86.9-35.2c1.4,0.2,2.9,0.3,4.2,0.4c0.7,0,1.3,0.1,2,0.1c1.3,0.1,2.5,0.2,3.7,0.2l2.9,0.1c1,0,1.8,0,2.8,0
					c0.6,0,1.2,0,1.8-0.1c1.3,0,2.7-0.1,4-0.2c7.1-0.5,14.7-1.7,22.5-3.8c6.8-1.8,13.6-4.2,21-7.4c11.8-5,22.8-11,33.4-16.8
					c1.6-0.9,3.2-1.7,4.8-2.6c12.3-6.7,24.4-13,36.5-17.4c13-4.8,25.6-6.9,37.5-6.4c0.6,0,1.2,0.1,1.8,0.1c1,0.1,2,0.1,3.1,0.2
					l3,0.4l-0.7,5.5l-2.9-0.4c-0.9-0.1-1.8-0.2-2.8-0.2c-0.6,0-1.3-0.1-1.8-0.1c-11-0.5-22.9,1.6-35.2,6.1
					c-11.8,4.3-23.6,10.5-35.8,17.1c-1.6,0.9-3.2,1.7-4.8,2.6C177.1-52,166-45.9,154-40.8c-7.6,3.3-14.8,5.8-21.8,7.7
					c-8.1,2.2-16.1,3.5-23.6,4c-1.4,0.1-2.8,0.1-4.2,0.2c-0.6,0-1.2,0-1.8,0.1c-1.1,0-2,0-3.1,0l-2.9-0.1c-1.3,0-2.7-0.1-4-0.2
					c-0.6,0-1.3-0.1-2-0.1c-1.5-0.1-2.9-0.3-4.4-0.4l-1.5-0.2c-16.9-2.2-28.9-7.8-36.7-13.3l0,0l-0.6-1c-0.8-1.3-1.5-2.5-2.1-3.7
					l-0.2-0.3c-0.6-1-1.1-2.1-1.7-3.3c-0.3-0.5-0.5-1.1-0.8-1.6c-0.2-0.4-0.3-0.8-0.5-1.2c10.1,9.1,23.2,16.4,43.2,19L86.9-35.2z"/>
				<path d="M87.1-47.6c6.7,0.8,13.5,1.1,20.4,0.7c12.3-0.8,25.2-4.2,39.5-10.3c11.2-4.8,22.1-10.7,32.7-16.5l4.4-2.4
					c13.2-7.2,25.2-13.5,38.2-18.2c7.1-2.6,14-4.5,20.6-5.6c7.2-1.3,14.4-1.8,21.5-1.5c0.6,0,1.3,0.1,1.9,0.1
					c1.2,0.1,2.4,0.1,3.7,0.3l5.5,0.7l-0.7,5.5l-5.4-0.7c-1.1-0.1-2.2-0.2-3.4-0.3c-0.7,0-1.3-0.1-1.9-0.1
					c-6.7-0.3-13.5,0.2-20.3,1.4c-6.3,1.1-12.9,2.9-19.7,5.4c-12.6,4.6-24.4,10.8-37.4,17.9l-4.4,2.4c-10.7,5.8-21.7,11.9-33.2,16.7
					c-14.9,6.4-28.4,9.9-41.3,10.7c-7.2,0.4-14.4,0.2-21.4-0.7c-24.1-3.2-38.8-13.1-48.9-26.4c-0.9-3.6-1.7-7.3-2.4-11.3
					c-0.1-0.7-0.2-1.4-0.3-2.1c0,0,0-0.1,0-0.1C44.6-64.1,60.8-51.1,87.1-47.6z"/>
				<path d="M270.6-107.9c-1.3-0.1-2.7-0.2-4.1-0.3c-0.7,0-1.4-0.1-2-0.1c-7.6-0.3-15.3,0.2-23,1.6c-7,1.2-14.3,3.2-21.8,6
					c-14.4,5.3-27.5,12.4-39.1,18.6l-4,2.2c-11.2,6.1-21.7,11.8-32.5,16.5c-13.6,5.8-25.7,9-37.2,9.7c-0.9,0.1-1.9,0.1-2.8,0.1
					c-0.6,0-1.2,0-1.7,0.1c-0.9,0-1.8,0-2.5,0l-2.3,0c-1,0-2.1-0.1-3.1-0.2c-0.6,0-1.1-0.1-1.8-0.1c-1-0.1-2-0.2-3-0.3
					c-0.5-0.1-1.1-0.1-1.7-0.2c-6.4-0.9-12.4-2.4-18-4.5c-22.9-9.2-35.5-28.6-35.5-52.2v-8.3v-50h5.5v50v8.3
					C39.9-90,50.4-72.7,72-64c5.1,2,10.7,3.4,16.6,4.2c0.6,0.1,1.1,0.1,1.7,0.2c1,0.1,1.9,0.2,2.8,0.3c0.6,0,1.2,0.1,1.8,0.1
					c1,0.1,1.9,0.1,2.8,0.1l2.4,0c0.7,0,1.4,0,2.1,0c0.6,0,1.2,0,1.9-0.1c0.9,0,1.8,0,2.6-0.1c10.9-0.7,22.4-3.8,35.4-9.3
					c10.6-4.5,21-10.2,32.1-16.2l4-2.2c11.7-6.4,25-13.5,39.8-18.9c7.8-2.8,15.4-4.9,22.7-6.2c8.1-1.4,16.2-2,24.2-1.7
					c0.7,0,1.3,0.1,2,0.1c1.4,0.1,2.9,0.2,4.4,0.3l3.8,0.5l-0.7,5.5L270.6-107.9z"/>
			</g>
		</g>
	</g>
</symbol>
<symbol  id="_x7E__Tree_White" viewBox="-278.1 -169.4 556.2 338.9">
	<g>
		<g>
			<g>
				<path fill="#FFFFFF" d="M-126.6,59.4l1.7-0.6c0,0,0.1,0,0.1,0c0.3,1.8,0.6,3.7,0.9,5.5l-1.1,0.3c-0.5,0.2-1,0.3-1.4,0.5
					c-0.6,0.2-1.3,0.4-1.9,0.6c-0.7,0.3-1.4,0.6-2.1,0.8c-1.5,0.6-3,1.1-4.3,1.8c0,0-0.1,0-0.1,0l-1.7,0.8c-0.5,0.2-1,0.4-1.4,0.7
					l-3.1,1.7c-0.6,0.3-1.1,0.7-1.8,1.1c-0.4,0.3-0.8,0.5-1.2,0.7l-0.6,0.4c-0.3,0.2-0.6,0.3-0.8,0.5l-2.9,2.1
					c-0.5,0.3-0.9,0.6-1.2,1l-2.7,2.3c-0.3,0.3-0.7,0.7-1,1c-1.4,1.3-2.7,2.5-3.9,3.9c-3.4,3.7-6.2,7.4-8.5,11.1c0,0,0,0.1-0.1,0.1
					c-0.5,0.7-0.9,1.5-1.4,2.4c-0.3,0.5-0.6,1.1-0.9,1.6c-0.4,0.8-0.8,1.6-1.2,2.4l-0.1,0.1l-4.9-2.4l0.1-0.1
					c0.4-0.9,0.9-1.8,1.3-2.6c0,0,0-0.1,0.1-0.1c0.3-0.5,0.6-1,0.9-1.5c0.5-0.9,1-1.8,1.6-2.7c2.4-4,5.4-7.9,9-11.9
					c1.3-1.5,2.8-2.9,4.2-4.2l1.1-1c0,0,0.1-0.1,0.1-0.1l2.7-2.3c0.5-0.4,1-0.8,1.6-1.3l2.9-2.1c0,0,0.1,0,0.1-0.1
					c0.3-0.2,0.7-0.4,1-0.7l0.6-0.4c0.4-0.2,0.7-0.5,1.1-0.7c0.6-0.4,1.3-0.9,2.1-1.3l3.1-1.7c0.6-0.3,1.2-0.6,1.9-0.9l1.6-0.7
					c1.6-0.8,3.2-1.4,4.8-2c0.7-0.3,1.4-0.5,2.1-0.8c0.1,0,0.1,0,0.2-0.1c0.7-0.2,1.4-0.5,2.1-0.7
					C-127.5,59.7-127.1,59.5-126.6,59.4z"/>
				<path fill="#FFFFFF" d="M-128,46.8l1.4-0.4c0.1,0.6,0.1,1.1,0.2,1.7c0.2,1.3,0.4,2.5,0.5,3.8l-0.8,0.2l-1.9,0.6
					c-0.5,0.2-1,0.3-1.4,0.5c-0.8,0.3-1.6,0.5-2.5,0.8c-0.7,0.3-1.5,0.6-2.2,0.9c-1.9,0.7-3.6,1.4-5.4,2.3l-2,0.9
					c-0.6,0.3-1.2,0.5-1.7,0.8l-3.7,2c-0.7,0.4-1.4,0.9-2.2,1.4c-0.4,0.3-0.9,0.6-1.3,0.8l-0.7,0.4c-0.4,0.2-0.7,0.5-1,0.6l-3.4,2.5
					c-0.6,0.4-1.1,0.8-1.5,1.2l-3.2,2.7l-0.9,0.9c-1.7,1.6-3.4,3.2-4.9,4.9c-3.9,4.3-7.3,8.6-9.9,13.1c-0.6,0.9-1.1,1.9-1.7,2.9
					c-0.3,0.6-0.6,1.1-1,1.7c-0.5,1-1,2-1.5,3c-0.3,0.6-0.6,1.2-0.9,1.8l-4.9-2.5c0.3-0.6,0.6-1.1,0.9-1.7c0.5-1.1,1.1-2.2,1.6-3.3
					c0,0,0-0.1,0-0.1c0.3-0.5,0.6-1.1,0.9-1.6c0.6-1.1,1.2-2.2,1.8-3.1c2.8-4.6,6.4-9.3,10.5-13.8c1.7-1.9,3.5-3.6,5.2-5.2l1-0.9
					c0,0,0.1-0.1,0.1-0.1l3.2-2.7c0.5-0.5,1.1-0.9,1.8-1.5l3.5-2.6c0.4-0.3,0.8-0.5,1.2-0.8l0.6-0.4c0.4-0.3,0.8-0.5,1.2-0.8
					c0.8-0.5,1.6-1,2.5-1.5l3.6-2c0.6-0.4,1.3-0.7,2.1-1.1l1.8-0.9c1.9-1,3.9-1.7,5.8-2.5c0.7-0.3,1.5-0.6,2.2-0.9
					c0,0,0.1,0,0.1-0.1c0.9-0.3,1.8-0.6,2.7-0.9c0.5-0.1,0.9-0.3,1.4-0.4l2-0.6C-128.1,46.9-128.1,46.9-128,46.8z"/>
				<path fill="#FFFFFF" d="M-127.3,39.6l-2.6,0.6l-3.6,1.1c-1,0.3-2,0.6-3,1c-0.7,0.3-1.5,0.6-2.2,0.9c-2.2,0.9-4.3,1.7-6.4,2.7
					l-2.2,1c-0.7,0.3-1.4,0.6-2,1l-4.2,2.3c-0.9,0.5-1.7,1-2.6,1.6c-0.5,0.3-0.9,0.6-1.3,0.9l-0.7,0.5c-0.4,0.3-0.9,0.5-1.2,0.8
					l-3.9,2.9c-0.7,0.5-1.2,0.9-1.7,1.4l-3.6,3.1l-0.7,0.6c-2.1,2-4.1,3.9-6,6c-4.5,4.9-8.3,9.9-11.4,14.9c-0.7,1.1-1.4,2.2-2,3.5
					c-0.3,0.6-0.7,1.2-1,1.8c-0.6,1.1-1.2,2.3-1.8,3.5l-4.9-2.4c0.6-1.3,1.2-2.5,1.9-3.8c0.3-0.6,0.7-1.2,1-1.8
					c0.7-1.2,1.4-2.5,2.2-3.7c3.2-5.3,7.3-10.6,11.9-15.7c2-2.3,4.2-4.3,6.3-6.3l0.7-0.7c0,0,0.1-0.1,0.1-0.1l3.7-3.1
					c0.6-0.5,1.3-1,2.1-1.6l4-2.9c0.5-0.3,0.9-0.6,1.4-0.9l0.7-0.5c0.4-0.3,0.9-0.6,1.3-0.8c0.9-0.6,1.9-1.2,2.9-1.8l4.2-2.3
					c0.7-0.4,1.5-0.8,2.4-1.2l2.1-1c2.3-1.1,4.6-2,6.9-2.9c0.7-0.3,1.5-0.6,2.2-0.9c0,0,0.1,0,0.1,0c1.1-0.4,2.2-0.7,3.2-1l3.7-1.1
					c0.1,0,0.1,0,0.2,0l3.5-0.9C-127.7,35.9-127.5,37.7-127.3,39.6z"/>
			</g>
			<g>
				<path fill="#FFFFFF" d="M-72,105l-0.1,0.2c-0.3,0.8-0.6,1.5-0.8,2.3c-0.2,0.7-0.5,1.3-0.7,2c-2.2-0.2-4.2-0.3-6.3-0.3
					c-7-0.2-13.1,0.1-18.7,1c-6.1,0.9-12,2.4-17.5,4.4c-5.3,2-10.6,4.8-15.6,8.3l-2.9,2c-0.2,0.1-0.3,0.2-0.5,0.4l-2.8,2.3l-3.5-4.3
					l2.7-2.2c0.2-0.2,0.4-0.4,0.7-0.6c0,0,0.1,0,0.1-0.1l2.9-2.1c5.4-3.7,11.1-6.7,16.8-8.9c5.8-2.2,12.1-3.8,18.6-4.7
					c4.7-0.7,9.8-1.1,15.5-1.1c1.3,0,2.7,0,4.1,0.1c2.6,0,5.1,0.2,7.6,0.4c0.2,0,0.4,0,0.6,0C-71.7,104.4-71.9,104.7-72,105z"/>
				<path fill="#FFFFFF" d="M-68.9,97.4c-0.1,0-0.1,0-0.2,0c-0.8-0.1-1.5-0.1-2.3-0.2c-2.7-0.2-5.4-0.4-8.2-0.5
					c-7.7-0.2-14.5,0.1-20.8,1.1c-7,1-13.8,2.8-20.1,5.1c-6.2,2.4-12.4,5.6-18.2,9.6l-3.3,2.3c-0.2,0.2-0.4,0.3-0.6,0.5l-4.6,3.8
					l-3.5-4.3l4.6-3.8c0.3-0.2,0.5-0.4,0.8-0.6c0,0,0.1,0,0.1-0.1l3.4-2.4c6.2-4.3,12.8-7.7,19.4-10.3c6.6-2.5,13.8-4.3,21.2-5.4
					c5.3-0.8,11-1.2,17.2-1.2c1.5,0,3,0,4.5,0.1c2.9,0,5.7,0.3,8.5,0.5c0.8,0.1,1.5,0.1,2.3,0.2c0,0,0.1,0,0.1,0
					c0.6,0.1,1.3,0.2,1.9,0.2C-67.4,93.9-68.1,95.6-68.9,97.4z"/>
				<path fill="#FFFFFF" d="M-63.5,85.6c-0.7-0.1-1.4-0.2-2.1-0.3l-2.3-0.3l-2.2-0.2c-3-0.2-6-0.5-9.1-0.5c-8.5-0.2-16,0.2-23,1.2
					c-7.9,1.2-15.6,3.1-22.7,5.8c-7.2,2.7-14.2,6.4-20.8,11l-3.7,2.6c-0.2,0.2-0.5,0.4-0.7,0.6l-2.7,2.2l-3.5-4.3l2.7-2.2
					c0.3-0.2,0.6-0.5,0.9-0.8l3.9-2.7c7-4.8,14.5-8.7,22-11.6c7.5-2.8,15.5-4.9,23.8-6.1c5.9-0.9,12.2-1.4,19-1.4
					c1.6,0,3.2,0,4.9,0.1c3.2,0,6.4,0.3,9.4,0.5l2.3,0.2c0,0,0.1,0,0.1,0l2.3,0.3c1.4,0.2,2.7,0.3,4.1,0.5
					C-61.8,82.2-62.6,83.9-63.5,85.6z"/>
			</g>
			<g>
				<path fill="#FFFFFF" d="M271-40.3l-6.6,1.5l-4.2,1.3c-0.3,0.1-0.6,0.2-0.9,0.3c-0.4,0.1-0.8,0.2-1.2,0.4l-4.1,1.7
					c-0.2,0.1-0.5,0.2-0.7,0.3c-0.4,0.2-0.8,0.3-1.1,0.5c0,0-0.1,0-0.1,0.1l-4,2c0,0-0.1,0-0.1,0.1c-0.4,0.2-0.9,0.5-1.4,0.8
					l-3.9,2.4l-4.2,3.1l-3.9,3.5l-2.9,3.1c0,0-0.1,0.1-0.1,0.1c-0.4,0.3-0.7,0.8-1.1,1.3l-1.4,1.7c-0.2,0.2-0.4,0.5-0.6,0.7
					c-0.2,0.3-0.5,0.5-0.6,0.8c0,0,0,0.1-0.1,0.1l-1.2,1.8c-3.1,4.6-5.5,9.6-7,14.7l-0.9,3.4c-0.3-0.1-0.5-0.2-0.8-0.3
					c-1.4-0.5-2.9-0.9-4.4-1.4l0.8-3.2c0,0,0-0.1,0-0.1c1.7-5.7,4.4-11.2,7.7-16.2l1.2-1.8c0.3-0.5,0.7-1,1-1.4
					c0.1-0.2,0.3-0.3,0.5-0.6l1.4-1.8c0.4-0.6,0.9-1.2,1.6-1.8l3-3.1c0.1-0.1,0.1-0.1,0.2-0.2l4.1-3.6c0.1-0.1,0.1-0.1,0.2-0.2
					l4.4-3.3c0.1-0.1,0.1-0.1,0.2-0.1l3.9-2.4c0.6-0.4,1.2-0.8,2-1.1l3.9-2c0.6-0.3,1.2-0.6,1.7-0.8c0.2-0.1,0.4-0.1,0.6-0.2
					l4.2-1.7c0,0,0.1,0,0.1,0c0.5-0.2,1-0.3,1.5-0.5c0.3-0.1,0.5-0.2,0.8-0.2l4.3-1.4c0.1,0,0.1,0,0.2-0.1l6.8-1.6
					c0.1,0,0.1,0,0.2,0l7.2-1.1l0.8,5.4L271-40.3z"/>
				<path fill="#FFFFFF" d="M268.7-52.5l-7.6,1.8l-4.9,1.5c-0.3,0.1-0.6,0.2-0.9,0.3c-0.5,0.2-1,0.3-1.4,0.4l-4.8,2
					c-0.3,0.1-0.5,0.2-0.8,0.3c-0.5,0.2-1,0.4-1.3,0.6c0,0-0.1,0-0.1,0l-4.7,2.4c-0.6,0.3-1.2,0.6-1.8,1l-4.5,2.8l-5.1,3.8l-1,0.8
					c-10.3,8.6-18.1,20.3-22,33c-0.2,0.6-0.3,1.3-0.5,1.9c-0.1,0.4-0.2,0.8-0.3,1.3c-0.4-0.1-0.9-0.3-1.3-0.4
					c-1.3-0.4-2.6-0.9-3.9-1.3c0.1-0.3,0.2-0.6,0.2-0.9c0.2-0.6,0.3-1.3,0.5-1.9c0,0,0-0.1,0-0.1c4.2-13.7,12.7-26.4,23.7-35.6
					l1-0.9c0.1,0,0.1-0.1,0.2-0.1l5.3-3.9c0.1,0,0.1-0.1,0.2-0.1l4.6-2.9c0.7-0.5,1.5-0.9,2.3-1.3l4.6-2.3c0.7-0.4,1.3-0.6,1.9-0.9
					c0.2-0.1,0.4-0.2,0.7-0.3l4.9-2c0.6-0.2,1.2-0.4,1.7-0.6c0.3-0.1,0.6-0.2,0.9-0.3l5-1.6c0.1,0,0.1,0,0.2-0.1l7.8-1.8
					c0.1,0,0.1,0,0.2,0l5.9-0.9l0.8,5.4L268.7-52.5z"/>
				<path fill="#FFFFFF" d="M266.3-64.7l-8.5,2l-5.5,1.7c-0.3,0.1-0.7,0.2-1,0.3c-0.6,0.2-1.2,0.4-1.7,0.5l-5.5,2.2
					c-0.3,0.1-0.6,0.2-0.9,0.4c-0.6,0.2-1.2,0.5-1.7,0.8l-5.4,2.7c-0.7,0.3-1.4,0.8-2.2,1.2l-5.2,3.2l-5.9,4.4l-1.1,1
					c-12.1,10.1-21.3,23.9-25.9,38.9l-0.3,1.2c-0.1,0.5-0.3,1.1-0.4,1.6c-0.1,0-0.3-0.1-0.4-0.1c-1.5-0.5-3.1-1-4.8-1.6
					c0.1-0.4,0.2-0.9,0.3-1.3l0.3-1.3c0,0,0-0.1,0-0.1c4.9-16,14.7-30.8,27.6-41.5l1.1-1c0,0,0.1-0.1,0.2-0.1l6.1-4.5
					c0.1,0,0.1-0.1,0.2-0.1l5.3-3.3c0.8-0.5,1.7-1.1,2.6-1.5l5.3-2.7c0.8-0.4,1.5-0.7,2.2-1c0.3-0.1,0.5-0.2,0.8-0.3l5.6-2.3
					c0.7-0.2,1.3-0.4,2-0.7c0.3-0.1,0.6-0.2,1-0.3l5.6-1.8c0.1,0,0.1,0,0.2-0.1l8.7-2c0.1,0,0.1,0,0.2,0l5.4-0.8l0.8,5.4L266.3-64.7
					z"/>
			</g>
			<g>
				<g>
					<path fill="#FFFFFF" d="M104.6,20.3c-4.1,0.9-8.3,2.2-12.4,3.8c-0.1-0.8-0.3-1.6-0.5-2.6l-0.2-1c-0.1-0.6-0.3-1.3-0.5-1.9
						c4.1-1.6,8.3-2.9,12.5-3.8c5-1.1,10.3-1.7,15.6-1.9c0.7,1.7,1.3,3.5,2,5.4C115.3,18.5,109.8,19.2,104.6,20.3z"/>
					<path fill="#FFFFFF" d="M246.4,48.1c-1.3-0.2-2.7-0.4-4.1-0.6c-0.6-0.1-1.3-0.2-2-0.3c-1.3-0.2-2.7-0.5-4-0.8
						c-13.7-2.8-26.2-7-38.4-11l-4.1-1.4c-10.1-3.4-19.7-6.6-29.3-9.2c-0.3-0.9-0.5-1.8-0.8-2.6c-0.3-1.2-0.7-2.4-1-3.5
						c10.8,2.8,21.6,6.4,32.9,10.2l4,1.3c12,4,24.4,8.1,37.8,10.9c1.2,0.3,2.5,0.5,3.8,0.7c0.7,0.1,1.3,0.2,1.9,0.3
						c1.3,0.2,2.6,0.4,3.8,0.5L246.4,48.1z"/>
				</g>
				<g>
					<path fill="#FFFFFF" d="M249.9,36.1c-0.6-0.1-1.3-0.2-1.9-0.3c-1.2-0.2-2.4-0.3-3.7-0.5c-0.6-0.1-1.3-0.2-1.9-0.3
						c-1.2-0.2-2.4-0.4-3.6-0.7c-12.9-2.6-25.6-6.9-37.8-10.9l-3.7-1.2c-11.8-4-24.1-8.1-36.4-11.1c-0.2,0-0.3-0.1-0.5-0.1
						c-0.5-1.7-1.1-3.3-1.6-5c-0.1-0.4-0.2-0.7-0.4-1.1c1.2,0.3,2.5,0.6,3.8,0.9c12.5,3.1,24.8,7.2,36.8,11.2l3.7,1.2
						c12.1,4,24.6,8.2,37.2,10.8c1.1,0.2,2.2,0.4,3.4,0.6c0.7,0.1,1.3,0.2,1.9,0.3c1.1,0.2,2.3,0.3,3.4,0.5c0.6,0.1,1.3,0.2,1.9,0.3
						L249.9,36.1z"/>
					<path fill="#FFFFFF" d="M101.9,8.2c-4.4,1-8.7,2.3-13,3.9c-0.6-1.7-1.3-3.4-2.1-5.1c4.6-1.8,9.3-3.2,13.9-4.2
						c4.1-0.9,8.4-1.5,12.7-1.9c0.2,0.3,0.4,0.6,0.5,1c0.7,1.3,1.4,2.7,2.2,4.3C111.3,6.5,106.5,7.2,101.9,8.2z"/>
				</g>
				<g>
					<path fill="#FFFFFF" d="M248.4,23.4c-0.7-0.1-1.4-0.2-2.2-0.3c-0.6-0.1-1.2-0.2-1.8-0.3c-1-0.2-2.1-0.4-3.2-0.6
						c-12.2-2.5-24.4-6.6-37.4-10.9l-3.1-1C189,6.3,176.7,2.2,163.9-1c-2.8-0.7-5.6-1.3-8.3-1.9c-0.4-1-0.9-2.1-1.3-3.3l-0.1-0.1
						c-0.4-0.9-0.8-1.9-1.2-2.7c3.9,0.7,8,1.6,12.2,2.7c13,3.2,25.4,7.3,37.3,11.3l3.1,1c12.8,4.3,24.9,8.3,36.8,10.7
						c1,0.2,1.9,0.4,3,0.6c0.6,0.1,1.2,0.2,1.8,0.3c0.6,0.1,1.3,0.2,1.9,0.3L248.4,23.4z"/>
					<path fill="#FFFFFF" d="M99.3-3.9c-5.2,1.1-10.4,2.7-15.5,4.7c-0.9-1.6-1.9-3.2-2.9-4.8C86.5-6.2,92.3-8,98.1-9.3
						c2.5-0.5,5-1,7.6-1.4c0.2,0.2,0.4,0.5,0.6,0.7c0.3,0.4,0.7,0.9,1.1,1.5l0.1,0.1c0.5,0.7,1.1,1.6,1.9,2.7c0,0,0,0.1,0.1,0.1
						C106-5.2,102.6-4.6,99.3-3.9z"/>
				</g>
			</g>
			<g>
				<g>
					<path fill="#FFFFFF" d="M181.4,75.5c0.4,0.1,0.7,0.2,1.1,0.3c3.1,4.2,6.4,8.4,10.1,12.6c1.5,1.8,3.2,3.5,4.8,5.2l0.6,0.6
						l-4,3.8l-0.6-0.6c-1.7-1.7-3.4-3.6-5-5.4c-5.2-5.8-9.8-11.7-13.8-17.8C177,74.6,179.2,75,181.4,75.5z"/>
					<path fill="#FFFFFF" d="M156.4,33.6c0-0.1-0.1-0.2-0.1-0.3c-0.8-2.6-1.5-5.3-2.3-8c-0.9-3-1.8-6.1-2.7-9.3
						c-2.1-7-4.1-12.7-6.3-17.9c-2.6-6.1-5.6-11.9-9-17.3c-1.8-2.8-3.8-5.7-6-8.5c1.9-0.5,3.8-1,5.7-1.5c1.7,2.3,3.4,4.7,4.9,7
						c3.6,5.6,6.8,11.7,9.5,18.1c2.3,5.3,4.3,11.2,6.5,18.4c1,3.2,1.9,6.3,2.7,9.4c0.8,2.7,1.5,5.3,2.3,7.9c0.2,0.6,0.3,1.2,0.5,1.7
						C160.2,33.5,158.3,33.5,156.4,33.6z"/>
				</g>
				<g>
					<path fill="#FFFFFF" d="M165.9,73.4c0,0,0.1,0,0.1,0c2,3.3,4.1,6.5,6.2,9.4c4,5.5,7.5,9.8,11.1,13.8c1.6,1.9,3.5,3.8,5.2,5.6
						c0.7,0.8,1.5,1.5,2.2,2.3l-4,3.8c-0.7-0.8-1.4-1.5-2.2-2.3c-1.8-1.9-3.7-3.8-5.4-5.8c-3.7-4.1-7.3-8.6-11.4-14.2
						c-2.8-3.9-5.5-8.2-8.1-12.6C161.7,73.3,163.8,73.3,165.9,73.4z"/>
					<path fill="#FFFFFF" d="M144,34.8c-0.1,0-0.1,0-0.2,0c-0.6-2-1.2-4-1.8-6.1c-2.5-8.6-5-17.5-8.5-25.8c-2.3-5.5-5-10.7-8.1-15.5
						c-2.7-4.2-5.9-8.4-9.4-12.6c2.1-0.3,4.2-0.6,6.4-1c2.8,3.5,5.4,7.1,7.7,10.6c3.2,5,6.1,10.5,8.5,16.3
						c3.7,8.6,6.3,17.6,8.8,26.4c0.7,2.3,1.3,4.6,2,6.9C147.6,34.3,145.8,34.5,144,34.8z"/>
				</g>
				<g>
					<path fill="#FFFFFF" d="M150,74.2c0.7-0.1,1.4-0.2,2.1-0.3c3.2,5.7,6.6,11.1,10.1,16c4.2,5.7,8.1,10.5,11.9,14.8
						c1.8,2.1,3.7,4.1,5.6,6.1l0.2,0.2l-4,3.8l-0.2-0.2c-1.9-2-3.9-4.1-5.8-6.3c-3.9-4.3-7.9-9.3-12.2-15.2
						c-3.7-5.1-7.2-10.7-10.5-16.7c-0.3-0.5-0.6-1.1-0.9-1.7C147.5,74.6,148.7,74.4,150,74.2z"/>
					<path fill="#FFFFFF" d="M131.7,37.3c-0.5-1.7-1-3.3-1.4-5c-2.5-8.8-4.9-17-8.1-24.5c-2.1-4.9-4.4-9.4-7.1-13.7
						c-2.7-4.2-5.7-8.2-9.3-12.3c-0.4-0.5-0.9-0.9-1.3-1.4c-0.7-0.7-1.3-1.5-2-2.2l-2.3-2.3c1.1,0,2.2,0,3.2,0c0.4,0,0.8,0,1.2,0
						l0.1,0c0.4,0,0.9,0,1.3,0c0.6,0,1.1,0,1.7-0.1c0.3,0.3,0.6,0.6,0.9,1c0.4,0.5,0.8,0.9,1.3,1.4c3.8,4.3,7.1,8.7,9.9,13.1
						c2.9,4.5,5.4,9.3,7.6,14.5c3.3,7.8,5.7,16.2,8.3,25.1c0.5,1.7,1,3.5,1.5,5.3C135.3,36.5,133.5,36.9,131.7,37.3z"/>
				</g>
			</g>
			<g>
				<path fill="#FFFFFF" d="M217.9,90.1c-0.5-0.4-1-0.9-1.4-1.3c-0.7-0.6-1.4-1.3-2.1-1.8l-2.7-2.2l-0.9-0.7
					c-12.6-9.4-28.4-14.9-44.6-15.5c-7.8-0.3-16,0.5-24.2,2.4c-2.7,0.6-5.3,1.4-7.8,2.2c-1.6-1.4-3.2-2.7-4.9-4.1
					c3.7-1.4,7.6-2.6,11.5-3.5c7.4-1.7,14.8-2.6,21.9-2.6c1.3,0,2.5,0,3.8,0.1c17.3,0.6,34.2,6.5,47.7,16.6l1,0.7
					c0,0,0.1,0.1,0.1,0.1l2.8,2.3c0.8,0.6,1.5,1.3,2.3,2c0.5,0.4,0.9,0.8,1.4,1.2L217.9,90.1z"/>
				<path fill="#FFFFFF" d="M225.1,80l-0.3-0.3c-0.9-0.8-1.7-1.6-2.6-2.3l-3.2-2.6l-1.1-0.8c-14.6-10.9-32.9-17.3-51.5-18
					c-8.9-0.4-18.2,0.5-27.6,2.7c-5.7,1.3-11.1,3.1-16.4,5.4c-1.8-1.2-3.6-2.4-5.4-3.6c6.5-3,13.4-5.4,20.6-7.1
					c8.4-1.9,16.7-2.9,24.8-2.9c1.4,0,2.8,0,4.2,0.1c19.7,0.7,39.1,7.5,54.6,19l1.1,0.8c0,0,0.1,0.1,0.1,0.1l3.2,2.6
					c1,0.8,1.9,1.6,2.8,2.4l0.3,0.3L225.1,80z"/>
				<path fill="#FFFFFF" d="M232.3,69.8c-0.7-0.6-1.4-1.2-2-1.8l-3.6-2.9l-1.2-0.9c-3.9-3-8.2-5.7-13.3-8.4
					c-2.1-1.1-4.2-2.1-6.4-3.1l-1.1-0.5c-2.3-1-4.5-1.9-6.8-2.6c-5.1-1.8-10.2-3.1-15.2-4c-5.1-0.9-10.3-1.5-15.5-1.7
					c-19.8-0.7-39.4,3.6-56.9,12.6c-1.9-1.1-3.8-2.1-5.8-3.2c0,0,0.1,0,0.1-0.1c17.8-9.8,37.8-14.9,58.2-14.9c1.5,0,3.1,0,4.6,0.1
					c5.5,0.2,11,0.8,16.3,1.8c5.2,1,10.6,2.4,15.9,4.2c2.5,0.8,4.9,1.8,7.2,2.8l0.5,0.2c0,0,0.1,0,0.1,0l0.7,0.3
					c2.2,1,4.6,2.1,6.8,3.3c5.3,2.8,9.9,5.7,14,8.8l1.3,0.9c0,0,0.1,0,0.1,0.1l3.7,3c0.7,0.6,1.5,1.3,2.2,1.9L232.3,69.8z"/>
			</g>
			<g>
				<path fill="#FFFFFF" d="M-4.2,85.9c4.1-4.8,8-9.4,11.5-14.1c2.8-3.7,5.4-7.4,7.8-11.2c1.4-2.2,2.8-4.7,4.2-7.2
					c1.4,1.1,2.9,2.2,4.5,3.3c-1.3,2.4-2.7,4.7-4,6.9c-2.5,3.9-5.2,7.8-8,11.6C8.1,79.9,4.2,84.5,0,89.4C-2.4,92.2-4.8,95-7.2,98
					c-3.9,4.8-6.9,8.9-9.6,12.9c-3.1,4.8-5.8,9.7-7.9,14.6c-2.1,4.9-3.9,10.2-5.2,15.8c-1.1,4.7-2,9.6-2.7,16l-0.2,1.9
					c-0.1,1.3-0.2,2.7-0.3,4l-0.2,3.8l-5.5-0.3l0.2-3.9c0.1-1.4,0.2-2.8,0.3-4.1l0.2-1.9c0.8-6.7,1.6-11.9,2.8-16.8
					c1.4-5.9,3.3-11.5,5.5-16.7c2.2-5.2,5.1-10.4,8.3-15.5c2.7-4.2,5.9-8.4,9.9-13.4C-9,91.5-6.6,88.6-4.2,85.9z"/>
				<path fill="#FFFFFF" d="M-1.9,102.3c2.3-2.8,4.7-5.6,7-8.3c4.1-4.8,8.3-9.7,12.1-14.7c3-4,5.8-8.1,8.4-12.1
					c1.3-2.1,2.6-4.3,3.9-6.7c1.5,1,3.1,1.9,4.7,2.8c-1.3,2.4-2.6,4.6-4,6.8c-2.6,4.2-5.6,8.4-8.7,12.5c-3.9,5.2-8.2,10.2-12.3,15
					c-2.3,2.7-4.7,5.5-6.9,8.2c-3.6,4.4-6.4,8.2-8.8,11.8c-2.7,4.2-5,8.5-6.9,12.8c-1.8,4.3-3.4,8.9-4.6,13.8
					c-1,4.1-1.8,8.6-2.4,14.4c-0.1,0.7-0.1,1.3-0.2,2c-0.1,1.2-0.2,2.3-0.3,3.4l-0.3,5.5l-5.5-0.3l0.3-5.5c0.1-1.2,0.2-2.4,0.3-3.6
					c0.1-0.6,0.1-1.3,0.2-2c0.7-6.1,1.5-10.8,2.5-15.1c1.3-5.2,2.9-10.1,4.9-14.7c2-4.6,4.4-9.2,7.3-13.6
					C-8.5,110.8-5.6,106.9-1.9,102.3z"/>
				<path fill="#FFFFFF" d="M-7,133.1c3.1-7.4,7.7-14.4,14.7-23c2.1-2.6,4.4-5.2,6.7-8c4.2-4.9,8.5-10,12.6-15.4
					c3.2-4.3,6.3-8.7,9-13.1c1.4-2.2,2.8-4.6,4.2-7.1c1.6,0.9,3.2,1.7,4.9,2.5c-1.4,2.6-2.9,5.1-4.4,7.5c-2.8,4.5-6,9.1-9.3,13.5
					c-4.2,5.6-8.6,10.7-12.8,15.7c-2.3,2.7-4.5,5.3-6.7,7.9c-6.7,8.1-11,14.8-13.9,21.6c-1.6,3.6-2.9,7.6-3.9,11.8
					c-0.9,3.6-1.5,7.5-2.1,12.7c-0.1,0.7-0.1,1.3-0.2,2c-0.1,1-0.2,2-0.2,2.9l-0.1,2.6L-14,167l0.1-2.6c0.1-1,0.2-2.1,0.3-3.1
					c0.1-0.6,0.1-1.3,0.2-2c0.6-5.5,1.3-9.7,2.3-13.5C-10.1,141.3-8.7,137-7,133.1z"/>
			</g>
			<g>
				<path fill="#FFFFFF" d="M93.3,151.2c-0.6-1.8-1.4-4.1-2.5-6.3c-3.4-7.4-8.1-13.6-13.7-18.5c-0.1-2.4-0.1-4.7,0-7
					c7.8,5.6,14.3,13.5,18.7,23.1c1.2,2.4,2.1,4.9,2.7,6.8L93.3,151.2z"/>
				<path fill="#FFFFFF" d="M105.9,149.7c-1-3.1-2.2-6.6-3.8-9.9c0,0,0-0.1-0.1-0.1c-0.5-1.2-1.1-2.3-1.8-3.5
					c-0.3-0.5-0.6-1.1-0.8-1.6c-0.3-0.5-0.6-1-0.9-1.6c-0.7-1.2-1.4-2.3-2.1-3.3c0,0-0.1-0.1-0.1-0.1c-1.9-2.9-4.3-5.8-7.3-8.9
					l-2.1-2.1c-0.4-0.4-0.9-0.8-1.4-1.2c-0.3-0.2-0.6-0.5-0.8-0.7l-1.1-0.9c-0.2-0.2-0.5-0.3-0.7-0.5l-2.8-2.1l-2.6-1.7
					c0.2-2,0.4-4,0.8-5.9l0.9,0.5c0,0,0.1,0,0.1,0.1c0.3,0.2,0.6,0.4,0.9,0.6l3,1.9c0.1,0,0.1,0.1,0.2,0.1l2.9,2.1
					c0.3,0.2,0.6,0.4,0.9,0.7l1.2,1c0.3,0.2,0.5,0.4,0.8,0.7c0.5,0.4,1.1,0.9,1.6,1.4l2.2,2.2c3.2,3.3,5.8,6.5,7.9,9.7
					c0.9,1.2,1.6,2.5,2.3,3.7c0.3,0.5,0.6,1,0.9,1.6c0,0.1,0.1,0.1,0.1,0.2c0.3,0.5,0.6,1.1,0.8,1.6c0.7,1.2,1.4,2.5,1.9,3.9
					c1.7,3.6,3,7.3,4.1,10.5L105.9,149.7z"/>
				<path fill="#FFFFFF" d="M116.8,143.3c-1.2-3.5-2.3-6.3-3.5-8.7c0,0,0-0.1,0-0.1c-0.6-1.5-1.4-2.9-2.2-4.4
					c-0.3-0.5-0.6-1.1-0.9-1.6c-0.3-0.5-0.6-1.1-1-1.6c-0.9-1.5-1.7-2.8-2.6-4.1c0,0,0-0.1-0.1-0.1c-2.3-3.5-5.2-7-8.7-10.6
					l-2.5-2.5c-0.6-0.5-1.2-1-1.8-1.6c-0.3-0.2-0.6-0.5-0.9-0.7l-1.3-1.1c-0.3-0.2-0.6-0.5-0.9-0.7l-3.3-2.4l-3.5-2.2
					c-0.3-0.2-0.6-0.4-0.9-0.6L80.5,99c-0.3-0.1-0.5-0.3-0.8-0.4c0.4-1.8,0.8-3.6,1.4-5.5c0.7,0.4,1.4,0.7,2,1.1l2.4,1.3
					c0,0,0.1,0,0.1,0.1c0.4,0.2,0.7,0.5,1.1,0.7l3.6,2.3c0.1,0,0.1,0.1,0.2,0.1l3.4,2.5c0.4,0.3,0.7,0.5,1.1,0.9l1.4,1.2
					c0.3,0.2,0.6,0.5,0.8,0.7c0.7,0.6,1.3,1.1,2,1.8l2.6,2.6c3.8,3.9,6.8,7.6,9.3,11.4c1.1,1.5,2,3,2.9,4.5c0.3,0.5,0.6,1.1,1,1.6
					c0,0.1,0.1,0.1,0.1,0.2c0.3,0.5,0.6,1.1,0.9,1.6c0.8,1.5,1.7,3.1,2.4,4.7c1.3,2.7,2.4,5.6,3.7,9.3L116.8,143.3z"/>
			</g>
			<g>
				<path fill="#FFFFFF" d="M-257.9-1l3.3-1.5c0.8-0.3,1.5-0.7,2.3-1.1l3.4-1.8c0.7-0.4,1.4-0.8,2.2-1.3c0.4-0.2,0.7-0.4,1.1-0.6
					l1.6-1l1.5-1c0.3-0.2,0.7-0.5,1-0.7c0.7-0.5,1.4-1,2.1-1.5c4-3,7.8-6.5,11.4-10.4c3.2-3.7,6.2-7.9,8.9-12.5
					c1.8-3.3,3.4-6.6,4.7-9.9c2.3-0.6,4.5-1.1,6.5-1.7c-1.7,4.7-3.8,9.5-6.5,14.3c-2.9,5-6.1,9.5-9.6,13.4c-3.8,4.2-7.9,8-12.2,11.2
					c-0.8,0.6-1.5,1.1-2.3,1.6c-0.3,0.2-0.7,0.5-1,0.7l-1.6,1.1c0,0-0.1,0.1-0.1,0.1l-1.7,1c-0.4,0.2-0.7,0.4-1.1,0.6
					c-0.8,0.5-1.6,0.9-2.5,1.4l-3.4,1.7c-0.9,0.5-1.8,0.9-2.6,1.2l-3.4,1.5c-1.4,0.6-2.8,1.1-4.2,1.6c-0.6,0.2-1.2,0.4-1.7,0.6
					l-1.9-5.2c0.6-0.2,1.2-0.4,1.8-0.7C-260.5,0-259.1-0.5-257.9-1z"/>
				<path fill="#FFFFFF" d="M-260.8-13.3c1.1-0.5,2.1-0.9,3.1-1.4c3.5-1.7,7.2-3.9,11-6.6c3.3-2.5,6.5-5.4,9.5-8.7
					c2.7-3.1,5.2-6.6,7.4-10.4c0.1-0.1,0.1-0.2,0.2-0.4c1.5-0.3,3-0.6,4.6-0.9c0.8-0.2,1.5-0.3,2.3-0.5c-0.7,1.5-1.5,3-2.3,4.5
					c-2.5,4.2-5.2,8-8.1,11.4c-3.2,3.6-6.7,6.7-10.3,9.4c-4.2,3-8.1,5.3-11.8,7.1c-1.1,0.6-2.3,1.1-3.4,1.6
					c-0.6,0.2-1.2,0.5-1.7,0.8c0,0-0.1,0-0.1,0c-1.1,0.5-2.3,0.9-3.4,1.3c-0.6,0.2-1.2,0.4-1.8,0.7l-1.9-5.1
					c0.6-0.2,1.2-0.5,1.9-0.7c1.1-0.4,2.1-0.8,3.2-1.2C-262-12.8-261.4-13-260.8-13.3z"/>
				<path fill="#FFFFFF" d="M-263.2-25.8l2.5-1.3c0.5-0.2,0.9-0.5,1.4-0.8c0.3-0.2,0.6-0.4,1-0.6l1.1-0.7l1-0.7
					c0.3-0.2,0.6-0.4,0.9-0.6c0.4-0.3,0.8-0.6,1.2-0.9c2.7-2,5.1-4.3,7.6-6.9c0.1-0.1,0.1-0.2,0.2-0.2c1.3-0.1,2.7-0.3,4.1-0.4
					c1.1-0.1,2.3-0.3,3.5-0.5c-1.2,1.7-2.4,3.3-3.7,4.8c-2.7,3-5.4,5.5-8.4,7.7c-0.5,0.4-1,0.7-1.5,1c-0.3,0.2-0.6,0.4-0.9,0.6
					l-1.1,0.8c-0.1,0-0.1,0.1-0.2,0.1l-1.2,0.7c-0.3,0.2-0.6,0.3-0.9,0.5c-0.5,0.3-1.1,0.6-1.7,1l-2.4,1.2c-0.7,0.4-1.3,0.6-1.9,0.9
					l-2.6,1.1l-2.2-5l2.6-1.1C-264.2-25.3-263.7-25.5-263.2-25.8z"/>
			</g>
			<g>
				<path fill="#FFFFFF" d="M-147.1-20.5c-1.3-0.2-2.5-0.3-3.8-0.5c-4.7-7-8.9-15.2-13.2-23.7l-0.8-1.5c-5.6-11-11.5-22.4-19.8-33.2
					c-4.5-5.8-9.4-10.8-14.6-14.9c-5.8-4.6-12-8.2-18.3-10.8c-6.2-2.5-12.8-4.3-20.3-5.5l-5.2-0.6c-0.3,0-0.6-0.1-1-0.1
					c-0.5-0.1-1-0.1-1.5-0.1l-4.1-0.2c-1.2-0.1-2.4-0.1-3.6-0.1l-8,0.2l-2.9,0.2l-0.4-5.5l3-0.2c0.1,0,0.1,0,0.2,0l8.2-0.2
					c0,0,0,0,0.1,0c0,0,0,0,0.1,0c1.3,0,2.5,0.1,3.8,0.1l4.1,0.2c0.6,0,1.3,0.1,1.9,0.2c0.3,0,0.6,0.1,0.9,0.1l5.3,0.6
					c0,0,0.1,0,0.1,0c7.9,1.3,15,3.2,21.5,5.9c6.9,2.8,13.5,6.7,19.7,11.6c5.5,4.4,10.7,9.7,15.5,15.8c8.7,11.1,14.7,22.8,20.4,34.1
					l0.8,1.5c5.2,10.1,10.1,19.7,15.9,27.3C-144.6-20.1-145.8-20.3-147.1-20.5z"/>
				<path fill="#FFFFFF" d="M-166-21.9c-0.3-0.5-0.6-1-0.9-1.5c-2.9-5.1-5.6-10.4-8.2-15.5l-0.6-1.2c-5.2-10.2-11.1-21.8-18.8-31.6
					c-3.9-5-8.2-9.3-12.6-12.9c-4.9-3.9-10-6.9-15.4-9.1c-5.2-2.1-10.9-3.7-17.3-4.7l-4.5-0.5c-0.3,0-0.6-0.1-0.9-0.1
					c-0.4-0.1-0.9-0.1-1.3-0.1l-6.9-0.3l-7.3,0.2l-8.1,0.7l-0.4-5.5l8.2-0.7c0.1,0,0.1,0,0.2,0l7.4-0.2c0,0,0,0,0.1,0
					c0,0,0.1,0,0.1,0l7,0.3c0.6,0,1.1,0.1,1.7,0.2c0.3,0,0.5,0.1,0.8,0.1l4.6,0.5c0,0,0.1,0,0.1,0c6.9,1.1,13,2.8,18.6,5
					c5.8,2.4,11.4,5.7,16.7,9.9c4.8,3.8,9.3,8.4,13.5,13.8c8,10.3,14.1,22.1,19.4,32.5l0.6,1.2c2.6,5.1,5.2,10.3,8.1,15.3
					c0.9,1.5,1.7,3,2.6,4.4C-161.7-21.8-163.9-21.9-166-21.9z"/>
				<path fill="#FFFFFF" d="M-178-21.4c-0.6,0.1-1.2,0.1-1.8,0.2c-2.2-4-4.2-8-6.2-11.8l-0.7-1.4c-5.7-11.3-11-21.4-17.5-29.6
					c-6.7-8.6-14.2-14.6-22.9-18.1c-4.3-1.7-9-3-14.4-3.9l-3.9-0.4c-0.3,0-0.5-0.1-0.8-0.1c-0.4,0-0.7-0.1-1.1-0.1l-6.1-0.2
					l-6.5,0.2l-7.4,0.6l-0.4-5.5l7.5-0.6c0.1,0,0.1,0,0.2,0l6.7-0.2c0,0,0,0,0.1,0c0,0,0.1,0,0.1,0l6.2,0.2c0.5,0,1,0.1,1.5,0.1
					c0.2,0,0.4,0.1,0.7,0.1l4,0.4c0,0,0.1,0,0.1,0c5.9,1,11,2.3,15.7,4.2c9.5,3.9,17.9,10.6,25.2,19.8c6.8,8.6,12.2,18.9,18.1,30.5
					l0.7,1.4c2.3,4.5,4.7,9.2,7.3,13.8C-175.2-21.6-176.6-21.5-178-21.4z"/>
			</g>
			<g>
				<path fill="#FFFFFF" d="M-184.2,48.1c4.1-5,7.6-9.7,10.5-14.6c3.2-5.2,5.6-10.3,7.4-15.5c1.9,0,3.8,0.1,5.7,0.2
					c-2,6.1-4.7,12-8.4,18.1c-3.1,5.1-6.7,10.1-11,15.3c-8,9.5-17.1,17.9-27.2,25c-2.8,1.9-5.5,3.7-8.3,5.3l-2.8-4.8
					c2.6-1.5,5.3-3.2,7.9-5.1C-200.6,65.3-191.8,57.2-184.2,48.1z"/>
				<path fill="#FFFFFF" d="M-193.7,40.1c3.7-4.5,6.8-8.7,9.4-13c1.6-2.7,3-5.3,4.2-8c2-0.4,3.9-0.6,5.9-0.8c0.2,0,0.3,0,0.5,0
					c-1.5,3.9-3.5,7.8-5.8,11.7c-2.7,4.6-6,9-9.9,13.7c-7.3,8.7-15.6,16.3-24.7,22.8c-3.2,2.2-6.4,4.2-9.6,6l-2.6-4.8
					c3-1.6,6.1-3.6,9.1-5.7C-208.6,55.7-200.6,48.4-193.7,40.1z"/>
				<path fill="#FFFFFF" d="M-203.2,32.2c2.2-2.6,4.1-5.2,5.9-7.7c0.2-0.1,0.4-0.2,0.6-0.3c0.6-0.3,1.3-0.6,1.8-0.8l3.8-1.4
					c0.8-0.3,1.5-0.5,2.3-0.7c-0.4,0.8-0.9,1.5-1.3,2.3c-2.4,4-5.3,8.1-8.8,12.2c-6.5,7.7-14.2,14.8-22.3,20.6
					c-2.8,2-5.7,3.7-8.4,5.3l-2.7-4.8c2.6-1.4,5.3-3.1,7.9-5C-216.7,46.3-209.3,39.5-203.2,32.2z"/>
			</g>
			<g>
				<path fill="#FFFFFF" d="M131.1,130.6l-0.5-1.4c-0.7-2.1-1.4-4-2.2-5.8c0,0,0-0.1-0.1-0.1c-2.7-6.2-5.9-11.3-9.6-15.8
					c-3.8-4.6-8.5-8.9-13.9-12.9c-10.5-7.8-23-13.7-37.1-20.1L66,73.7c-6.3-2.9-12.8-5.9-19.3-9.2c-8.5-4.3-15.4-8.4-21.5-12.7
					c-6.8-4.8-12.8-10.2-17.8-16c0.1-0.3,0.2-0.6,0.3-0.9c0.6-1.7,1.2-3.4,1.8-5.1c0.1,0.1,0.2,0.2,0.3,0.4c5,6.3,11.3,12,18.5,17.1
					c5.9,4.2,12.5,8.1,20.8,12.3c6.4,3.3,12.9,6.2,19.1,9.1l1.8,0.8c14.4,6.5,27.2,12.6,38.1,20.7c5.7,4.2,10.7,8.9,14.8,13.8
					c4.1,4.8,7.5,10.4,10.4,17c1,2.1,1.8,4.3,2.5,6.4l0.5,1.3L131.1,130.6z"/>
				<path fill="#FFFFFF" d="M143.3,127.9c-0.3-0.8-0.5-1.6-0.8-2.3c-0.8-2.5-1.7-4.9-2.7-7.1c0,0,0-0.1,0-0.1
					c-3.1-7.1-7-13.4-11.4-18.7c-4.5-5.4-9.9-10.4-16.1-15C99.8,75.6,85.5,69,72.9,63.2L70.2,62c-12.8-5.9-26-11.9-37.8-20.3
					C25.6,37,19.9,31.6,15.2,25.8c-1.1-1.3-2.1-2.7-3-4c0.7-2.4,1.3-4.7,1.9-7.1c1.6,2.7,3.4,5.3,5.4,7.7
					c4.3,5.4,9.8,10.4,16.1,14.9c11.4,8.1,24.3,14,36.9,19.8l2.7,1.2c12.9,5.9,27.5,12.6,40.3,22c6.6,4.8,12.3,10.2,17,15.9
					c4.8,5.6,8.9,12.3,12.2,19.9c1.2,2.5,2.1,5.1,3,7.7c0.3,0.8,0.5,1.5,0.8,2.3L143.3,127.9z"/>
				<path fill="#FFFFFF" d="M155.3,124.8c-0.3-1-0.7-1.9-1-2.9c-1-3-2-5.8-3.3-8.6c-3.6-8.2-8-15.4-13.2-21.6
					c-5.1-6.2-11.3-11.9-18.3-17.1c-5.9-4.3-12.6-8.5-20.6-12.7c-6.7-3.5-13.5-6.7-20.1-9.7l-2.2-1c-13.5-6.2-26.3-12-37.1-19.7
					c-5.8-4.1-10.8-8.7-14.8-13.6c-3.3-4.1-6.1-8.7-8.5-13.5c0.7-3.7,1.3-6.9,1.7-10.4c3.7,9.8,6.6,15,11,20.4
					c3.6,4.5,8.2,8.7,13.7,12.6C53.1,34.6,65.7,40.3,79,46.4l2.2,1c6.6,3,13.5,6.2,20.3,9.8c8.2,4.3,15.2,8.6,21.3,13.1
					c7.4,5.4,13.9,11.5,19.2,18c5.5,6.5,10.2,14.2,14,22.8c1.4,3,2.5,6.1,3.5,9.1c0.3,1,0.6,1.9,1,2.9L155.3,124.8z"/>
			</g>
			<g>
				<g>
					<path fill="#FFFFFF" d="M245.2-24.9c0.9-0.6,1.7-1.1,2.6-1.6c0.7-0.4,1.3-0.8,1.9-1.2l1.1-0.6c0.7,0.2,1.5,0.4,2.2,0.6
						c3.6,0.9,7,1.7,10.2,2.3c2.7,0.5,5.1,0.9,7.3,1.1l-0.6,5.5c-2.4-0.3-4.9-0.6-7.7-1.2c-3.3-0.6-6.9-1.4-10.6-2.4
						c-2.3-0.6-4.7-1.3-7.1-2L245.2-24.9z"/>
					<path fill="#FFFFFF" d="M205.4-42.6c-0.6,0.7-1.1,1.3-1.6,1.9c-1.1-0.6-2.3-1.2-3.4-1.8c-5.7-3.1-10.4-6-14.3-8.9
						c1.6-0.9,3.2-1.7,4.7-2.6c0.2-0.1,0.4-0.2,0.7-0.4c3.3,2.2,7.1,4.5,11.5,7c1.5,0.8,3,1.6,4.6,2.4L205.4-42.6z"/>
				</g>
				<g>
					<path fill="#FFFFFF" d="M197.3-32.1c-0.2,0.3-0.4,0.6-0.6,0.9c-0.1,0.2-0.2,0.4-0.4,0.5c-0.6-0.3-1.2-0.7-1.8-1
						c-5.6-3.1-13-7.3-19.7-12.8c-0.2-0.2-0.4-0.4-0.7-0.6c1.8-0.9,3.6-1.9,5.3-2.8c6,4.8,12.6,8.6,17.7,11.4
						c0.8,0.4,1.5,0.8,2.3,1.2L197.3-32.1z"/>
					<path fill="#FFFFFF" d="M234.2-14.9c0.3-0.3,0.5-0.7,0.7-0.8L238-19c0.1-0.1,0.1-0.1,0.2-0.2c0.3,0.1,0.6,0.2,0.9,0.3
						c3.6,1.2,7.3,2.2,10.9,3.2c3.9,1,7.5,1.8,11,2.5c3.9,0.7,7.4,1.2,10.6,1.5l-0.4,5.5c-3.4-0.3-7-0.8-11.2-1.5
						c-3.7-0.7-7.4-1.5-11.4-2.6c-3.7-1-7.5-2-11.2-3.2c-1.1-0.4-2.2-0.7-3.3-1.1C234.1-14.8,234.1-14.8,234.2-14.9z"/>
				</g>
				<g>
					<path fill="#FFFFFF" d="M227.5-5l2-3.5c0-0.1,0.1-0.2,0.3-0.4c1.8,0.6,3.7,1.2,5.5,1.8c3.9,1.2,7.7,2.4,11.5,3.3
						c4.2,1.1,8.1,2,11.9,2.7c3.5,0.6,6.5,1.1,9.5,1.4l-0.6,5.5c-3.1-0.3-6.3-0.8-9.9-1.5c-4-0.7-8-1.6-12.3-2.8
						c-3.9-1-7.9-2.2-11.8-3.4c-2.2-0.7-4.3-1.4-6.5-2.2L227.5-5z"/>
					<path fill="#FFFFFF" d="M191.6-22.4l-1.2,2.6c0,0,0,0,0,0.1c-0.6-0.3-1.2-0.7-1.8-1c-6.5-3.6-14.2-8.1-21.7-14.2
						c-1.5-1.3-3.1-2.7-4.7-4.2c1.8-0.8,3.5-1.6,5.3-2.5c0.9,0.8,1.9,1.7,2.9,2.5c7.1,5.8,14.2,10,20.8,13.6
						c0.6,0.3,1.1,0.6,1.7,0.9L191.6-22.4z"/>
				</g>
			</g>
			<g>
				<g>
					<path fill="#FFFFFF" d="M-96.7,142.5c0.1-0.3,0.2-0.6,0.3-0.8l1.2-2.9c3-7.7,4.9-16,5.6-24.8c0,0,0,0,0,0
						c1.9-0.1,3.8-0.2,5.5-0.2c0,0.2,0,0.4,0,0.6c-0.7,9.3-2.7,18.1-5.9,26.4l-1.2,3c-0.1,0.3-0.2,0.5-0.3,0.8
						c-0.3,0.8-0.7,1.6-1.1,2.3l-1,1.9l-4.9-2.5l1-1.9C-97.2,143.8-97,143.2-96.7,142.5z"/>
					<path fill="#FFFFFF" d="M-91.6,43.6c0.8,6,1.8,12,2.9,18.4c0.7,4,1.4,8,2,12.1c-1.8,0-3.6,0.1-5.5,0.2
						c-0.6-3.8-1.3-7.6-1.9-11.4c-1.1-6.4-2.2-12.5-3-18.6c-2.3-16.7-2.1-30,0.5-41.9c2.2-10.6,6.9-20.9,13.8-30.8l1.7,0.1
						c1.2,0.1,2.4,0,3.5,0c0.4,0,0.8,0,1.3,0l0.3,0c0,0,0.1,0,0.1,0c-7.8,10.3-12.9,21-15.2,32C-93.6,14.8-93.8,27.5-91.6,43.6z"/>
				</g>
				<g>
					<path fill="#FFFFFF" d="M-108.7,139.1c0.2-0.4,0.4-0.9,0.7-1.5c0.1-0.3,0.2-0.5,0.3-0.7l1-2.5c2.3-5.8,3.8-12.2,4.5-18.8
						l2.8-0.5l1.5-0.2c0.4-0.1,0.9-0.1,1.3-0.2c-0.7,7.7-2.4,15-5,21.8l-1.1,2.6c-0.1,0.2-0.2,0.4-0.3,0.7c-0.3,0.6-0.5,1.3-0.9,2.1
						l-1.5,3l-4.9-2.5L-108.7,139.1C-108.7,139.1-108.7,139.1-108.7,139.1z"/>
					<path fill="#FFFFFF" d="M-105.5,22.9c0,6.7,0.5,14,1.6,22.3c0.9,6.4,2,12.9,3.1,19.1c0.6,3.4,1.2,6.9,1.8,10.5
						c-1.5,0.2-3,0.4-4.6,0.6l-0.9,0.1c-0.6-3.4-1.1-6.9-1.7-10.2c-1.1-6.3-2.2-12.8-3.1-19.3c-1.2-8.5-1.7-16-1.7-23
						c0-8.1,0.8-15.9,2.4-23.1c2.1-10.1,6.3-20.2,12.2-29.8c0.4,0.1,0.8,0.2,1.2,0.3l0.3,0.1c1.1,0.2,2.2,0.3,3.3,0.5l1.1,0.2
						c-6.2,9.6-10.5,19.8-12.7,30C-104.7,7.8-105.5,15.2-105.5,22.9z"/>
				</g>
				<g>
					<path fill="#FFFFFF" d="M-104.8-29.3c-0.7,1.3-1.5,2.5-2,3.8c0,0,0,0.1-0.1,0.1c-3.7,7.1-6.5,15-8.4,23.6
						c-1.7,7.7-2.6,16-2.6,24.6c0,7.3,0.6,15.1,1.8,24c0.9,6.8,2.1,13.5,3.2,19.9c0.6,3.4,1.1,6.7,1.7,10l-1.2,0.2
						c-1.4,0.3-2.8,0.7-4.2,1c-0.5-3.4-1.1-6.8-1.7-10.3c-1.1-6.5-2.3-13.2-3.2-20.1c-1.2-9.1-1.8-17.1-1.8-24.7
						c0-9,0.9-17.7,2.7-25.8c2-9,5-17.3,8.8-24.8c0.7-1.5,1.5-2.9,2.3-4.2c0.2-0.4,0.5-0.8,0.7-1.3c1.7,0.6,3.5,1.1,5.4,1.6
						l-0.5,0.8C-104.2-30.4-104.5-29.8-104.8-29.3z"/>
					<path fill="#FFFFFF" d="M-119.9,133.7c0.2-0.3,0.3-0.7,0.5-1.1c0.1-0.2,0.2-0.5,0.3-0.7l0.9-2.1c1.3-3.3,2.3-6.8,3-10.5
						l0.9-0.4c0.9-0.3,1.8-0.6,2.8-1c0.7-0.2,1.4-0.5,2.1-0.7c0,0,0,0,0,0c-0.8,5.1-2,10-3.8,14.6l-0.9,2.2
						c-0.1,0.2-0.2,0.4-0.2,0.6c-0.2,0.5-0.5,1.1-0.8,1.8l-2.1,4l-4.9-2.5l2.1-4.1C-119.9,133.8-119.9,133.8-119.9,133.7z"/>
				</g>
			</g>
			<g>
				<g>
					<path fill="#FFFFFF" d="M-52.9,149.3c1.7-12.4,4.9-24.6,9.5-36.3c2.2-5.8,4.9-11.4,7.7-16.8c1.5,1.2,3,2.4,4.4,3.5
						c-2.5,5-4.9,10.1-6.9,15.3c-4.5,11.2-7.6,23-9.2,35.1c-0.4,2.2-0.6,4.4-0.8,6.7c-0.1,1.1-0.2,2.3-0.3,3.4l-5.5-0.6
						c0.1-1.1,0.2-2.2,0.3-3.3C-53.5,154-53.3,151.6-52.9,149.3z"/>
				</g>
				<g>
					<path fill="#FFFFFF" d="M-65.2,147.6c1.8-13.4,5.3-26.6,10.3-39.1c2.7-7,5.9-13.7,9.3-20.2c1.5,1.2,2.9,2.4,4.4,3.5
						c-3.1,6-6,12.2-8.6,18.7c-4.8,12.1-8.2,24.9-10,37.9c-0.4,2.4-0.6,4.8-0.9,7.3c-0.1,1.2-0.2,2.3-0.4,3.5l-5.5-0.6
						c0.1-1.1,0.2-2.3,0.3-3.4C-65.8,152.7-65.6,150.1-65.2,147.6z"/>
				</g>
				<g>
					<path fill="#FFFFFF" d="M-77.4,145.9c2-14.4,5.7-28.5,11-41.9c3.3-8.4,7.2-16.4,11.2-23.9c1.4,1.3,2.8,2.5,4.2,3.8
						c-3.7,7-7.3,14.4-10.3,22.2c-5.2,13.1-8.8,26.7-10.7,40.7c-0.4,2.6-0.7,5.3-0.9,8l-0.2,1.7l-5.5-0.5l0.2-1.7
						C-78.1,151.4-77.9,148.6-77.4,145.9z"/>
				</g>
			</g>
			<g>
				<g>
					<path fill="#FFFFFF" d="M5.6,130.9c0.1-0.1,0.2-0.3,0.3-0.4c1.1,3,1.9,6,2.5,9.1c0.2,0.6,0.3,1.2,0.3,1.8
						c0,0.2,0.1,0.4,0.1,0.6l0.7,4.4c0,0.1,0,0.2,0,0.2l0.2,2.3c0,0.6,0.1,1.2,0.1,1.8c0.1,0.9,0.1,1.9,0.2,2.8c0,0,0,0.1,0,0.1
						l0,4.6c0,0.3,0,0.6,0,0.8c0,0.6,0,1.1,0,1.8l-0.5,7.5l-5.5-0.4l0.5-7.4c0-0.5,0-1,0-1.4c0-0.3,0-0.6,0-0.9l0-4.5
						c0-0.9-0.1-1.7-0.2-2.6c0-0.6-0.1-1.2-0.1-1.8L4,147l-0.6-4.3c0-0.2-0.1-0.5-0.1-0.7c-0.1-0.4-0.1-0.8-0.2-1.1
						c0-0.1,0-0.2-0.1-0.2c-0.2-1-0.4-2-0.7-3C3.3,135.3,4.4,133.1,5.6,130.9z"/>
					<path fill="#FFFFFF" d="M-73.6,32.2c1.4,5.6,3.4,11.1,6,16c3.4,6.4,8,12.7,13.7,18.8c5.4,5.6,11,10.4,16.3,14.6
						c2.1,1.7,4.2,3.4,6.2,5c3.4,2.7,6.6,5.2,9.7,7.9c0.9,0.7,1.7,1.4,2.5,2.1c-1.2,1.5-2.3,3-3.3,4.4c-0.9-0.8-1.8-1.5-2.7-2.3
						c-3.1-2.6-6.3-5.1-9.6-7.8c-2.1-1.6-4.2-3.3-6.3-5c-5.4-4.4-11.2-9.3-16.8-15.1c-6.1-6.4-11-13.1-14.6-20
						c-2.9-5.6-5.2-11.8-6.7-18.2C-77.3,32.4-75.5,32.3-73.6,32.2z"/>
				</g>
				<g>
					<path fill="#FFFFFF" d="M14.3,118.4c2.9,6,5,12.3,6.2,18.7c0.2,0.7,0.3,1.4,0.4,2c0,0.2,0.1,0.5,0.1,0.7l0.8,5.1
						c0,0.1,0,0.1,0,0.2l0.2,2.6c0,0.6,0.1,1.2,0.1,1.8c0.1,1.1,0.2,2.3,0.2,3.4c0,0,0,0.1,0,0.1l0,5.2c0,0.3,0,0.6,0,0.9
						c0,0.6,0,1.3,0,2l-0.3,4.7l-5.5-0.4l0.3-4.7c0-0.5,0-1.1,0-1.6c0-0.3,0-0.7,0-1l0-5.1c0-1.1-0.1-2.1-0.2-3.2
						c0-0.6-0.1-1.2-0.1-1.8l-0.2-2.5l-0.7-5c0-0.3-0.1-0.5-0.1-0.8c-0.1-0.5-0.1-1-0.3-1.5c0-0.1,0-0.1,0-0.2c-1-5-2.5-10-4.6-14.8
						C11.6,121.8,12.9,120.2,14.3,118.4z"/>
					<path fill="#FFFFFF" d="M-63,30.3l1.4-0.3c0,0,0.1,0,0.1,0c1.1,4.4,2.7,8.5,4.8,12.4c2.8,5.4,6.8,10.8,11.7,16
						C-38.5,65.1-31,71-23.7,76.7c3.3,2.6,6.7,5.4,10.1,8.1c0.8,0.7,1.6,1.3,2.3,2c-1.2,1.4-2.3,2.8-3.5,4.2c-0.8-0.7-1.5-1.3-2.3-2
						c-3.2-2.7-6.6-5.4-9.9-8c-7.4-5.9-15-11.9-21.7-18.9c-5.3-5.6-9.6-11.4-12.6-17.2c-2.3-4.3-4-8.9-5.3-13.7
						C-65.5,30.9-64.2,30.6-63,30.3z"/>
				</g>
				<g>
					<path fill="#FFFFFF" d="M22.2,108.9c0.2-0.3,0.4-0.5,0.7-0.8c0.6,1.1,1.2,2.2,1.7,3.2c3.8,7.5,6.5,15.3,8,23.3
						c0.2,0.8,0.3,1.6,0.4,2.3c0,0.3,0.1,0.5,0.1,0.8l0.9,5.8c0,0.1,0,0.1,0,0.2l0.2,2.9c0,0.6,0.1,1.2,0.1,1.8
						c0.1,1.4,0.2,2.7,0.3,4.1c0,0,0,0.1,0,0.1v5.8c0,0.3,0,0.7,0,1c0,0.7,0,1.4,0,2.2l-0.2,3l-5.5-0.4l0.2-2.9c0-0.6,0-1.2,0-1.9
						c0-0.4,0-0.7,0-1v-5.7c-0.1-1.3-0.1-2.6-0.2-3.8c0-0.6-0.1-1.2-0.1-1.8l-0.2-2.8l-0.8-5.7c0-0.3-0.1-0.6-0.1-0.9
						c-0.1-0.6-0.2-1.2-0.3-1.8c0-0.1,0-0.1,0-0.2c-1.5-7.5-4-14.9-7.6-21.9c-0.2-0.4-0.4-0.8-0.6-1.2
						C20.1,111.4,21.2,110.2,22.2,108.9z"/>
					<path fill="#FFFFFF" d="M-52.1,27c0.8-0.3,1.6-0.6,2.4-0.9c0.9,3.8,2.2,7.3,4,10.6c2.3,4.4,5.5,8.8,9.7,13.2
						c5.6,5.9,12.5,11.4,19.8,17.2c3.4,2.7,6.9,5.5,10.4,8.4c0.8,0.7,1.6,1.4,2.4,2c-1.1,1.4-2.3,2.8-3.5,4.2
						c-0.8-0.7-1.6-1.3-2.4-2c-3.4-2.9-6.9-5.6-10.3-8.3c-7.5-5.9-14.5-11.6-20.4-17.7c-4.6-4.8-8.1-9.5-10.6-14.4
						c-1.8-3.5-3.2-7.2-4.3-11.2C-53.9,27.7-53,27.4-52.1,27z"/>
				</g>
			</g>
			<g>
				<path fill="#FFFFFF" d="M-202.8-52.3c-6.5,1.8-13.2,3.6-20.1,5.1c-8.5,1.9-15.6,3.1-22.4,3.8c-8.1,0.8-16.2,0.9-23.9,0.1
					c-2.6-0.3-5.4-0.7-8.2-1.2l1-5.4c2.7,0.5,5.3,0.9,7.7,1.1c7.4,0.7,15,0.7,22.8-0.1c6.6-0.6,13.5-1.8,21.8-3.7
					c6.5-1.5,12.8-3.2,18.9-4.8l0.5,0.7c0.6,0.8,1.2,1.8,1.8,2.8c0.3,0.4,0.6,0.9,0.8,1.3c0,0,0,0,0,0L-202.8-52.3z"/>
				<path fill="#FFFFFF" d="M-128.8-52l0.8,0.4c6.1,2.6,12.5,5.2,19.2,7.6c8.4,2.9,15.5,4.5,22.5,5.2l6.2,0.3c2.2,0,4.1-0.1,5.9-0.2
					c4.2-0.3,8.2-1,12.1-2c9.8-2.6,16.2-6.7,23.4-13.4c0.8-0.7,1.5-1.5,2.3-2.2c-0.6,3.3-1.3,6.3-2,9.3c-6.5,5.6-13,9.3-22.3,11.8
					c-4.1,1.1-8.5,1.8-13,2.2c-1.9,0.2-3.8,0.2-6.1,0.2c-0.2,0-0.3,0-0.5,0l-6.3-0.3c0,0-0.1,0-0.1,0c-7.4-0.7-15-2.5-23.8-5.5
					c-6.9-2.4-13.4-5.1-19.6-7.7l-0.8-0.4c-5.6-2.4-12.2-5.1-18.4-7.1c-3.5-1.2-6.6-2-9.5-2.7c-0.7-1.4-1.4-2.7-2.2-4.1
					c-0.4-0.7-0.8-1.4-1.1-2.1c4.2,0.7,8.8,1.9,14.5,3.7C-141.2-57.2-134.5-54.5-128.8-52z"/>
				<path fill="#FFFFFF" d="M-225.7-59.2c-16.5,3.7-29.9,4.9-42.4,3.6c-3.2-0.3-6.5-0.9-10.1-1.6l1.2-5.4c3.4,0.7,6.5,1.2,9.5,1.5
					c11.8,1.2,24.7,0.1,40.6-3.5c4.3-1,8.6-2.1,12.9-3.2c1.5,1.4,2.9,2.9,4.3,4.6C-215-61.8-220.3-60.4-225.7-59.2z"/>
				<path fill="#FFFFFF" d="M-34.4-69.7c0,0.1,0,0.3,0,0.4c-8,11.8-17,18.5-29.4,21.8c-6.9,1.8-14.2,2.4-21.7,1.7
					c-6.4-0.6-13.1-2.2-20.9-4.9c-6.4-2.2-12.7-4.8-18.8-7.4c-6.5-2.7-13.3-5.6-20.1-7.8c-7.9-2.6-14-4-19.7-4.5c-0.1,0-0.1,0-0.2,0
					c-0.3-0.1-0.6-0.1-1-0.1c-0.5-0.8-1-1.7-1.5-2.5l-0.1-0.2c-0.4-0.6-0.8-1.2-1.2-1.8c-0.2-0.4-0.5-0.8-0.7-1.1l2.7,0.1
					c0.8,0,1.7,0.1,2.6,0.2c6.2,0.6,12.6,2,20.9,4.7c7,2.3,13.9,5.2,20.5,8c6,2.5,12.2,5.1,18.5,7.3c7.4,2.5,13.7,4,19.7,4.6
					c6.9,0.6,13.5,0.1,19.8-1.5c9.9-2.6,22.2-9.2,31.2-27.1c0.3-0.5,0.5-1.1,0.7-1.6C-33.6-77.4-34-73.4-34.4-69.7z"/>
				<path fill="#FFFFFF" d="M-266.8-67.9c-3-0.3-6.1-0.8-9.6-1.6l1.2-5.4c3.3,0.7,6.2,1.2,8.9,1.5c10.4,1.1,22.1,0,36.6-3.3
					c0.7-0.2,1.4-0.3,2-0.5c2,0.9,3.9,1.9,5.7,3.1c0.4,0.3,0.9,0.6,1.3,0.9c-2.6,0.7-5.2,1.3-7.8,1.9
					C-243.5-67.8-255.7-66.8-266.8-67.9z"/>
				<path fill="#FFFFFF" d="M-79.8-57.9c-0.1,0-0.3,0-0.4,0c-1.4-0.1-2.7-0.1-4.1-0.2c-0.1,0-0.1,0-0.2,0
					c-5.4-0.5-11.3-1.9-18.1-4.2c-5.7-1.9-11.5-4.4-17.6-6.9c-6.8-2.9-13.9-5.8-21.5-8.4c-3-1-6.4-2-10.8-3.1l-5.7-1.2l-6-0.8
					c-0.8-0.1-1.6-0.2-2.6-0.2l-3.2-0.1c-0.4,0-0.7,0-1.1,0c-0.6,0-1.2-0.1-1.8,0c-0.4,0-0.7,0-1.1,0c-0.3,0-0.5,0-0.8,0l-1.9-2.5
					c-0.7-0.9-1.4-1.8-2.2-2.7c0.8-0.1,1.6-0.1,2.4-0.2c0.8-0.1,1.6-0.1,2.4-0.1c0.3,0,0.7,0,1,0c0.9,0,1.6,0,2.3,0c0.3,0,0.6,0,1,0
					l3.3,0.1c1,0,2.1,0.1,3.1,0.3l6,0.8c0.1,0,0.1,0,0.2,0l5.8,1.2c0,0,0.1,0,0.1,0c4.6,1.1,8.2,2.2,11.3,3.2
					c7.8,2.6,14.9,5.6,21.9,8.5c6,2.5,11.7,4.9,17.2,6.8c6.4,2.2,11.8,3.5,16.8,4c1.3,0.1,2.7,0.1,4,0.2c23.3,0.1,40.1-17.2,40.1-49
					v-7.1v-50h5.5v50v7.1C-34.4-77.5-53.1-57.9-79.8-57.9z"/>
			</g>
			<g>
				<path fill="#FFFFFF" d="M-231.3,34.3c0.9-0.8,1.9-1.7,2.8-2.4l5.2-4.1c0,0,0.1-0.1,0.1-0.1l3.2-2.2c2.1-1.6,4.4-3,6.5-4.3
					c0.8-0.5,1.6-1,2.4-1.5c0,0,0.1,0,0.1-0.1c6.5-3.6,12.9-6.4,19.1-8.3c6.6-2.1,13.4-3.3,20.3-3.6c6.6-0.4,13.4,0,21,1.2
					c7.7,1.2,15.2,3,21.6,4.6c0.4,0.1,0.7,0.2,1.1,0.3c-0.1,1.8-0.2,3.7-0.3,5.6c-0.7-0.2-1.5-0.4-2.2-0.6c-6.2-1.6-13.6-3.4-21-4.5
					c-7.2-1.1-13.7-1.5-19.9-1.1c-6.4,0.3-12.8,1.5-18.9,3.4c-5.8,1.8-11.9,4.5-18,7.9c-0.8,0.5-1.6,1-2.4,1.5
					c-2.1,1.3-4.2,2.5-6.2,4l-3.2,2.2l-5.2,4.1c-0.8,0.6-1.7,1.3-2.5,2.1c-0.4,0.4-0.8,0.7-1.2,1.1l-1.3,1.1l-3.6-4.1l1.3-1.2
					C-232,35-231.7,34.7-231.3,34.3z"/>
				<path fill="#FFFFFF" d="M-81.5,22.2l1.7,0c0.3,0,0.6,0,1,0l4.1-0.3c0.6,0,1.3-0.1,2.1-0.2c0.4-0.1,0.8-0.1,1.1-0.2
					c0.4-0.1,0.8-0.1,1.2-0.2c0.7-0.1,1.4-0.2,2.1-0.3l5.1-1.2l1.5-0.4c1.2-0.4,2.1-0.6,3-0.9c1-0.3,2-0.7,3-1.1
					c4.3-1.6,8.3-3.5,11.9-5.7c3.9-2.3,7.6-5.2,10.8-8.4c3.9-3.8,8-9.4,11.6-15.6c-0.4,3.2-0.9,6.4-1.5,9.5
					c-0.2,1.2-0.5,2.4-0.8,3.7c-1.7,2.2-3.5,4.3-5.6,6.4c-3.6,3.5-7.5,6.7-11.8,9.2c-3.9,2.3-8.2,4.4-12.8,6.1
					c-1.1,0.4-2.2,0.8-3.2,1.1c-1,0.3-2,0.6-3.2,1l-1.6,0.5c0,0-0.1,0-0.1,0l-5.2,1.2c-0.9,0.2-1.7,0.3-2.5,0.4
					c-0.4,0.1-0.7,0.1-1.2,0.2c-0.4,0-0.7,0.1-1.1,0.2c-0.8,0.1-1.7,0.3-2.5,0.3l-4,0.3c-0.4,0-0.9,0.1-1.3,0.1l-1.7,0
					c0,0-0.1,0-0.1,0c-2.2,0-4.4-0.1-6.6-0.2c-0.1-1.9-0.1-3.8-0.1-5.5C-86,22.1-83.8,22.2-81.5,22.2
					C-81.5,22.2-81.5,22.2-81.5,22.2z"/>
				<path fill="#FFFFFF" d="M-239.3,24.9c1-0.9,2-1.8,3.1-2.6l5.7-4.5c0,0,0.1-0.1,0.1-0.1l3.5-2.4c2.4-1.8,5-3.4,7.5-4.9
					c0.8-0.5,1.6-1,2.4-1.5c0,0,0.1,0,0.1-0.1c7.3-4.1,14.5-7.2,21.6-9.4c7.5-2.4,15.4-3.8,23.3-4.2c7.4-0.4,15.1,0,23.5,1.3
					c7.5,1.1,15,2.9,22.3,4.7c-0.3,1.8-0.6,3.6-0.8,5.5c-7.3-1.9-14.8-3.6-22.3-4.8c-8-1.2-15.3-1.6-22.4-1.2
					c-7.4,0.4-14.8,1.7-21.9,3.9c-6.7,2.1-13.6,5.1-20.5,8.9c-0.8,0.5-1.6,1-2.4,1.5c-2.5,1.5-4.8,2.9-7.1,4.6l-3.5,2.4l-5.6,4.4
					c-0.9,0.7-1.8,1.5-2.8,2.3c-0.4,0.4-0.8,0.8-1.3,1.1l-4.1,3.6l-3.6-4.1l4.2-3.6C-240.1,25.6-239.7,25.3-239.3,24.9z"/>
				<path fill="#FFFFFF" d="M-19.9-38l-0.1,5.1c-3.2,12-9.9,24.2-17.6,31.4C-43.2,3.8-50.1,7.9-58,10.9c-0.9,0.4-1.9,0.7-2.8,1
					c-0.8,0.3-1.7,0.6-2.9,0.9l-1.4,0.4c-0.1,0-0.1,0-0.2,0l-4.2,1c-0.7,0.2-1.4,0.3-2.1,0.4c-0.3,0-0.6,0.1-0.9,0.1
					c0,0-0.1,0-0.1,0c-0.3,0-0.6,0.1-0.9,0.1c-0.7,0.1-1.4,0.2-2.1,0.2l-3.4,0.2c-0.4,0-0.7,0.1-1.1,0.1l-1.4,0
					c-2.1,0-4.3-0.1-6.5-0.3c0.2-1.8,0.4-3.7,0.7-5.5c2,0.1,3.9,0.2,5.7,0.2c0,0,0.1,0,0.1,0l1.4,0c0.2,0,0.5,0,0.7,0
					c0.2,0,0.4,0,0.5,0l2.9-0.2c0.5,0,1-0.1,1.6-0.2c0.3-0.1,0.7-0.1,1-0.2c0.3-0.1,0.7-0.1,1-0.1c0.6-0.1,1.1-0.1,1.6-0.3l4.1-1
					l1.3-0.4c1.1-0.3,1.9-0.6,2.6-0.8c0,0,0.1,0,0.1,0c0.9-0.3,1.7-0.6,2.6-0.9C-52.7,3-46.4-0.7-41.4-5.5
					c11-10.4,17.2-28.3,21.5-45.6v6.5c0,0.8,0,1.6,0,2.4C-19.9-40.8-19.9-39.3-19.9-38z"/>
				<path fill="#FFFFFF" d="M-147.7-10.1c-8.7-1.3-17.1-1.8-24.9-1.4C-181-11-189.4-9.5-197.5-7c-7.5,2.3-15.3,5.7-23,10
					c-0.8,0.5-1.5,0.9-2.3,1.4c-2.7,1.7-5.5,3.4-8.1,5.3l-3.8,2.7l-6.1,4.8c-1,0.8-2,1.6-3,2.5c-0.4,0.4-0.9,0.8-1.3,1.1l-2.4,2.1
					l-3.6-4.1l2.5-2.2c0.4-0.4,0.9-0.7,1.3-1.1c1.1-0.9,2.1-1.9,3.3-2.8L-238,8c0,0,0.1-0.1,0.1-0.1l3.8-2.7c2.7-2,5.6-3.8,8.5-5.5
					c0.8-0.5,1.6-0.9,2.3-1.4c0,0,0.1,0,0.1-0.1c8-4.5,16.1-8.1,24.1-10.5c8.5-2.7,17.3-4.2,26.3-4.7c8.1-0.4,16.9,0,26,1.4
					c8.1,1.2,15.8,3,23.2,4.9c-0.5,1.8-1,3.5-1.4,5.3C-132.3-7.2-139.9-8.9-147.7-10.1z"/>
				<path fill="#FFFFFF" d="M-28.1-46.1c-0.1,0.5-0.2,0.9-0.4,1.4c-0.3,1.2-0.6,2.5-1,3.7l-0.7,2.5c0,0,0,0.1,0,0.1l-0.8,2.4
					c-0.4,1.2-0.8,2.3-1.2,3.4c-0.2,0.5-0.4,1-0.6,1.6c-0.2,0.5-0.4,1-0.6,1.5c-0.1,0.3-0.2,0.6-0.4,0.8c-0.4,0.9-0.8,1.7-1.1,2.4
					c-3,6.3-6.8,11.7-11.2,15.8c-4.4,4.2-9.8,7.4-16.3,9.8c-0.8,0.3-1.6,0.6-2.3,0.8l-0.1,0c-0.9,0.3-1.8,0.6-2.5,0.8l-1.2,0.4
					c-0.1,0-0.1,0-0.2,0l-3.2,0.7c-0.6,0.1-1.2,0.2-1.7,0.3c-0.2,0-0.5,0.1-0.7,0.1c0,0-0.1,0-0.1,0c-0.2,0-0.5,0.1-0.7,0.1
					c-0.5,0.1-1.1,0.2-1.7,0.2l-2.7,0.2c-0.3,0-0.6,0-1,0l-1.2,0c-1.4,0-2.9,0-4.4-0.1c0.5-1.9,1-3.7,1.6-5.4c1,0,1.9,0.1,2.9,0.1
					l1.1,0c0.2,0,0.4,0,0.5,0c0.2,0,0.3,0,0.5,0l2.4-0.1c0.3,0,0.7-0.1,1.1-0.1c0.3,0,0.6-0.1,0.9-0.1c0.3,0,0.6-0.1,0.9-0.1
					c0.4,0,0.8-0.1,1.1-0.2l3.2-0.7l1.1-0.3c0.6-0.2,1.4-0.4,2.3-0.7l0.1,0c0.7-0.2,1.4-0.5,2.1-0.7c5.9-2.2,10.6-5,14.5-8.7
					c3.9-3.7,7.2-8.4,10-14.3c0.3-0.6,0.6-1.2,0.9-2c0.1-0.3,0.3-0.6,0.4-0.9c0.2-0.4,0.4-0.9,0.5-1.3c0.2-0.5,0.4-1.1,0.6-1.6
					c0.4-1,0.8-2,1.1-3.1l0.8-2.4l0.7-2.5c0.3-1.1,0.6-2.3,0.9-3.5c0.1-0.5,0.2-1,0.4-1.4c1.5-6.3,2.7-13.1,3.7-20.9
					c1.5-12.8,2.3-26.8,2.3-44.1v-7v-50h5.5v50v7c0,17.5-0.8,31.7-2.3,44.8C-25.3-59.6-26.5-52.6-28.1-46.1z"/>
			</g>
			<g>
				<path fill="#FFFFFF" d="M-9.8-26.7c0,0,0,0.1,0,0.1l-0.4,7.1c-0.5,6-1.2,12.3-2.5,18.6l-0.4,2.3c-0.1,0.5-0.2,1-0.3,1.5
					l-0.2,0.8c-0.1,0.5-0.3,1.1-0.4,1.6c-0.2,1-0.4,1.9-0.7,2.9l-1.2,4.4c-0.3,1-0.6,2-0.9,3c-0.2,0.5-0.3,1-0.5,1.6
					c-2.1,6.2-4.3,12-6.9,17.5c-2.1,4.5-4.3,8.9-6.7,13.3c-1.5-1.5-2.8-2.9-4-4.2c2-3.8,3.9-7.6,5.6-11.4c2.5-5.4,4.7-10.9,6.6-16.9
					c0.2-0.6,0.3-1.1,0.5-1.6c0.3-0.9,0.6-1.8,0.8-2.7l1.2-4.4c0.2-0.9,0.4-1.8,0.7-2.7c0.1-0.6,0.3-1.1,0.4-1.7l0.2-0.8
					c0.1-0.4,0.2-0.9,0.3-1.3l0.4-2.3c1.2-6.1,1.9-12.3,2.4-18l0.4-6.9l0.1-7c0-1,0-2,0-3.1c0-0.6,0-1.2,0-1.8v-3.7v-127h5.5v127
					v3.7c0,0.6,0,1.2,0,1.8c0,1.1,0,2.2,0,3.2L-9.8-26.7z"/>
				<path fill="#FFFFFF" d="M-0.5,1.4L-1,3.9C-1.1,4.5-1.2,5-1.4,5.6l-0.2,0.9C-1.7,7-1.8,7.6-2,8.1c-0.2,1.1-0.5,2.1-0.8,3.3
					l-1.3,4.8c-0.3,1.1-0.6,2.2-1,3.2c-0.2,0.5-0.4,1.1-0.5,1.7C-7.8,27.7-10.3,34-13,39.9c-2.6,5.6-5.5,11.2-8.4,16.6
					c-1.1-0.9-2.1-1.8-3.1-2.7c-0.4-0.3-0.8-0.7-1.1-1c2.7-5,5.4-10.1,7.7-15.3c2.7-5.7,5.1-11.9,7.1-18.2c0.2-0.6,0.4-1.2,0.6-1.7
					c0.3-1,0.6-2,0.9-3l1.3-4.8c0.3-1,0.5-2,0.7-3.1c0.1-0.6,0.3-1.2,0.4-1.7l0.2-0.9c0.1-0.5,0.2-1,0.3-1.5l0.5-2.5
					C-4.6-6.3-3.8-13.2-3.3-19c0.4-6.1,0.6-12.5,0.6-19.7v-3.7v-127h5.5v127v3.7c0,7.3-0.2,13.9-0.6,20.2C1.6-12.6,0.9-5.5-0.5,1.4z
					"/>
				<path fill="#FFFFFF" d="M15.1-33.7L15-25.8c0,0,0,0.1,0,0.1l-0.5,8c-0.6,6.4-1.3,13.9-2.9,21.4l-0.5,2.7
					c-0.1,0.6-0.3,1.2-0.4,1.8l-0.2,0.9c-0.1,0.6-0.3,1.1-0.4,1.7c-0.3,1.2-0.5,2.4-0.9,3.6l-1.4,5.2c-0.3,1.2-0.7,2.4-1.1,3.5
					c-0.2,0.6-0.4,1.2-0.6,1.8c-2.3,7-5,13.8-7.9,20.2c-3.1,6.7-6.4,13.1-9.9,19.3c-0.6-0.5-1.2-0.9-1.7-1.4
					c-0.9-0.7-1.8-1.4-2.6-2.1c3.2-5.9,6.4-11.9,9.3-18.2c2.8-6.1,5.4-12.7,7.7-19.5c0.2-0.6,0.4-1.2,0.6-1.8c0.4-1.1,0.7-2.2,1-3.2
					l1.4-5.1c0.3-1.1,0.6-2.3,0.8-3.4C4.9,9.1,5,8.5,5.1,7.9L5.4,7c0.1-0.6,0.3-1.1,0.4-1.6l0.5-2.7C7.7-4.6,8.5-11.9,9-18l0.5-7.9
					l0.2-7.9c0-1.1,0-2.2,0-3.2c0-0.6,0-1.2,0-1.8v-3.7v-127h5.5v127v3.7c0,0.6,0,1.2,0,1.8C15.2-35.9,15.2-34.8,15.1-33.7z"/>
			</g>
			<g>
				<path fill="#FFFFFF" d="M70.2,93.7c0.9-3.8,2-7.5,3.2-11.2c1.7,0.8,3.4,1.6,5,2.4c-1,3.4-2,6.8-2.8,10.1c-1.6,6.4-2.5,12.3-3,18
					c-0.9,11.5-0.1,23.9,2.6,36.9c0.4,2.3,1,4.6,1.5,6.8l-5.4,1.3c-0.5-2.2-1.1-4.6-1.5-7c-2.7-13.5-3.6-26.5-2.6-38.4
					C67.6,106.5,68.6,100.3,70.2,93.7z"/>
				<path fill="#FFFFFF" d="M58.2,90.7c1.1-4.6,2.5-9.1,3.9-13.5c1.2,0.5,2.3,1.1,3.5,1.6l0.2,0.1c0.5,0.2,0.9,0.4,1.4,0.6
					c-1.3,4.1-2.5,8.3-3.6,12.5c-1.7,7-2.8,13.5-3.3,19.9c-1,12.6-0.1,26.2,2.7,40.4c0.5,2.8,1.2,5.6,1.8,8.3l0.6,2.3l-5.4,1.3
					l-0.5-2.3c-0.7-2.8-1.3-5.6-1.9-8.5c-3-14.7-3.9-28.7-2.8-41.9C55.3,104.8,56.4,98,58.2,90.7z"/>
				<path fill="#FFFFFF" d="M51.7-12c1.6,1.7,3.2,3.4,4.8,5.1c2.5,2.7,4.8,5.4,6.9,8.1c2.4,3.2,4.3,6.2,5.8,9
					c3.3,6.1,5.5,13,6.5,20.5c0.4,2.9,0.6,6,0.5,9.1c-1.9-0.9-3.8-1.7-5.5-2.6c-0.1-2-0.2-3.9-0.5-5.8c-1-6.8-2.9-13.1-5.9-18.7
					c-1.4-2.6-3.2-5.3-5.4-8.3c-2-2.5-4.2-5.1-6.6-7.7c-1.6-1.7-3.2-3.4-4.8-5.1c-3.1-3.3-6.4-6.6-9.3-10.2
					c-9-10.8-15-22.4-18.4-33.6v-15.9c5,18.3,11.5,32.9,22.6,45.9C45.5-18.5,48.6-15.2,51.7-12z"/>
				<path fill="#FFFFFF" d="M46.2,87.8c1.3-5.5,2.9-10.8,4.6-15.9c1.7,0.8,3.3,1.6,5,2.4c-1.5,4.8-3,9.7-4.2,14.8
					c-1.8,7.6-3.1,14.9-3.6,21.9c-1.1,13.8-0.2,28.5,2.9,43.8c0.5,2.7,1.1,5.4,1.8,8.1l-5.3,1.3c-0.7-2.8-1.3-5.5-1.8-8.3
					c-3.2-15.8-4.2-31-3-45.3C43,103.3,44.3,95.6,46.2,87.8z"/>
				<path fill="#FFFFFF" d="M47.7,1.6C50,4,52,6.3,53.9,8.8c2,2.7,3.5,5,4.8,7.4c1.2,2.4,2.4,5,3.2,7.8c0.8,2.3,1.4,5,1.9,8.5
					c0.1,0.5,0.1,0.9,0.2,1.4c-2.1-1-4.1-2.1-6-3.1c-0.4-2-0.8-3.6-1.3-5.1c0,0,0-0.1,0-0.1c-0.7-2.4-1.8-4.8-2.8-6.8
					c-1.1-2-2.5-4.1-4.3-6.5c-1.8-2.3-3.7-4.5-5.8-6.8c-1.5-1.6-3-3.2-4.6-4.8c-10.6-11.1-17-20.3-19.4-26.7c0.1-2.4,0.1-8,0.2-10.8
					C25.3-24.3,30-17,43.1-3.3C44.7-1.6,46.3,0,47.7,1.6z"/>
				<path fill="#FFFFFF" d="M88.7,42.1c-0.1,1.1-0.1,2.3-0.2,3.4c-1.8-0.8-3.6-1.7-5.3-2.5c0-0.4,0.1-0.8,0.1-1.1
					c0.1-4.1-0.1-8.2-0.6-12c-0.7-4.5-1.5-8.2-2.6-11.7c-1-3.4-2.5-7-4.6-11.1c-1.7-3.2-3.8-6.5-6.5-10c-2.2-2.8-4.7-5.7-7.3-8.5
					c-1.7-1.8-3.4-3.6-5-5.3c-3.1-3.3-6.1-6.4-8.8-9.6c-4.5-5.3-8.1-10.3-10.8-15.3c-2.9-5.2-5.4-11-7.5-17.2
					c-1.8-5.4-3.2-11.5-4.5-18.7c-2-12-3-25-3-39.5v-2.3v-50h5.5v50v2.3c0,14.2,0.9,26.9,2.9,38.6c1.2,7,2.7,12.8,4.3,18
					c1.9,5.9,4.3,11.3,7,16.2c2.6,4.7,5.9,9.4,10.2,14.4c2.6,3.1,5.5,6.1,8.6,9.3c1.6,1.7,3.3,3.5,5.1,5.3c2.8,3,5.3,6,7.6,8.9
					c2.8,3.8,5.1,7.3,7,10.8c2.3,4.5,4,8.4,5,12.1c1.2,3.7,2.1,7.7,2.8,12.6C88.6,33.2,88.8,37.6,88.7,42.1z"/>
			</g>
			<g>
				<path fill="#FFFFFF" d="M86.9-35.2c1.4,0.2,2.9,0.3,4.2,0.4c0.7,0,1.3,0.1,2,0.1c1.3,0.1,2.5,0.2,3.7,0.2l2.9,0.1
					c1,0,1.8,0,2.8,0c0.6,0,1.2,0,1.8-0.1c1.3,0,2.7-0.1,4-0.2c7.1-0.5,14.7-1.7,22.5-3.8c6.8-1.8,13.6-4.2,21-7.4
					c11.8-5,22.8-11,33.4-16.8c1.6-0.9,3.2-1.7,4.8-2.6c12.3-6.7,24.4-13,36.5-17.4c13-4.8,25.6-6.9,37.5-6.4c0.6,0,1.2,0.1,1.8,0.1
					c1,0.1,2,0.1,3.1,0.2l3,0.4l-0.7,5.5l-2.9-0.4c-0.9-0.1-1.8-0.2-2.8-0.2c-0.6,0-1.3-0.1-1.8-0.1c-11-0.5-22.9,1.6-35.2,6.1
					c-11.8,4.3-23.6,10.5-35.8,17.1c-1.6,0.9-3.2,1.7-4.8,2.6C177.1-52,166-45.9,154-40.8c-7.6,3.3-14.8,5.8-21.8,7.7
					c-8.1,2.2-16.1,3.5-23.6,4c-1.4,0.1-2.8,0.1-4.2,0.2c-0.6,0-1.2,0-1.8,0.1c-1.1,0-2,0-3.1,0l-2.9-0.1c-1.3,0-2.7-0.1-4-0.2
					c-0.6,0-1.3-0.1-2-0.1c-1.5-0.1-2.9-0.3-4.4-0.4l-1.5-0.2c-16.9-2.2-28.9-7.8-36.7-13.3l0,0l-0.6-1c-0.8-1.3-1.5-2.5-2.1-3.7
					l-0.2-0.3c-0.6-1-1.1-2.1-1.7-3.3c-0.3-0.5-0.5-1.1-0.8-1.6c-0.2-0.4-0.3-0.8-0.5-1.2c10.1,9.1,23.2,16.4,43.2,19L86.9-35.2z"/>
				<path fill="#FFFFFF" d="M87.1-47.6c6.7,0.8,13.5,1.1,20.4,0.7c12.3-0.8,25.2-4.2,39.5-10.3c11.2-4.8,22.1-10.7,32.7-16.5
					l4.4-2.4c13.2-7.2,25.2-13.5,38.2-18.2c7.1-2.6,14-4.5,20.6-5.6c7.2-1.3,14.4-1.8,21.5-1.5c0.6,0,1.3,0.1,1.9,0.1
					c1.2,0.1,2.4,0.1,3.7,0.3l5.5,0.7l-0.7,5.5l-5.4-0.7c-1.1-0.1-2.2-0.2-3.4-0.3c-0.7,0-1.3-0.1-1.9-0.1
					c-6.7-0.3-13.5,0.2-20.3,1.4c-6.3,1.1-12.9,2.9-19.7,5.4c-12.6,4.6-24.4,10.8-37.4,17.9l-4.4,2.4c-10.7,5.8-21.7,11.9-33.2,16.7
					c-14.9,6.4-28.4,9.9-41.3,10.7c-7.2,0.4-14.4,0.2-21.4-0.7c-24.1-3.2-38.8-13.1-48.9-26.4c-0.9-3.6-1.7-7.3-2.4-11.3
					c-0.1-0.7-0.2-1.4-0.3-2.1c0,0,0-0.1,0-0.1C44.6-64.1,60.8-51.1,87.1-47.6z"/>
				<path fill="#FFFFFF" d="M270.6-107.9c-1.3-0.1-2.7-0.2-4.1-0.3c-0.7,0-1.4-0.1-2-0.1c-7.6-0.3-15.3,0.2-23,1.6
					c-7,1.2-14.3,3.2-21.8,6c-14.4,5.3-27.5,12.4-39.1,18.6l-4,2.2c-11.2,6.1-21.7,11.8-32.5,16.5c-13.6,5.8-25.7,9-37.2,9.7
					c-0.9,0.1-1.9,0.1-2.8,0.1c-0.6,0-1.2,0-1.7,0.1c-0.9,0-1.8,0-2.5,0l-2.3,0c-1,0-2.1-0.1-3.1-0.2c-0.6,0-1.1-0.1-1.8-0.1
					c-1-0.1-2-0.2-3-0.3c-0.5-0.1-1.1-0.1-1.7-0.2c-6.4-0.9-12.4-2.4-18-4.5c-22.9-9.2-35.5-28.6-35.5-52.2v-8.3v-50h5.5v50v8.3
					C39.9-90,50.4-72.7,72-64c5.1,2,10.7,3.4,16.6,4.2c0.6,0.1,1.1,0.1,1.7,0.2c1,0.1,1.9,0.2,2.8,0.3c0.6,0,1.2,0.1,1.8,0.1
					c1,0.1,1.9,0.1,2.8,0.1l2.4,0c0.7,0,1.4,0,2.1,0c0.6,0,1.2,0,1.9-0.1c0.9,0,1.8,0,2.6-0.1c10.9-0.7,22.4-3.8,35.4-9.3
					c10.6-4.5,21-10.2,32.1-16.2l4-2.2c11.7-6.4,25-13.5,39.8-18.9c7.8-2.8,15.4-4.9,22.7-6.2c8.1-1.4,16.2-2,24.2-1.7
					c0.7,0,1.3,0.1,2,0.1c1.4,0.1,2.9,0.2,4.4,0.3l3.8,0.5l-0.7,5.5L270.6-107.9z"/>
			</g>
		</g>
	</g>
</symbol>
<symbol  id="_x7E__White_Bar" viewBox="-2.3 -119.4 4.7 238.8">
	<g>
		<polygon fill="#FFFFFF" points="2.3,-119.4 -2.3,-119.4 -2.3,0 2.3,0 		"/>
	</g>
	<g>
		<polygon fill="#FFFFFF" points="2.3,0 -2.3,0 -2.3,119.4 2.3,119.4 		"/>
	</g>
</symbol>
<symbol  id="_x7E__Wordmark_Black" viewBox="-0.4 -59.6 248.1 124">
	<g>
		<path d="M237.6-53h0.2v-5.9h9.9v3.7h-5.5v44.8H232V-14h5.5v-6c0-1.7,0-8.4,0.2-11.7h-0.2c-2.1,4.4-6.1,6.6-11.2,6.6
			c-8.2,0-14.8-6.8-14.8-17.2c0-10.6,6.4-17.3,14.6-17.3C231.2-59.6,235.5-57.4,237.6-53 M237.6-42.7c0-8.2-4.7-12.9-10.6-12.9
			c-5.9,0-10.6,4.9-10.6,13.3c0,8.2,4.7,13.3,10.6,13.3c5.9,0,10.6-4.9,10.6-13.3V-42.7z M193.6-55.1v-3.7h15.1v3.7h-5.3v16.5
			c0,10-5.3,13.5-11.8,13.5c-4.7,0-8.7-2-10.7-6.1h-0.2v5.4H171v-3.7h5.3v-25.6H171v-3.7h15.1v3.7h-5.2v13.5c0,8,4.3,12.6,9.8,12.6
			c4.9,0,8.2-2.7,8.2-10.2v-15.9H193.6z M150-25.1c-7.8,0-12.7-4.6-12.9-11.6h4.4c0.2,5.1,3.4,7.8,8.5,7.8c5,0,7.7-2.8,7.8-7.8
			c0-1.7-1.1-2.2-4.4-2.8l-7.1-1.3c-7.3-1.2-10.5-4.4-10.5-9.8s4-9.1,10.8-9.1c5.3,0,9.4,2.2,11.3,6.1h0.3v-5.3h9.4v3.7h-5.1v18
			C162.5-29.5,158.1-25.1,150-25.1 M157.9-41.1v-3.6c0-7.7-4.9-11-10.4-11c-4.7,0-7.1,2.3-7.1,5.7c0,3.3,2,5.4,6.7,6.1l6.9,1.2
			C155.8-42.5,157.1-42,157.9-41.1 M127.7-10.3h-10.1V-14h5.5v-41.1h-5.5v-3.7h15.6v3.7h-5.5V-10.3z M115.4-55.1h-4.6L100-41.7
			L111-29.5h4.1v3.7h-14.6v-3.6h5.1L94.6-41.8v-0.1l13.5-16.9h7.4V-55.1z M92.4-10.3h-9.9V-14h5.3v-41.1h-5.3v-3.7h15.1v3.7h-5.2
			V-10.3z M61.8-25.1c-7.8,0-12.7-4.6-12.9-11.6h4.4c0.2,5.1,3.4,7.8,8.5,7.8c5,0,7.7-2.8,7.8-7.8c0-1.7-1.1-2.2-4.4-2.8l-7.1-1.3
			c-7.3-1.2-10.5-4.4-10.5-9.8s4-9.1,10.8-9.1c5.3,0,9.4,2.2,11.3,6.1H70v-5.3h9.4v3.7h-5.1v18C74.3-29.5,69.9-25.1,61.8-25.1
			 M69.7-41.1v-3.6c0-7.7-4.9-11-10.4-11c-4.7,0-7.1,2.3-7.1,5.7c0,3.3,2,5.4,6.7,6.1l6.9,1.2C67.6-42.5,69-42,69.7-41.1 M21.6-15.8
			c10.2,0,17-8.2,17-19.8s-6.9-19.8-17-19.8s-17,8.2-17,19.8S11.5-15.8,21.6-15.8 M21.6-59.6c13.1,0,22,10,22,24c0,14-8.9,24-22,24
			c-13.1,0-22-10-22-24C-0.4-49.7,8.5-59.6,21.6-59.6"/>
		<path d="M164.1,19.6v-3.7h16.1v3.7h-6.1v25.6h8.4v3.7h-8.4v5.6c0,4.1,1.4,6,4.9,6h3.6v3.9H179c-6.2,0-9.5-3-9.5-9.7v-5.8h-5.9
			v-3.7h5.9V19.6H164.1z M133.8,32.4c0,8,4.5,13.3,10.9,13.3s10.9-5.2,10.9-13.3s-4.5-13.3-10.9-13.3S133.8,24.3,133.8,32.4
			 M129,32.4c0-10.5,6.3-17.2,15.7-17.2c9.3,0,15.7,6.8,15.7,17.2c0,10.5-6.3,17.2-15.7,17.2C135.4,49.6,129,42.8,129,32.4
			 M112,45.2h3.9v3.7h-13.7v-3.7h5.3L99,21.6h-0.1l-9.3,23.5H95v3.7H80.7v-3.7h3.9l12.1-29.3l-4-10.2h-5.9V2h8.8L112,45.2z
			 M64.5,57.8v-9h-6.3v-3.7h6.3V25.9c0-6.7,3.6-10,10.5-10h3.9v3.9H75c-4.2,0-5.9,2-5.9,6.3v19.1h9.4v3.7h-9.4v9H64.5z M51.7,48.8
			H41.7v-3.7h5.5V19.6h-5.5v-3.7h15.6v3.7h-5.5V48.8z M46.7,56.2h5.3v5.9h-5.3V56.2z M36.7,23.3c-4-2.4-9-4-13.6-4
			c-11.2,0-18.5,8.2-18.5,19.7c0,11.5,7.1,19.8,18.1,19.8c3.6,0,7.1-0.8,10.3-2.2v-7.9h4.4v10.4c-4.2,2.8-9.5,4-14.6,4
			c-13.9,0-23.1-10-23.1-24s9.4-24,23.5-24c4.8,0,9.9,1.1,13.8,3.8v4.4H36.7z"/>
	</g>
</symbol>
<symbol  id="_x7E__Wordmark_White" viewBox="-0.8 -60.3 248.1 123.9">
	<g>
		<path fill="#FFFFFF" d="M237.2-53.7h0.2v-5.9h9.9v3.7h-5.5v44.8h-10.1v-3.7h5.5v-6c0-1.7,0-8.4,0.2-11.7h-0.2
			c-2.1,4.4-6.1,6.6-11.2,6.6c-8.2,0-14.8-6.8-14.8-17.2c0-10.6,6.4-17.3,14.6-17.3C230.9-60.3,235.1-58.2,237.2-53.7 M237.2-43.4
			c0-8.2-4.7-12.9-10.6-12.9c-5.9,0-10.6,4.9-10.6,13.3c0,8.2,4.7,13.3,10.6,13.3c5.9,0,10.6-4.9,10.6-13.3V-43.4z M193.2-55.8v-3.7
			h15.1v3.7H203v16.5c0,10-5.3,13.5-11.8,13.5c-4.7,0-8.7-2-10.7-6.1h-0.2v5.4h-9.7v-3.7h5.3v-25.6h-5.3v-3.7h15.1v3.7h-5.2v13.5
			c0,8,4.3,12.6,9.8,12.6c4.9,0,8.2-2.7,8.2-10.2v-15.9H193.2z M149.6-25.8c-7.8,0-12.7-4.6-12.9-11.6h4.4c0.2,5.1,3.4,7.8,8.5,7.8
			c5,0,7.7-2.8,7.8-7.8c0-1.7-1.1-2.2-4.4-2.8l-7.1-1.3c-7.3-1.2-10.5-4.4-10.5-9.8s4-9.1,10.8-9.1c5.3,0,9.4,2.2,11.3,6.1h0.3v-5.3
			h9.4v3.7h-5.1v18C162.1-30.3,157.8-25.8,149.6-25.8 M157.5-41.9v-3.6c0-7.7-4.9-11-10.4-11c-4.7,0-7.1,2.3-7.1,5.7
			c0,3.3,2,5.4,6.7,6.1l6.9,1.2C155.5-43.3,156.8-42.7,157.5-41.9 M127.4-11.1h-10.1v-3.7h5.5v-41.1h-5.5v-3.7h15.6v3.7h-5.5V-11.1z
			 M115.1-55.8h-4.6L99.7-42.4l10.9,12.1h4.1v3.7h-14.6v-3.6h5.1L94.3-42.5v-0.1l13.5-16.9h7.4V-55.8z M92-11.1h-9.9v-3.7h5.3v-41.1
			h-5.3v-3.7h15.1v3.7H92V-11.1z M61.5-25.8c-7.8,0-12.7-4.6-12.9-11.6H53c0.2,5.1,3.4,7.8,8.5,7.8c5,0,7.7-2.8,7.8-7.8
			c0-1.7-1.1-2.2-4.4-2.8l-7.1-1.3c-7.3-1.2-10.5-4.4-10.5-9.8s4-9.1,10.8-9.1c5.3,0,9.4,2.2,11.3,6.1h0.3v-5.3h9.4v3.7h-5.1v18
			C73.9-30.3,69.6-25.8,61.5-25.8 M69.3-41.9v-3.6c0-7.7-4.9-11-10.4-11c-4.7,0-7.1,2.3-7.1,5.7c0,3.3,2,5.4,6.7,6.1l6.9,1.2
			C67.3-43.3,68.6-42.7,69.3-41.9 M21.3-16.5c10.2,0,17-8.2,17-19.8s-6.9-19.8-17-19.8s-17,8.2-17,19.8S11.1-16.5,21.3-16.5
			 M21.3-60.3c13.1,0,22,10,22,24c0,14-8.9,24-22,24c-13.1,0-22-10-22-24C-0.8-50.4,8.1-60.3,21.3-60.3"/>
		<path fill="#FFFFFF" d="M163.8,18.8v-3.7h16.1v3.7h-6.1v25.6h8.4v3.7h-8.4v5.6c0,4.1,1.4,6,4.9,6h3.6v3.9h-3.6
			c-6.2,0-9.5-3-9.5-9.7v-5.8h-5.9v-3.7h5.9V18.8H163.8z M133.5,31.6c0,8,4.5,13.3,10.9,13.3s10.9-5.2,10.9-13.3
			s-4.5-13.3-10.9-13.3S133.5,23.5,133.5,31.6 M128.7,31.6c0-10.5,6.3-17.2,15.7-17.2c9.3,0,15.7,6.8,15.7,17.2
			c0,10.5-6.3,17.2-15.7,17.2C135.1,48.8,128.7,42,128.7,31.6 M111.6,44.4h3.9v3.7h-13.7v-3.7h5.3l-8.6-23.5h-0.1l-9.3,23.5h5.5v3.7
			H80.3v-3.7h3.9l12.1-29.3l-4-10.2h-5.9V1.2h8.8L111.6,44.4z M64.1,57v-9h-6.3v-3.7h6.3V25.1c0-6.7,3.6-10,10.5-10h3.9V19h-3.9
			c-4.2,0-5.9,2-5.9,6.3v19.1h9.4v3.7h-9.4v9H64.1z M51.4,48.1H41.3v-3.7h5.5V18.8h-5.5v-3.7h15.6v3.7h-5.5V48.1z M46.3,55.5h5.3
			v5.9h-5.3V55.5z M36.4,22.5c-4-2.4-9-4-13.6-4c-11.2,0-18.5,8.2-18.5,19.7c0,11.5,7.1,19.8,18.1,19.8c3.6,0,7.1-0.8,10.3-2.2v-7.9
			h4.4v10.4c-4.2,2.8-9.5,4-14.6,4c-13.9,0-23.1-10-23.1-24s9.4-24,23.5-24c4.8,0,9.9,1.1,13.8,3.8v4.4H36.4z"/>
	</g>
</symbol>
<use xlink:href="#_x7E__Lock-up_Black_Top"  width="700.3" height="358.3" id="XMLID_3_" x="0" y="-358.3" transform="matrix(0.3767 0 0 -0.3767 -46.7146 -42.0221)" overflow="visible"/>
</svg>
